<?xml version="1.0" standalone="no"?>
<!DOCTYPE svg PUBLIC "-//W3C//DTD SVG 1.1//EN" "http://www.w3.org/Graphics/SVG/1.1/DTD/svg11.dtd" >
<svg xmlns="http://www.w3.org/2000/svg">
<metadata></metadata>
<defs>
<font id="populaire_lightlight" horiz-adv-x="530" >
<font-face units-per-em="2048" ascent="1638" descent="-410" />
<missing-glyph horiz-adv-x="491" />
<glyph horiz-adv-x="2048" />
<glyph horiz-adv-x="2048" />
<glyph unicode="&#xd;" horiz-adv-x="2048" />
<glyph unicode=" "  horiz-adv-x="491" />
<glyph unicode="&#x09;" horiz-adv-x="491" />
<glyph unicode="&#xa0;" horiz-adv-x="491" />
<glyph unicode="!" horiz-adv-x="243" d="M96 -31q2 29 10 45q6 16 13 23l12 2h10q16 -6 21 -6l12 -8h6q2 -6 2 -23q0 -27 -2 -35v-2v-2q0 -23 -6.5 -30.5t-23.5 -10.5h-11q-5 0 -8.5 0.5t-5 1t-2.5 0.5l-4 2h-2q-9 4 -13 13q-8 23 -8 30zM109 1055q2 16 2 30v33q0 19 2 27v2v192q0 25 -1 76t-1 62q0 17 1 41.5 t1 31.5q23 2 51 2h8v-77q-2 -51 -2 -144v-2v-2q2 -14 2 -67v-3q1 -13 2 -50.5t2 -55.5v-526v-2q2 -16 2 -27q0 -20 -4 -74v-2v-254q0 -25 2 -39v-53q0 -33 -2 -37q-18 -4 -22 -4q-2 0 -12 1t-15 1v4v21q0 10 -1 21t-1 12q0 225 -4 335q0 38 -2 54v55v2q-2 12 -2 57v66v2 q-2 37 -2 158v75q2 13 2 17q0 17 -6 41z" />
<glyph unicode="&#x22;" horiz-adv-x="270" d="M43 1493q17 -1 29.5 -2t18 -1.5t7.5 -0.5l2 -8l4 -29q0 -19 -0.5 -32.5t-1 -20.5t-0.5 -8l-2 -5v-6q0 -7 -6 -37q-8 -41 -8 -67h-4q-12 6 -23 6h-6q-2 20 -2 64l-4 71l-2 2v13v30v4q-2 6 -2 27zM180 1493q17 -1 30 -2t18.5 -1.5t7.5 -0.5l2 -8l4 -29q0 -19 -0.5 -32.5 t-1 -20.5t-0.5 -8l-2 -5v-18l2 -2v-6q-2 -18 -2 -39q-2 -23 -2 -47h-7q-10 -2 -14 -2l-18 8h-7h-2q-2 18 -2 66l-2 71l-2 2v13v30v4q-2 6 -2 27z" />
<glyph unicode="#" horiz-adv-x="940" d="M84 918q52 -3 154 -3h16l6 3q8 4 31 4h45l12 53q5 11 4 13v1l2 6v4v2l23 80q6 16 10 41q1 5 8 35l39 152q21 91 31 123l10 36l4 12v1v2h2l6 2h9h14l-31 -133q-8 -38 -22 -95q-6 -30 -13 -51v-2q-5 -25 -10 -45q-3 -15 -10 -43l-27 -96l-22 -98h307v28l2 8l6 19l2 12l2 6 v4v2l23 80q7 28 10 37v2v2q1 5 8 35l39 152l19 76t12 49l8 34l6 15h2l6 2h7h16l-31 -133l-18 -84q-5 -11 -7.5 -21.5t-2.5 -11.5q-7 -23 -7 -27l-2 -2v-2q-5 -25 -10 -45q-3 -15 -10 -43l-25 -96l-22 -96l39 -2q59 -2 151 -2l4 -50h-69h-138l-24 -92l-33 -141h39 q82 -2 205 -2l4 -49h-53q-140 0 -187 -2h-10l-10 -9q-10 -10 -10 -30l-27 -92l-102 -410l-5 -12l-4 -6v-9q-2 2 -16 2h-10q-6 0 -11 1l-4 1l144 564h-60h-92l-2 2l-41 -2l-61 -2q-28 0 -39 -11l-8 -10v-8l-29 -100l-100 -408l-5 -22l1 2l-2 -7h-5h-16h-10q-6 0 -11 1l-4 1 l142 558l-144 2v4q0 5 -1 9.5t-1 7t-0.5 4.5t-1 2.5t-0.5 1.5v1v4q-2 6 -2 19q35 -2 140 -2h24l31 117q1 2 2.5 10t3.5 16t4 14q2 12 6 24l4 13l8 39h-38q-31 0 -37 -2h-19l-135 2q-4 27 -4 31v4q-2 6 -2 19zM305 637h297l29 113q1 2 2.5 10t3.5 16.5t4 14.5q2 11 5.5 23.5 t4.5 16.5l6 37h-147h-92l-4 4l-52 -6l-24 -88z" />
<glyph unicode="$" horiz-adv-x="434" d="M20 1309q0 86 41 141q17 29 54 45q26 13 57 16v70v4h4l6 2h13h8q8 -1 10 -2h2v-69h2q62 0 97.5 -28t58.5 -79q12 -36 12 -59q6 -40 6 -70l4 -78v-24l-2 -7h-6h-10q-19 3 -33 5q-8 5 -11.5 4.5t-4.5 -0.5q0 5 -1 41t-1 61q0 50 -16.5 95.5t-41.5 64.5q-20 18 -47 18h-4 v-47v-35v-2q2 -16 2 -30v-146v-2q2 -20 2 -41v-244q9 -18 29.5 -67.5t32.5 -73.5q2 -6 12 -31q49 -103 78 -235q1 -4 5 -30.5t7 -45.5q10 -88 10 -129q0 -63 -6 -121q-14 -129 -63 -176q-36 -36 -105 -39q-2 -23 -2 -47v-2v-4l-2 -6q-3 -5 -10.5 -3t-23 7.5t-21.5 5.5v57 q-33 10 -62 31.5t-39 40.5q-32 57 -34 131l-2 230q10 0 20 2h6q4 0 29 -5h6q0 -4 -0.5 -7.5t-1 -5.5t-0.5 -3v-2v-47q0 -18 -1 -59.5t-1 -57.5v-20q14 -152 80 -170l4 772v74l-25 49l-14 32q-15 35 -16 37l-31 70q-45 121 -55 190q-1 15 -2 27t-2 18t-1 9zM74 1311l2 -41 q8 -21 14.5 -54.5t11.5 -50.5q8 -32 29 -80l37 -71v160q2 25 2 38v179q0 15 1 35.5t1 27.5q-27 -9 -45 -27q-15 -15 -37 -55l-2 -2q-11 -31 -14 -57v-2zM221 29q5 0 12 1t9 1q86 21 86 207v24q0 25 -2 72.5t-2 68.5q-3 78 -52 222q-13 38 -51 133v-6q2 -35 2 -93 q0 -27 -1 -81t-1 -86v-463z" />
<glyph unicode="%" horiz-adv-x="733" d="M61 1030v51v52l2 36v74q0 17 3 23v4v39q0 80 24.5 120.5t59.5 47.5h20t21 -1.5t17.5 -5.5t19.5 -13.5t16 -24.5q47 -77 47 -226v-231q0 -44 -33 -90q-30 -41 -53 -41q-58 0 -70 6q-24 6 -45 41q-22 31 -22 63q-2 6 -2 11v2v2q-5 29 -5 61zM106 1104q0 -129 13 -164 q19 -43 61 -43q28 0 45 33l2 2v2q11 28 11 41q2 19 6 37q0 36 -2 100t-2 105q0 53 -4 81q0 11 -5 41h-2v2q-5 15 -7.5 21.5t-9 13.5t-17.5 15q-12 8 -31 8h-4l-4 -2q-8 -3 -14.5 -8t-9.5 -9l-3 -4q-23 -32 -23 -73q0 -7 1.5 -26.5t1.5 -31.5v-33l-3 -2v-6v-100zM119 0 l215 688q27 74 65.5 230.5t63.5 234.5l55 168l43 121l17 37l6 16h6l4 2h22h19l-47 -141l-2 -2v-2q-4 -14 -37.5 -111.5t-38.5 -118.5v-2l-78 -286q-2 -12 -21.5 -82t-25.5 -95q-1 -3 -12 -31t-15 -44q-6 -23 -6 -35l-26 -92q-102 -353 -136 -435l-8 -20l-20 -4q-9 2 -19 2 h-8q-16 0 -16 2zM475 258v76q0 25 2 35v39q0 18 2 22v43q0 102 31.5 134t103.5 32q42 -4 64 -37q31 -49 31 -139v-68v-49q0 -32 1 -45t1 -41v-149q0 -49 -23.5 -78t-60.5 -29q-34 0 -56 3t-36.5 13t-21 18t-19.5 28q-19 58 -19 192zM530 367q0 -217 15 -263q19 -43 61 -43 q58 0 58 91v90q0 74 -7 221q0 58 -22 94q-13 21 -47 21h-4q-16 -5 -27.5 -16.5t-14.5 -20.5l-3 -9q-7 -21 -7 -22v-2v-133l-2 -2v-6z" />
<glyph unicode="&#x26;" horiz-adv-x="722" d="M57 442l4 109q21 123 62 164l20 22l-20 23q-17 17 -30 45.5t-13 48.5l-2 2v4q-21 55 -21 193q0 159 29 338q6 27 18 51v2q23 50 86 63q31 4 109 4h43h35q42 0 70.5 -26.5t33.5 -54.5q2 -14 2 -58v-43v-43h-14l-49 -2v2v23q0 30 -2 59q-3 56 -41 68q-20 4 -84 4h-43 q-55 0 -76 -21q-10 -11 -17.5 -23t-12.5 -29.5t-8 -28.5t-5 -36t-2.5 -33t-2 -38.5t-1.5 -36.5q0 -254 12 -309q13 -54 37 -84q6 -7 15 -14t15 -10l5 -3q64 -26 121 -26q14 0 44 -1.5t44 -1.5q40 0 84 7v96h10l33 -6h4q16 2 18 2v-94l76 -7h12v-32q1 -4 2 -12.5t2 -10.5h-92 l-2 -63q4 -45 4 -156q0 -105 -4 -203v-35v-73v-25v-33v-82v-18q-2 0 -26.5 4t-32.5 4q-2 9 -3.5 17t-2.5 12q-3 7 -5 24q-3 15 -6 15q-31 -39 -73 -60.5t-113 -21.5h-8h-10q-147 0 -181 82v2q-26 53 -38 147q-9 83 -9 217zM127 461q0 -27 2 -74t2 -72q0 -46 6.5 -89 t20.5 -83t41 -64t63 -24h53q140 0 174 146q15 59 15 131v35q0 76 -2 96v217l-35 2h-2l-78 2q-50 1 -87 2.5t-52 1.5q-51 0 -70 -24q-22 -25 -37 -80q-14 -68 -14 -123z" />
<glyph unicode="'" horiz-adv-x="174" d="M53 1233v20v74q0 120 4 178h4q9 0 23.5 0.5t23.5 0.5t13 -1v-153l-2 -115z" />
<glyph unicode="(" horiz-adv-x="286" d="M84 745q0 17 2 25v2v158q0 49 2 76v2v69q0 38 2 58q2 31 2 53q0 70 2 80v2q6 116 41 194q44 91 115 107l2 -35q-5 -4 -9.5 -9t-7.5 -9t-4 -5l-2 -2q-15 -20 -26 -41q-22 -46 -41 -276q0 -56 -2 -68v-2v-2q0 -59 -2 -71v-2v-84q-2 -45 -2 -84v-287q3 -347 18 -399 q10 -43 21 -64q8 -19 30 -51q30 -43 47 -60l-2 -57q-37 2 -47 12l-4 7l-6 2q-30 16 -59 57q-16 29 -26.5 58.5t-17 72t-9.5 64.5t-7 82t-6 79q-2 20 -2 95v227v2q-2 14 -2 24z" />
<glyph unicode=")" horiz-adv-x="286" d="M14 20q17 17 47 60q9 11 31 51q10 23 21 64q15 51 18 399v287q0 53 -2 84v84v2q-1 31 -1.5 90t-1.5 84t-4 66t-8.5 75.5t-15.5 73.5q-2 9 -5 15t-6 10t-3 5q-4 8 -8.5 15t-10.5 14.5t-8 11.5l-2 2q-15 18 -20 23l2 35q72 -17 115 -107q35 -82 41 -194v-2q8 -44 8 -127 q0 -25 -1 -70.5t-1 -62.5v-2q2 -37 2 -76v-158v-2q2 -14 2 -25q0 -16 -2 -24v-2v-227q0 -77 -2 -95q-2 -28 -3.5 -52.5t-2 -33.5t-0.5 -12q-1 -9 -4.5 -44.5t-5.5 -50t-6 -40.5t-9.5 -44.5t-13.5 -33.5q-12 -30 -21 -45q-31 -41 -59 -57l-6 -2l-5 -7q-9 -9 -47 -12z" />
<glyph unicode="*" horiz-adv-x="346" d="M82 1321q4 3 20 18.5t36 35t30 28.5q-10 9 -30 28.5t-36 35t-20 18.5l18 18l70 -73l-2 92h27q-2 -8 -2 -72v-20l69 73l19 -18q-5 -4 -38 -37t-46 -45q13 -11 46 -44.5t38 -37.5l-19 -21l-69 74l4 -108h-27q2 4 2 34v25v51l-72 -76z" />
<glyph unicode="+" horiz-adv-x="477" d="M43 604v53q33 -2 123 -2h43v133q0 9 0.5 18t0.5 15l1 6h53q0 -24 -1 -56.5t-1 -47.5v-25v-36h133q9 0 18 -1t15 -1l6 -1v-49q-8 0 -17.5 -1t-10.5 -1h-37q-7 0 -19 0.5t-23 0.5t-22 -1h-39l2 -41v-6v-24l-2 -101h-53q2 33 2 123v43h-41h-6h-25z" />
<glyph unicode="," horiz-adv-x="186" d="M45 47v51v11q2 2 8 2h2h2h64h2q13 0 16 -5q2 -4 2 -20v-25v-4q0 -42 -2 -69l-12 -58q0 -2 -2 -8q-4 -7 -13.5 -13t-16.5 -8.5t-9 -2.5q-1 1 -1 2t1.5 5.5l3 9t4 12.5t4.5 16q1 3 3 8.5t4.5 19t0.5 23.5q-4 6 -26 6h-21h-4q-5 0 -8 6q-2 5 -2 41z" />
<glyph unicode="-" horiz-adv-x="487" d="M57 633v43q33 -2 123 -2h15l6 2q16 4 37 4h77q53 0 84 2h47v-2q0 -5 1.5 -15t1.5 -14h2v-2v-8v-31q-7 0 -18.5 -1t-12.5 -1h-37h-23l-4 2l-39 -2l-65 -2q-6 0 -20 -1t-17 -1q-27 0 -37 -2h-20l-99 2v2v2z" />
<glyph unicode="." horiz-adv-x="169" d="M45 45q1 29 21 68q2 2 6.5 4.5t14 6.5t15.5 3q5 -1 11 -7t9 -12l3 -6q4 -10 4 -22q0 -27 -2 -31v-6q0 -15 -7.5 -29t-21.5 -14h-10q-5 0 -8.5 0.5t-5 1t-2.5 0.5l-4 2h-2q-7 4 -14 20t-7 21z" />
<glyph unicode="/" horiz-adv-x="743" d="M27 0l338 743q15 35 41 88l215 478l81 170q4 14 9 14q0 2 4 2h4l6 2h29l-66 -139q-13 -30 -23 -54.5t-18 -41.5l-12 -29q-2 -6 -4.5 -11.5t-3 -7t-0.5 -2.5q-33 -66 -64 -134.5t-68.5 -158.5t-58.5 -137l-51 -120q-24 -44 -39 -80l-252 -562q-4 -10 -4 -12l-6 -8l-12 -4 q-8 2 -19 2h-10q-5 0 -8.5 0.5t-5 1t-2.5 0.5z" />
<glyph unicode="0" horiz-adv-x="583" d="M61 354v133q2 27 2 45v371q3 37 3 62q0 217 36 333q16 51 31.5 87.5t44 72t64.5 51.5q37 15 67 15q4 0 13.5 -1t13.5 -1q45 -6 85 -33t54 -57q30 -54 38.5 -121t8.5 -170v-54v-69v-2q2 -37 2 -76v-180v-2v-156v-76q0 -76 -2 -94q-2 -28 -3.5 -52.5t-2 -33.5t-0.5 -12 q-1 -5 -4 -32t-4 -34t-4 -30t-5 -31.5t-5.5 -28t-6.5 -29.5t-8 -24.5t-10.5 -26t-11.5 -22.5q-31 -42 -61.5 -65t-71.5 -29q-12 -2 -41 -2h-50q-10 0 -40 6q-58 26 -84 71t-37 121q-5 18 -9 90q-2 49 -2 86zM123 332q0 -126 12 -182q12 -43 50 -75t81 -32q47 0 75.5 13 t40 29.5t30.5 55.5q12 27 20 58q28 97 31 399v262q0 53 -2 84v74v2q0 11 -0.5 50t-1 56t-2 51.5t-3.5 55.5t-5.5 47t-8.5 47q-11 53 -41 89t-71 40l-21 -2q-31 -5 -49.5 -15t-25 -18t-17 -28.5t-18.5 -32.5l-17 -43l-2 -2q-6 -16 -22 -68q-18 -89 -21 -137q-2 -39 -2 -72 l-6 -299q0 -141 -2 -215q-2 -82 -2 -174v-18z" />
<glyph unicode="1" horiz-adv-x="327" d="M33 1286v70q24 13 86 67q14 13 35.5 34t34.5 34.5t16 13.5l6 2h12h27q8 -1 10 -2h2q0 -12 1 -58.5t1 -78.5v-35v-2v-98q0 -65 -1 -202t-1 -206q0 -121 2 -178q-1 -16 -2 -33t-1.5 -26.5t-0.5 -16.5q0 -9 1 -21t1 -13v-93q0 -374 -2 -413q-2 -3 -1 -14.5t1.5 -19 t-2.5 -9.5h-25q-7 0 -13 0.5t-10 1.5h-3l-10 5l-5 2.5t-2 0.5l5 758q0 94 2 106v2v248q0 25 2 35v2v27q0 133 2 170l4 79q-32 -33 -55 -51l-99 -78q-4 -3 -8.5 -5.5t-6.5 -3t-3 -1.5z" />
<glyph unicode="2" horiz-adv-x="518" d="M43 51v55v23q1 25 4 68.5t4 74.5q0 18 4 68q17 155 51 229q39 88 121.5 262.5t122.5 266.5q5 12 19 42t19 44t13.5 38.5t11.5 48t3 50.5q0 47 -23 100q-26 49 -78 58q-4 0 -11 1t-11 1q-67 0 -107 -43q-14 -14 -22.5 -33.5t-11 -33t-5 -37.5t-4.5 -34v-4q0 -10 -8 -84 h-12q-19 0 -25 2q-11 2 -14.5 5t-3.5 12v10q0 17 2 25v2q0 74 19.5 139.5t52.5 91.5q23 22 72.5 35.5t88.5 13.5q72 0 111 -45v-2q7 -6 12.5 -12.5t10 -12t8.5 -14.5t6.5 -13.5t5.5 -15.5t4 -15.5t3.5 -18t3 -17.5t2.5 -19.5t3 -19.5v-16q0 -58 -16.5 -125.5t-36.5 -109.5 l-37 -78v-2q-19 -41 -87.5 -178t-102.5 -226q-3 -7 -13.5 -34t-14.5 -37.5t-12.5 -34t-12.5 -38t-9 -34.5t-8 -37q-8 -41 -12 -119q-4 -86 -4 -133v-65q12 -6 65 -6q16 0 58 1t67 1q22 0 78 -1t70 -1h8h10q14 0 14 -7v-12l-2 -31v-12q0 -8 -10 -8h-10h-41q-31 -2 -90 -2 q-29 0 -85 1t-83 1q-57 0 -86 -2q-26 1 -32.5 11t-6.5 42z" />
<glyph unicode="3" horiz-adv-x="542" d="M43 1348q6 105 59 155q51 51 150 51q47 0 80 -10q57 -14 92 -100q35 -82 43 -207q2 -41 2 -133l-4 -62q-5 -47 -33.5 -114.5t-52.5 -77.5l18 -23q36 -45 54.5 -82t19.5 -86q4 -110 4 -188q0 -254 -33 -354q-48 -146 -190 -146q-13 0 -19 2h-2h-4h-14l-4 2h-6 q-85 0 -121 52q-35 45 -35 147v23q44 0 68 -4v-9q0 -8 0.5 -31.5t1.5 -33t4 -26t11 -26.5t20 -18q37 -20 98 -20h12q9 0 14 1t7 1q66 20 94 121q8 32 12 58.5t7 62.5t3 38q2 33 2 74v25v67q0 140 -16 215q-23 85 -90 103q-28 4 -37 4q-15 0 -25 2h-2h-28h-4q-2 14 -2 43 q0 6 0.5 11t1 7.5t0.5 3.5q12 -2 16 -2q19 0 47 4q49 8 80 43q21 21 41 86q14 45 14 138v90q0 119 -31 187t-92 71l-4 2h-16q-62 0 -99.5 -38t-50.5 -97q-4 -4 -24 -4q-17 0 -27 2h-2h-8z" />
<glyph unicode="4" horiz-adv-x="538" d="M47 1503h23h2h2h2q13 0 25 -1t14 -1l12 -274q2 -53 2 -105v-2q2 -31 2 -129v-137v-27l174 -2q4 2 49 2h37q-2 23 -2 84t-3 173t-3 167v2v2q0 12 1 38t1 40q-6 15 -6 29q0 24 -1 45.5t-2 34t-1 14.5v49h2h2h2q14 0 30.5 -1t28.5 -1v-153q7 -282 17 -453q0 -47 1 -91t1 -50 v-2l8 -332l12 -283l-2 -51l2 -8l4 -80q-2 -2 -6 -2q-48 -10 -51 -10h-6q-4 40 -4 61l-6 129q-5 274 -13 424q-2 27 -2 76v6q0 41 -2 59v27h-67q-26 0 -78.5 -2t-75.5 -2l-100 2v33q-2 14 -2 69q0 101 -2 152q-1 43 -6 153t-5 154l-8 137v2q-2 16 -2 35z" />
<glyph unicode="5" horiz-adv-x="608" d="M76 877v4v2v2v4q0 18 1 58.5t1 60.5v6v2v2v4q0 47 2.5 95.5t3.5 72.5q0 7 1 16t1 17v2v2v4v4v47q0 181 8 217v6h51h11h12h10h15q33 0 96.5 -1t97.5 -1h19h8h12h10h43h39q2 -10 2 -33q0 -35 2 -45h-43h-127h-2h-4q-19 0 -31 2q-23 0 -63 -1t-55 -1h-4h-35v-2v-116 q-8 -94 -8 -267v-4v-6q0 -5 -1.5 -21t-1.5 -22q0 -12 0.5 -34.5t1.5 -40.5t1 -19q4 -4 26 -4q19 0 105 4h4h2h2h6q80 0 127 -9.5t76 -37.5q41 -44 41 -133v-45q-2 -8 -2 -47v-21v-22v-37v-25l2 -295q0 -84 -45 -151q-25 -39 -64.5 -56.5t-107.5 -17.5h-5h-2l-6 -2h-2h-2h-2 q-109 0 -162 84q-29 53 -41 92q-18 74 -18 190v19l68 6q1 -20 4 -58.5t4 -56.5q6 -82 38.5 -136.5t88.5 -67.5q5 -1 11.5 -2t10.5 -2t6 -1q77 0 111 39q41 51 41 160v2v2v2l-2 199v4v2v2v4q0 15 1 53t1 58v4v2v2v4q0 168 -29 191q-28 22 -90 22h-2h-12h-17l-157 -2h-8 q-3 0 -15 -1t-14 -1h-29h-14q-2 20 -2 68z" />
<glyph unicode="6" horiz-adv-x="589" d="M66 367v14v389v399q0 105 16 170q26 126 106 164l2 2q57 29 121 29q63 0 109 -16h2v-2q45 -12 80 -80q14 -27 14 -68q0 -9 -1 -21t-1 -14t-8.5 -3t-25 -3.5t-31.5 -7.5q0 46 -8.5 75t-26 42t-34 17.5t-42.5 7.5q-8 1 -12 1h-2h-25h-4q-44 -10 -66 -22q-66 -35 -86 -131 v-2v-2q-8 -102 -8 -125v-64q0 -86 -2 -96v-2v-31v-82v-61q40 59 76 75.5t84 16.5h18q24 0 65 -12t52 -21q43 -39 65.5 -80.5t28.5 -101.5v-2q4 -76 4 -260q0 -64 -2 -76v-2v-2q0 -94 -10 -166q-8 -64 -35 -127q-24 -61 -73 -88q-55 -30 -109 -33h-66h-4q-64 5 -110 66 q-49 66 -49 248v55q0 8 -1 20t-1 13zM135 553q0 -192 2 -266v-15q0 -36 17 -129q11 -36 31.5 -59t58.5 -37q20 -8 45 -8q5 0 11 1l5 1h10h2q94 24 121 168q17 80 17 221q0 34 -1 97t-1 89q0 62 -2 74q-2 80 -35.5 125.5t-96.5 48.5h-2h-8q-60 0 -102 -37q-33 -27 -49 -75 q-23 -76 -23 -199z" />
<glyph unicode="7" horiz-adv-x="430" d="M37 -37q27 95 68 298.5t55 260.5l92 469q14 69 14 78q10 50 31 182t29 179q-62 4 -86 4q-18 0 -56.5 -1t-60.5 -1h-29h-43v18q0 14 1 38t1 30q33 -2 123 -2h154h69h9q2 0 2 -9q0 -16 -4.5 -46t-6.5 -34l-77 -430q-16 -94 -36.5 -192t-47.5 -216.5t-41 -187.5 q-10 -59 -36.5 -194.5t-37.5 -202.5q-1 -17 -6 -39h-56q-22 0 -24 -2z" />
<glyph unicode="8" horiz-adv-x="563" d="M59 455v51q0 211 54 282v3h2q12 24 28 40l19 21l-19 20q-7 8 -12.5 15.5t-9.5 14.5t-6 9q-36 76 -41 127v4l-2 5l-1 7q-1 8 -2 19.5t-1 22.5q0 130 12 196q7 41 18 90q12 34 23 50v2l2 2q5 15 24 34h3v3q17 20 29.5 27t45.5 18q6 0 15 1t10 1q14 2 41 2q95 0 135 -43 q35 -35 55 -103q25 -85 29 -286q0 -57 -21 -129.5t-49 -86.5l-20 -22l20 -23q3 -1 29 -38q13 -24 27 -58q19 -40 24.5 -82.5t5.5 -124.5q0 -116 -4 -194q-4 -98 -12 -142q-9 -80 -16 -108q-21 -52 -66 -84.5t-100 -32.5h-4l-7 -2q-8 0 -16 -2h-20q-23 0 -31 2q-18 2 -25 2 q-54 16 -79.5 45t-45.5 88q-41 202 -41 357zM129 424q1 -11 3.5 -56t6 -83t8.5 -74q6 -65 25 -105q24 -60 84 -79q8 -4 23 -4q77 0 127 53q43 43 43 151q0 7 4 72t4 129v41q2 12 2 23v6l-2 106v2q-15 112 -54 158q-6 8 -28 19t-23 12h-2l-2 2q-40 16 -72 16 q-48 0 -82.5 -43.5t-50.5 -101.5q-14 -41 -14 -123v-76v-45zM133 1139q0 -78 17 -131q12 -50 50 -94t87 -44t86.5 29t52.5 76q20 55 20 147v78q0 71 -24 144.5t-57 97.5q-23 16 -68 16h-14q-1 0 -29 -4q-78 -13 -102 -123q-19 -80 -19 -192z" />
<glyph unicode="9" horiz-adv-x="618" d="M90 182q0 19 2 19q12 -2 17 -2q9 0 32.5 -4.5t32.5 -4.5q23 -137 115 -137q50 0 87 20t58 50.5t33.5 78t16 92t3.5 103.5v49q0 15 -1 69t-1 73v63q-39 -31 -77 -49q-49 -22 -107 -22h-22q-104 11 -150 104q-33 68 -37 188v138q0 173 10.5 284t44.5 162q20 36 60 57 q44 20 63.5 24.5t73.5 4.5q63 0 100.5 -10.5t65.5 -40.5q46 -46 49 -127l2 -76q0 -53 2 -144.5t2 -127.5v-15q0 -55 -1 -135t-1 -123v-393q0 -36 -4 -94q-13 -130 -77.5 -205.5t-186.5 -81.5h-10q-83 0 -139 61.5t-56 151.5zM160 860q0 -57 6 -88.5t27 -56.5q36 -59 110 -62 h8q83 0 115 35q4 4 14.5 13.5t17 16t14 16t11.5 18.5q11 22 11 82v47v24v21v69q0 66 -1 156.5t-1 140.5v43q0 51 -38.5 96.5t-95.5 45.5q-112 0 -157 -66q-41 -62 -41 -215q0 -25 1 -73.5t1 -71.5q-2 -61 -2 -144v-47z" />
<glyph unicode=":" horiz-adv-x="206" d="M104 352q1 29 21 68q21 14 35 14h2q5 -1 10.5 -7t8.5 -11l3 -6q4 -10 4 -23q0 -27 -2 -31v-6q0 -15 -7 -29t-21 -14h-11q-5 0 -8.5 0.5t-5 1t-2.5 0.5l-4 2h-2q-7 4 -14 20t-7 21zM104 1028q1 29 21 68q21 14 35 14h2q5 -1 10.5 -7t8.5 -12l3 -6q4 -10 4 -22 q0 -27 -2 -31v-6q0 -15 -7 -29t-21 -14h-11q-5 0 -8.5 0.5t-5 1t-2.5 0.5l-4 2h-2q-7 4 -14 20t-7 21z" />
<glyph unicode=";" horiz-adv-x="194" d="M45 29v18v51v11q2 2 8 2h2h2h74h2q15 0 17 -5q2 -4 2 -20v-25v-4q0 -42 -2 -69l-13 -58q0 -2 -2 -8q-4 -7 -16 -13t-21.5 -8.5t-11.5 -2.5q-1 1 -1 2t1.5 5.5l3 9t4 12.5t4.5 16l2.5 7.5t4 18t1.5 25.5q0 6 -26 6h-21h-4q-5 0 -8 6q-2 4 -2 23zM61 846q1 14 3.5 25.5 t4.5 16t7 14.5t6 11q21 15 35 15h2q5 -1 10.5 -7t8.5 -12l3 -6q4 -10 4 -22q0 -27 -2 -31v-6q0 -15 -7 -29t-21 -14h-11q-5 0 -8.5 0.5t-5 1t-2.5 0.5l-4 2h-2q-7 4 -14 20t-7 21z" />
<glyph unicode="&#x3c;" horiz-adv-x="415" d="M84 641l35 47l12 21l148 217h22q4 2 43 2h10q-13 -16 -37.5 -51t-33.5 -46v-2l-88 -133l-39 -53l32 -41q11 -17 25 -29l129 -167l12 -13h-49q-2 0 -26 4l-19 25l-35 41l-4 8v2q-4 4 -13 16.5t-11 14.5v2q-54 72 -113 135z" />
<glyph unicode="=" horiz-adv-x="536" d="M84 530v66q33 -2 123 -2h14l6 2q16 4 37 4h172q9 0 18 -0.5t15 -1.5h6v-61q-7 0 -18 -1t-13 -1h-34h-23l-4 2l-39 -2l-65 -3q-4 0 -19.5 -1t-19.5 -1q-11 0 -23 -1l-12 -1h-21zM84 745v72q33 -2 123 -2h14l6 2q16 4 37 4h78q55 0 92 -2h2h39v-67q-7 0 -18 -1t-13 -1h-34 h-23l-4 2l-39 -2l-65 -2q-4 0 -19.5 -1.5t-19.5 -1.5q-11 0 -23 -1l-12 -1h-21z" />
<glyph unicode="&#x3e;" horiz-adv-x="415" d="M84 393l12 13l129 167q14 12 25 29l33 41l-39 53l-88 133v2q-9 11 -34 46t-38 51h10q39 0 43 -2h23l147 -217l12 -21l35 -47q-55 -58 -112 -135v-2q-2 -1 -11 -13.5t-14 -17.5v-2q-4 -6 -4 -8l-35 -41l-18 -25q-24 -4 -27 -4h-49z" />
<glyph unicode="?" horiz-adv-x="464" d="M96 1208q0 3 1 8t1 7v43q0 5 1 16.5t2 20.5t1 10v12q1 18 2 28.5t2.5 21.5t2 15t3 13.5t3.5 12.5t5.5 16t6.5 20q10 26 25 37v2q42 47 106 47q65 0 107 -45v-2q11 -9 24 -29v-2q45 -68 45 -182q0 -41 -8 -72q-10 -39 -47 -129l-29 -76q-7 -19 -20.5 -50t-20.5 -50 q-14 -38 -41.5 -106t-43.5 -114t-21 -85q-10 -54 -10 -168q0 -38 1 -160t1 -135v-49h-60v143q0 20 2 157.5t2 141.5q0 26 3 53.5t6.5 48.5t12.5 50t13.5 44t17.5 45.5t17 39t19 41t16 35.5v2l2 2q0 1 12 31l51 139l29 86q3 11 8.5 26t7.5 23q0 4 3.5 18t4.5 19q5 45 5 51 q0 79 -22 130t-71 54h-12q-43 0 -67 -29.5t-29 -70.5v-2q-1 -5 -5.5 -37t-4.5 -39q0 -68 -2 -84h-7q-33 0 -51 6zM129 -57q1 14 3.5 25.5t4.5 16t7 14.5t6 11h4q8 4 14 4h4q20 -3 28 -13.5t11 -31.5v-10q0 -43 -10 -53v-4q-4 -1 -8.5 -2t-7 -1.5t-3.5 -0.5h-10 q-5 0 -8.5 0.5t-5 1t-2.5 0.5l-4 2h-2q-7 4 -14 20t-7 21z" />
<glyph unicode="@" horiz-adv-x="1013" d="M51 369q0 27 1 85t1 87v55v192q0 81 2 97v22q0 27 2 39v78q2 39 3.5 108t4.5 115.5t9 83.5q8 39 25.5 69t47 49t59.5 31.5t76 19t82.5 9t92.5 4.5q56 -1 250 -8q119 -20 180 -62t74 -124q12 -120 12 -344q0 -82 -2 -115v-143q2 -39 2 -139v-138q0 -44 -1 -69.5t-5 -54.5 t-11.5 -44t-21 -29t-33.5 -19t-49 -5q-193 0 -201 117v29q-5 -3 -19.5 -11t-19.5 -10.5t-17.5 -7.5t-21.5 -7t-23 -3.5t-30 -1.5q-108 0 -156.5 61.5t-56.5 173.5v2q-6 40 -6 105q0 56 6 108q11 101 40.5 146t98.5 45q132 0 199 -54v111v20q0 125 -72 191q-1 0 -5 2t-5 2 l-2 2h-2q-42 21 -72 21q-13 0 -30 -7q-17 -6 -28 -14t-16 -20t-7 -19.5t-3.5 -22.5t-1.5 -18v-10l-63 2q8 96 31 125q13 19 37 28t36 9q16 2 45 2q40 0 78 -10q81 -26 125 -115q16 -64 20.5 -104.5t4.5 -112.5v-158q0 -27 2 -33q-4 -18 -4 -80v-71v-15v-77l-2 -66v-78 q0 -56 38 -85t74 -29q53 0 65.5 25t12.5 95q2 27 2 84q0 45 -1 136t-1 135q0 8 -1 108t-1 152q0 78 2 78v82q-3 91 -16 137.5t-51 75.5q-37 28 -179 51q-51 8 -159 8h-64q-128 0 -196 -27q-40 -13 -65.5 -41t-31.5 -63q-12 -102 -12 -236v-379v-63q0 -37 2 -53v-221v-41 q2 -110 9.5 -153.5t29.5 -55.5q14 -9 72.5 -22t95.5 -13q53 0 147.5 -3t235.5 -3h260q2 -8 2 -29q0 -33 -6 -45h-496q-168 3 -235 10q-82 9 -109 23q-84 44 -84 336zM360 711q0 -101 17 -176q32 -147 135 -158h6l6 -1q6 -1 11 -1q74 0 106 65l4 6q0 38 1 105t1 104v31v94v47 q-18 32 -65.5 54t-89.5 22h-11q-68 -3 -94.5 -54t-26.5 -138z" />
<glyph unicode="A" horiz-adv-x="622" d="M29 -33q2 10 2 23q6 25 6 43q9 46 16 123q5 43 10 69q1 8 4.5 27t4.5 27q5 20 7.5 36t2.5 17l8 57l45 287q9 70 20.5 131.5t28 135.5t25.5 120q1 8 4 23.5t4 19.5v2v2q1 9 2 15t1.5 8.5t0.5 3.5l2 2v4q10 48 27 117t22 96l52 178q2 -1 28.5 -1t51.5 -2t28 -7 q9 -27 19 -97.5t14 -93.5q5 -42 14.5 -112.5t14.5 -122.5q4 -51 22 -224q4 -63 17 -209t16 -194l18 -152l17 -200q4 -42 7 -53.5t7 -57.5v-10q0 -6 2 -12q-28 -4 -29 -4h-6l-4 -5q-1 0 -6 -1t-8 -1h-15v2q-18 208 -28 265l-6 28l-21 4h-10h-49h-23h-2q-12 0 -22 2h-2h-52 q-11 0 -20 3h-2h-47h-4q-12 -3 -13 -3q-45 0 -77 -4q-11 -12 -16.5 -37t-10 -67.5t-10.5 -69.5v-2l-2 -4q-5 -75 -21 -125q-8 -2 -12 -2h-27q-24 0 -26 2zM162 360h33q44 -8 94 -8q17 0 53 1t57 1q11 0 22 1t13 1h60l-45 553q-9 79 -13.5 130t-5 64.5t-3 33t-7.5 53.5l-8 74 l-29 188l-12 12l-49 -190q-1 -3 -10 -49t-20 -100t-13 -64q-49 -226 -60 -301l-16 -113q-7 -44 -13 -84t-14 -88q-4 -19 -6 -33.5t-2.5 -23t-1.5 -12.5z" />
<glyph unicode="B" horiz-adv-x="481" d="M84 1460v4q0 33 4 43q6 13 21 13q10 2 16 2h43h2q18 0 68 -4q20 -2 38 -7h3q46 -6 77 -34q44 -36 60 -97q6 -22 9 -51.5t4.5 -51.5t2.5 -61t2 -59v-37v-18v-53q0 -6 -1 -19t-1 -20v-19v-57l-6 -64q-4 -17 -12 -55q-2 -5 -4.5 -12t-3.5 -8q-24 -69 -87 -107l-28 -18 q0 -3 10.5 -16t17.5 -19q20 -15 32.5 -30t18 -25t21.5 -43q18 -37 25 -86q1 -10 2 -17.5t1.5 -11.5t0.5 -6l2 -21v-22q0 -84 -4 -123q-7 -135 -49 -193q-2 -2 -12.5 -13t-16 -16.5t-17.5 -15t-22 -15t-24 -10t-29 -5.5h-2h-2q-8 -2 -47 -2q-10 2 -25 2h-14q-33 0 -39 -2 q-5 1 -12 1.5t-11.5 1t-7.5 1.5q2 10 2 65v4l-4 174v170l2 6l-2 11v6v162v12q0 37 2 45v6l-2 6v25v69q2 16 2 27v2v2v2q-2 12 -2 60v432zM150 952q0 -21 1 -60.5t1 -86.5q1 -9 1 -26.5t1 -24.5q2 -18 2 -25v-33h34q18 0 41 9q51 20 86 67q8 11 14 22.5t11.5 24.5t9.5 21l2 4 v4q13 59 19 104q4 23 4 58v4v59q0 144 -23 266q-12 80 -59 103v2q-29 10 -49 10q-10 2 -17 2h-2h-8q-35 0 -43 -4l-20 -6v-25q0 -8 -1 -26.5t-1 -26.5v-12l2 -72v-88v-22q0 -86 -4 -111v-2q-2 -43 -2 -96v-13zM152 49h28q16 -4 23 -4h2h16l23 2h2q27 5 55 37t41 72 q16 47 16 127l2 82q-1 11 -4 48t-7.5 61t-12.5 40q-7 23 -33 49q-35 35 -39 35q-46 20 -84 20h-10l-6 -4q-12 -14 -12 -151v-10v-35q0 -24 1 -84t1 -90v-56v-79v-27z" />
<glyph unicode="C" d="M78 985v117q2 25 2 39q0 135 18 223h2v2q0 6 17 59q11 27 24 48q3 6 29 32l2 2q8 8 43 23h4l2 2q6 6 19 6q21 2 28 6h15q26 0 30 -4l4 -2h5q26 -4 55 -16q32 -20 45 -35q9 -7 20 -29q29 -80 29 -108l4 -80v-84q0 -11 2 -17q-21 0 -31 -2q-3 0 -9.5 -1t-10.5 -1h-12h-2v4 v2v29v4v17v45q0 50 -6 84q-9 46 -41 82q-32 38 -76 38q-39 0 -66 -20q-61 -46 -78 -154q-6 -52 -6 -122v-84q-2 -49 -2 -86v-60q0 -35 2 -49v-137q6 -249 6 -252q0 -70 2 -90v-37q0 -31 3 -43q2 -10 2 -41v-19q5 -73 12 -100q3 -21 26 -67q15 -34 54 -58q8 -8 24 -10 q10 -2 18 -2t10 1l3 1h12q30 0 50.5 15t29.5 33t19 48q10 42 10 53q4 28 4 58q2 8 2 35v26v60v16h10q7 0 15 2h20q12 -2 21 -2v-102q0 -98 -21 -166q-18 -59 -47 -92q-45 -56 -148 -56q-28 6 -49 13q-72 32 -102 108q-37 90 -37 191q0 40 -4 98q0 51 -2 84v20v62 q-1 9 0.5 31t1.5 32v2v2q-2 18 -2 78q0 89 -2 146q-2 70 -2 149z" />
<glyph unicode="D" horiz-adv-x="555" d="M84 985v340l2 6v99q2 14 2 34q0 9 -1 23t-1 24v7q18 4 55 4q4 0 23.5 1t23.5 1h39q16 -1 31 -2t23 -1.5t14 -0.5q39 0 43 -2h2q15 -2 33 -13h2l2 -2q46 -20 78 -78q14 -29 24 -94.5t10 -109.5v-4q5 -39 5 -127q0 -64 3 -133t3 -113q1 -3 1 -6q0 -2 -2 -16q-1 -8 -1 -15 v-131l-2 -215q0 -16 -2 -44t-5 -68t-4 -64q-9 -120 -24 -161q-9 -24 -21 -40l-24 -29q-11 -15 -35 -30q-18 -18 -43 -21h-2q-4 -1 -39 -10h-16q-18 -6 -54 -6q-18 0 -49.5 2t-38.5 2h-8l-2 2h-8q-2 0 -13 1t-14 1q-2 16 -2 20v111l-2 27v49q2 20 2 30v5q-2 12 -2 59v80 q0 41 -2 55v184l-2 23v57q3 27 4 31v8q-1 13 -2 27.5t-1.5 23t-0.5 13.5v143q0 31 -2 43zM154 1243q0 -51 1 -159t1 -160v-219q0 -5 0.5 -11.5t1 -10.5t0.5 -5q0 -53 1 -179.5t1 -179.5l2 -231v-25h26q31 -2 60 -2h24h2v2q31 7 58.5 27.5t40.5 42.5q8 9 16 25q13 24 23 67 q2 22 6 37v31q2 23 2 33q6 204 6 219v168q0 4 -1 18.5t-1 18.5v237q0 49 -3 155.5t-3 149.5q-8 93 -41 128.5t-119 35.5h-31q-6 0 -14 -1l-8 -1h-49v-37v-133q0 -8 -2 -10v-31z" />
<glyph unicode="E" horiz-adv-x="462" d="M74 401q2 20 2 64v59q0 65 1 175t1 171v103q4 86 4 176v176v170q40 4 76 4q133 0 149 -2h6h4q2 2 33 2h35q12 0 18 -6v-23v-14q0 -7 -0.5 -15t-0.5 -13l-1 -5h-6l-4 -2h-6h-41q-17 0 -41 -4l-104 4l-45 -2q0 -28 -2 -65.5t-2 -73.5q0 -15 -3 -27v-2l-2 -364v-2 q2 -29 2 -72v-59v-39v-31h70q72 0 84 2h25q5 0 8.5 -0.5t5 -1t2.5 -0.5q2 -2 2 -8v-8q0 -16 1 -28.5t1 -21.5v-8q0 -2 -2 -6q-10 -2 -27 -2h-104q-45 0 -63 -4q-2 0 -2 -3.5v-7.5t-1 -5q-6 -105 -6 -113v-129q0 -21 -2 -29v-2v-229l37 -2q4 0 14 1t21 1q88 0 100 2h25 q12 -2 24 -2h66q2 -16 2 -39q0 -13 -0.5 -23.5t-1 -16.5t-0.5 -7q-10 -2 -16 -2h-17q-11 2 -31 2h-12q-27 2 -133 2q-14 0 -45 -2t-47 -2q-29 0 -47 6v20q4 22 0 52q-2 37 -2 256q0 61 -2 75z" />
<glyph unicode="F" horiz-adv-x="360" d="M66 -18q2 63 2 303q2 33 2 161v322l2 74v73v74q0 50 -1 143t-1 142q2 8 2 35v32v21q0 12 -1 64.5t-1 74.5v8h36q58 -4 60 -4q24 -3 62 -4.5t69 -5.5q33 -3 35 -4v-4v-2l2 -2v-35v-23q0 -8 -27 -8q-16 0 -43 3l-28 3l-101 9l-2 -129l2 -91v-86v-90v-55v-107q0 -42 2 -75 l56 -2h2q10 2 18 2h55q18 -2 25 -2v-9l2 -4v-32v-17q-2 -10 -2 -12h-27h-65h-27q-6 -2 -12.5 -2t-13 1t-9.5 1q-2 -10 -1.5 -35.5t-0.5 -28.5v-10v-8v-143v-109v-186q-1 -8 -1 -17.5t0.5 -21t0.5 -17.5v-165h-57h-14z" />
<glyph unicode="G" horiz-adv-x="507" d="M59 862v283v67q0 107 21 179q1 2 22 59q31 60 58 72l2 2q39 26 100 26q41 0 62 -12q28 -12 43 -31q34 -41 49 -78t24 -98q11 -59 11 -139l-60 -2v47q0 49 -18 123q-14 56 -39 84q-28 41 -74 41q-21 0 -33 -4h-6q-45 -27 -57 -58q-39 -74 -39 -385v-69v-2q2 -35 2 -72v-76 q10 -425 10 -485v-2q3 -24 7.5 -67.5t7 -69.5t10 -55.5t18.5 -47.5q34 -55 80 -55h6q3 0 18 0.5t25.5 3t18.5 8.5q25 18 41 86v2q0 3 14 101q2 18 2 43l2 86v100l2 47h-80q-23 2 -26 2q-2 10 -2 27v37q10 2 12 2h22q92 0 125 -2h17q2 -16 2 -39q0 -47 -4 -97v-2v-71 q0 -88 -13 -197q-3 -14 -9.5 -41t-10 -40.5t-9.5 -32.5t-12 -32t-14 -24q-31 -41 -125 -41h-18q-76 13 -111 62.5t-49 148.5q-16 96 -16 211q-7 282 -9 477z" />
<glyph unicode="H" horiz-adv-x="575" d="M78 1497q16 2 33 2h4q7 1 13.5 2.5t10.5 2.5t6 1q0 -29 11 -266l2 -248v-4q0 -42 2 -117.5t2 -117.5h55l2 -2h205l-2 106q0 23 -1 43t-1 23v127q-2 57 -2 206q0 20 -1 32t-1 13l-2 95v100h39q24 0 30 -2q0 -6 2 -8q0 -23 1 -43.5t1 -46.5l2 -328v-117l3 -133q0 -37 2 -55 q0 -84 6 -250.5t6 -247.5q0 -41 3 -118t3 -117q0 -19 2 -25v-6q-2 0 -4.5 -1t-3.5 -1h-21q-12 0 -25 1t-14 1q-2 17 -6 102q0 25 -1 74t-1 70l-4 96l-4 141q0 22 -1 49t-1 33v55q0 6 -1 28.5t-1 29.5l-76 4l-24 -2h-52q-4 -1 -10.5 -2t-9.5 -1.5t-4 -0.5h-82v-31 q0 -19 -1 -49t-1 -43q0 -50 0.5 -93t1 -66.5t0.5 -26.5v-103q-2 -9 -2 -45v-217q-20 -2 -57 -2h-5l-4 53q2 29 2 41q0 103 -1 316t-1 319l-2 2v55l-4 187q-11 443 -16 526z" />
<glyph unicode="I" horiz-adv-x="221" d="M82 223v170v690v27q0 58 2 72l-2 323q14 2 35 2h35v-67v-64v-100v-133v-137v-9q0 -40 -2 -65v-2q0 -53 1 -164.5t1 -147.5v-215v-14v-252v-14l-2 -10v-2v-5v-21t0.5 -20.5t1 -17.5t0.5 -13v-5v-4v-2q0 -9 -0.5 -15t-1.5 -9v-3h-7q-41 0 -47 -2l-10 4q-2 16 -2 65z" />
<glyph unicode="J" horiz-adv-x="559" d="M47 242v188v7q0 6 1 15q1 15 1 17l53 -12q5 -2 11 -4.5t9.5 -4.5t4.5 -2q0 -6 -1.5 -29t-0.5 -34v-64q-2 -23 -2 -65q0 -96 31 -137v-2q18 -37 52.5 -50.5t90.5 -13.5q33 0 57 15.5t36.5 37.5t19.5 57t8.5 61.5t1.5 62.5v49q2 27 2 96v150q0 268 -8 616v125l-2 72v57 q-2 20 -2 45l14 4q12 0 20 1l9 1q18 0 22 -4h4q2 0 2 -2l2 -25v-71q2 -6 2 -10v-60l2 -6v-76q0 -33 2 -43q0 -61 3 -88q0 -80 2 -100v-109q2 -23 2 -104v-6q2 -4 2 -49q0 -46 -2 -56v-84q2 -20 2 -39q0 -281 -6 -358q-5 -76 -35 -135t-80 -78q-14 -6 -21 -8.5t-15.5 -4.5 t-11 -2t-15 -1t-21.5 -2h-17q-32 0 -32 2h-4q-31 3 -52 12h-2q-136 41 -139 248z" />
<glyph unicode="K" horiz-adv-x="514" d="M86 10v74q0 40 1 117t1 114v113q0 61 1 183t1 186v276q0 7 -1 16.5t-1 10.5q2 20 2 57v240v57v25v14v14q2 -2 12 -2q12 -2 21 -2q8 0 19 -1t14 -1q-2 -10 -2 -26v-58q0 -31 2 -41v-41l4 -256v-121q0 -5 0.5 -11t1 -10t0.5 -5v-139l47 -2q2 2 14.5 33t14.5 34q12 27 19 47 t14 46.5t12 41.5l20 60l21 57q13 37 31 93t32 98t27 77l41 113q4 2 10 2h18q37 0 41 -2l-2 -4l-28 -74l-31 -78q-16 -44 -43 -128.5t-41 -125.5v-2l-53 -172q-3 -11 -14.5 -39.5t-14.5 -36.5q-16 -40 -16 -63q0 -6 1 -12.5t1 -7.5q2 -5 6.5 -20t5.5 -19q13 -43 14 -45 l49 -166q5 -41 34 -123.5t36 -118.5q8 -24 14 -39q2 -11 4.5 -19t3.5 -11.5t1 -6.5l26 -78q19 -68 33 -102q-6 0 -14 -2h-15q-8 0 -28 4q-21 2 -25 4q-8 32 -14 49q-2 2 -15 47q-1 3 -17.5 55.5t-21.5 82.5v2l-18 55q-7 28 -19.5 66.5t-19.5 62.5q-19 71 -20 72q-4 17 -9 36 t-7.5 29t-2.5 15v2l-2 4q-2 8 -9 34.5t-11.5 42t-13 36t-17.5 32.5l-49 -4l-2 -74q0 -8 1 -32t1 -39v-162q0 -57 2 -140.5t2 -127.5v-35q2 -20 2 -74v-39q-8 -2 -10 -2h-4l-4 -2q-21 -6 -56 -6h-4q-1 5 -2 9t-1.5 5.5t-0.5 3.5z" />
<glyph unicode="L" horiz-adv-x="475" d="M80 297v94q0 53 1 139t1 138v192q0 35 2 53v60q0 43 -2 57q2 27 2 80q0 47 2 72v229l-2 19q1 16 0.5 22.5t-1.5 12.5t-1 8l2 22l33 4h8l2 -2h8q4 0 8.5 -0.5t7 -1t3.5 -0.5v-14l2 -11q-4 -86 -4 -120v-265v-18v-55q2 -49 2 -250q0 -22 1 -63.5t1 -61.5q0 -62 1 -188 t1 -177v-98l2 -108q43 0 120 2t109 2h29q6 2 10 2h23v-37v-19q0 -18 -7 -20h-34q-4 -2 -52 -2h-88q-8 2 -34 2h-21q-2 -2 -20 -2h-48q-35 0 -43 -2h-22v186q-2 16 -2 119z" />
<glyph unicode="M" horiz-adv-x="743" d="M68 387v55q0 54 1 159t1 167v53q1 35 2 73t1.5 58.5t0.5 32.5q2 41 4 165t4 163q3 122 6 207h31q4 0 11.5 1t10.5 1q11 0 29 -2t25 -2q6 -30 6 -33q5 -38 22 -109.5t21 -91.5q31 -182 123 -508l39 158q8 19 8 31q15 54 61.5 193.5t65.5 217.5q25 84 43 125v2q14 43 28 43 h23q14 0 24 -4q9 -4 9 -82q0 -19 4 -55q0 -52 2 -66v-90q2 -49 2 -100v-76q2 -49 2 -166v-178q0 -21 -2 -27v-36v-91v-92q0 -16 -2 -24v-31q0 -29 -2 -127t-2 -123q0 -3 -5.5 -86.5t-7.5 -95.5h-14l-20 -4h-25q0 8 -2 14v47q0 58 2 70q0 36 3.5 141t4.5 146v2v39q0 52 3 146 t3 140q2 25 2 72v149q0 6 -1 21.5t-1 21.5v37q0 9 -2 63t-2 58l4 230l-71 -230q-8 -27 -24.5 -72t-24.5 -73l-23 -80q-10 -32 -19 -64.5t-13.5 -48t-8.5 -24.5q-9 -25 -24.5 -97.5t-18.5 -85.5q-7 2 -14.5 1t-13 -0.5t-5.5 3.5q-34 115 -39 140l-2 2l-84 315l-82 342 l-6 -383q-2 -25 -2 -63q0 -57 2 -82v-80q0 -43 2 -66v-125q-2 -39 -2 -63q0 -23 -1 -144.5t-1 -183.5q-4 -113 -4 -237h-4l-33 -4h-10q-1 1 -5.5 2t-6.5 2v4l-2 4v59q0 58 -2 101v127q0 5 -1 51.5t-1 50.5z" />
<glyph unicode="N" horiz-adv-x="655" d="M68 4v25q0 138 3.5 443.5t4.5 395.5q2 31 2 121q2 18 2 55q1 13 0.5 20.5t-1 9.5t-1 3t-0.5 2v197l-2 221l2 2q4 2 16 2h25q20 -7 20 -8q2 -4 2 -6l13 -57q10 -30 27.5 -106t23.5 -95l24 -86l29 -111q1 -6 5.5 -22.5t6.5 -26.5l21 -70q46 -137 120 -405t105 -369v240v481 v543v98q45 0 68 -4v-72v-28v-404v-334v-679q-3 0 -12 1t-13 1.5t-12 2t-11.5 3t-9.5 3.5t-9 5t-6.5 7t-4.5 9h-2v2q-5 8 -8 16l-2 9v2l-2 2q-2 6 -12 31t-11 32l-131 388q-5 13 -15 57.5t-20 75.5l-8 28q-61 218 -74 271l-82 346q-2 0 -2 -62q0 -49 1.5 -132t3.5 -146l1 -64 v-102q0 -78 2 -98q-8 -131 -8 -379q-1 -51 -1.5 -121t-1 -110.5t-1.5 -57.5q-11 0 -65 4z" />
<glyph unicode="O" horiz-adv-x="534" d="M68 565v193q0 80 2 96v64q2 27 2 116q1 29 2 83t2 79q0 1 1.5 27t1.5 32t2 30.5t4 34.5t5 31.5t7 33t9.5 27.5t12.5 27.5t16 20.5q20 24 49 41q46 19 90 19q36 0 78 -17q69 -30 90 -94q18 -53 23.5 -87t7.5 -87q0 -62 2 -107v-47q2 -27 2 -51v-133q1 -11 2 -35.5t2 -32.5 v-143q2 -41 2 -162v-139q0 -35 -2 -53v-56q-2 -47 -8 -110q-7 -57 -29 -100q-31 -61 -61.5 -84t-91.5 -23h-19q-58 3 -100 33q-30 20 -39 51v2q-14 28 -22 51q-19 82 -25 137q-14 118 -14 244q-2 6 -2 39q0 41 -2 49zM135 555q0 -48 8 -174q10 -117 11 -129 q23 -223 143 -223q70 0 94 73v2q21 75 21 220q2 29 2 108v100q2 18 2 58q0 7 -1 21t-1 16v28q0 56 -2 70v123q0 11 -1 86.5t-1 112.5q0 57 2 57v82q-2 129 -14.5 175.5t-65.5 76.5q-39 20 -72 20q-39 0 -66 -30t-37.5 -62.5t-11.5 -62.5q-1 -23 -4 -115.5t-4 -147.5 q-2 -111 -2 -331v-154z" />
<glyph unicode="P" horiz-adv-x="464" d="M80 332l1 26q1 27 1 43q2 31 2 105v112q2 12 2 27q0 6 -1 15l-1 8v63q0 54 2 64v2l6 458v35q2 31 2 49v181q15 6 49 6h17q45 0 53 -2q11 -2 76 -15q82 -29 108 -75q28 -50 31 -230l-2 -102q-2 -25 -2 -62v-20v-35v-2q0 -22 -4 -96q0 -62 -10 -111q-3 -21 -4 -22 q-3 -12 -7 -19v-2q-3 -9 -5 -15.5t-3 -11t-3.5 -9t-4 -6.5t-6 -8.5t-6.5 -10.5q-13 -22 -52 -49q-11 -8 -43.5 -14.5t-66.5 -6.5h-55q-2 -23 -2 -151v-48q0 -2 -1.5 -19t-0.5 -24v-53l-3 -176q3 -111 3 -139l-17 -4q-23 -2 -24 -2h-13h-10l-2 10q-2 25 -2 125zM152 739 q1 -10 2 -38t2 -37h39q71 0 96 22q36 40 43 55q9 16 24 99v2q1 29 3.5 60t4 57.5t1.5 68.5q-2 47 -2 90q0 34 -1.5 68t-1.5 49v29q-7 102 -24 127q-33 41 -80 51q-24 6 -57 6h-37q-4 -24 -4 -41q0 -41 -2 -59v-2q2 -4 2 -13q0 -11 -1 -36.5t-1 -39.5v-2v-61v-23v-26 q0 -69 -3 -178t-3 -162v-43v-23z" />
<glyph unicode="Q" horiz-adv-x="614" d="M76 891v49q2 23 2 45q0 39 2 45v2v4q0 84 10 176q19 149 74 248q20 33 61 58q27 10 37 10h2l2 2q12 2 37 2q123 0 176 -131q29 -79 51 -246q1 -14 2 -26t2 -18t1 -9v-2q1 -12 2 -26t1.5 -22t0.5 -12v-2v-2q4 -36 4 -59v-2v-4q4 -28 4 -56v-34v-2q2 -20 2 -35v-2v-2 q2 -14 2 -72v-2q2 -41 2 -80l2 -111q0 -56 -4 -92v-4v-4l6 -51v-12l-2 -9v-6q2 -18 2 -63q-3 -117 -14 -176q-2 -6 -6 -17.5t-5 -15t-4 -10.5t-4.5 -10t-5 -8t-7.5 -9.5t-9 -9.5l-13 -15l9 -26l14 -39q14 -32 14 -37l2 -2l25 -49l-6 -2h-2q-13 0 -33 4h-2q-14 2 -21 2l-6 10 q-6 5 -12 27.5t-8 25.5l-21 39l-47 -20q-15 -6 -26 -6q-27 -4 -45 -4q-21 0 -45 4q-41 7 -64 30t-47 68q-20 41 -32.5 86t-17 75.5t-9.5 82.5q-6 38 -9 74v2q-14 124 -20 356v2v2q-2 6 -2 41v49q0 10 -1 22zM135 944q0 -41 2 -89.5t2 -61.5q0 -29 2 -45q4 -43 4 -115v-2 q17 -301 41 -410l2 -2v-2q12 -48 37 -92q16 -26 22 -35.5t19.5 -22.5t32.5 -22q12 -6 20 -6q13 0 50 14q30 12 43 29l-29 61q-26 38 -66 162q51 0 54 -6l2 -6q8 -8 8 -17l2 -4l2 -2q1 -1 4.5 -8t9 -19t9.5 -20l49 -104l20 24l10 41q17 69 17 138q0 32 -4 100t-4 108v29 q-7 89 -7 125q0 96 3 133v2v2q-5 92 -5 113v2q-3 54 -4.5 103t-2 74.5t-1.5 35.5q-8 159 -61 256q-47 65 -127 65q-36 0 -63.5 -23.5t-42 -59t-22 -63t-9.5 -48.5q-2 -9 -5.5 -24.5t-3.5 -22.5q-4 -66 -4 -99q0 -24 -2.5 -63t-3.5 -84v-39z" />
<glyph unicode="R" horiz-adv-x="458" d="M68 -20q0 76 2 129q2 50 3.5 109.5t2.5 74.5v2v2q0 7 -1 31.5t-1 38.5q0 11 0.5 23t1 19.5t0.5 8.5q0 20 1 61t1 62q0 28 -4 98q0 9 1 32.5t1 37.5q0 13 -1 42t-1 46v159l-2 95v92l-2 84q0 256 4 303v6q12 2 14 2q14 2 51 2q122 0 146 -24l4 -5l4 -2q2 -1 7 -5t12 -9.5 t10 -7.5q29 -34 42 -64.5t25 -95.5q17 -108 17 -170q0 -13 1 -41t1 -43q2 -23 2 -69q0 -15 1 -29.5t1 -16.5q0 -5 -2 -21t-2 -40q-3 -80 -58 -139l-90 -66l70 -74q44 -68 51 -84.5t27 -99.5q13 -66 18 -258l4 -125v-57q-41 -5 -59 -2h-2h-2h-2v139v41q-5 177 -33 262 q-9 43 -29 88q-13 37 -29.5 59.5t-44.5 36.5q-35 21 -39 21q-24 4 -38 8l-7 -61q-2 -6 -2 -25v-39v-24v-258l4 -172v-64v-18l-57 -4q-6 0 -10.5 -1t-5.5 -1h-6zM139 1245q2 -31 2 -71v-58q0 -16 1 -39.5t1 -29.5q0 -9 -1 -22.5t-1 -16.5l2 -93v-59v-2v-23v-26q0 -43 11 -60 q4 -2 14 -2q46 0 119 48q18 12 35 40l2 3q8 20 18 81q6 45 6 172l-2 43q0 85 -8 140q-12 85 -49 137q-25 34 -47.5 51t-55.5 17h-13h-12.5t-9.5 -0.5t-8.5 -3t-3.5 -5.5v-112v-62v-47z" />
<glyph unicode="S" horiz-adv-x="481" d="M53 1309q0 67 25 116.5t69 69.5q43 21 103 21q62 0 97.5 -28t58.5 -79q18 -53 18 -129l4 -78v-24l-2 -7h-6h-10q-19 3 -33 5q-8 5 -12 4.5t-5 -0.5q0 5 -1 41t-1 61q0 49 -16 91t-41 61q-20 18 -47 18q-65 0 -94 -33q-6 -6 -10.5 -13t-10.5 -18.5t-8 -15.5l-2 -2 q-11 -31 -14 -57v-2l2 -41q8 -21 14.5 -54.5t11.5 -50.5q8 -32 29 -80q3 -6 14 -32t26.5 -58t33.5 -65q12 -23 34.5 -78.5t34.5 -79.5q2 -7 7 -17.5t6 -13.5q50 -106 71 -200q1 -3 4.5 -18.5t7.5 -35t7 -34.5q10 -88 10 -129q0 -62 -6 -121q-14 -128 -64 -176 q-39 -39 -110 -39h-10q-43 1 -86.5 28t-57.5 52q-1 2 -6 10.5t-7.5 13t-7 14t-7 18t-5.5 20.5t-4.5 25.5t-1.5 29.5l2 229q48 0 60 -2h6q0 -4 -0.5 -7.5t-1 -5.5t-0.5 -3v-2v-48q0 -18 -1 -59t-1 -57v-21q8 -83 29 -124.5t69 -41.5q45 0 57 2q86 21 86 201v25q0 25 -2 72.5 t-2 68.5q-2 55 -51 199q-48 143 -131 301l-14 32q-3 7 -7 15l-6.5 13t-3.5 9l-30 70q-47 125 -56 190q-1 15 -2 27l-1.5 18t-0.5 9z" />
<glyph unicode="T" horiz-adv-x="567" d="M23 1452v6l2 2v23q0 10 4 22v2q0 2 4 2q26 0 30 2q8 -2 25 -2q31 0 39 2q54 0 66 -2h2h2q41 0 53 -4h153q25 -2 33 -2h60q34 0 34 -2h2h3l10 -2v-14l2 -6q4 -21 4 -25v-6l-4 -2h-41h-182v-455v-67v-27v-223v-68v-47q2 -86 2 -237q0 -81 -1 -190t-1 -132q-8 -2 -19 -2 q-10 0 -22 0.5t-20 1t-9 0.5v78q0 56 1 150t1 145q0 43 -4 243v381q0 33 -2 45v166h-2l2 238q-8 -2 -25 -2q-20 2 -69 2h-62q-47 3 -71 6z" />
<glyph unicode="U" horiz-adv-x="612" d="M68 1423v76v17q14 -2 24 -5q32 -3 35 -6l2 -2h4q1 -11 2 -47t2 -53v-326v-47v-2v-2q2 -25 2 -45q0 -31 -2 -47v-35q0 -20 1 -57t1 -60l2 -133q2 -87 11 -186q1 -19 4 -48.5t4 -37.5q1 -14 5 -57t6.5 -64t8 -53t13 -54.5t18.5 -39.5h2v-3q34 -45 88 -45q8 0 33 5h2l2 2 q32 8 59 32q40 41 56.5 77t19.5 91q4 60 8 170v178l2 84v191q0 139 -2 250v266v2v98h27l22 -2h2h11q2 -30 3.5 -100t2.5 -82v-106v-50q0 -35 1 -97t1 -93q0 -63 -2 -98q0 -40 1 -92.5t1 -67.5q0 -60 -2 -68v-2v-221l-2 -59q-3 -89 -12 -138q-16 -84 -47.5 -130.5 t-88.5 -90.5q-48 -22 -96 -22h-4q-40 0 -55 6q-16 2 -47 20q-27 18 -41 49q-22 56 -37 113q-13 67 -21 123q-2 38 -6 59q-12 132 -12 267q-1 111 -4 302t-4 261z" />
<glyph unicode="V" horiz-adv-x="600" d="M23 1477q0 1 1 3t1 3q2 3 5.5 5t9 3t9.5 1t12 -0.5t13 -0.5q16 0 18 -2q7 -17 17.5 -77t13.5 -69q4 -37 23 -136.5t40 -231.5q13 -71 31.5 -210t28.5 -204q39 -256 49 -297q4 -33 16.5 -99.5t20.5 -66.5q36 0 71 404q3 12 7 47q2 27 6 51v2q1 3 7 62t20 190.5t30 271.5 l6 54q6 71 31 282l4 31q49 0 59 -2l17 -6q-21 -133 -70 -570q-18 -159 -35 -286q-28 -207 -41 -336l-20 -176v-2q-2 -25 -8 -57t-8 -42v-10q-6 -2 -11 -2h-2l-4 -2l-8 -1q-8 -1 -14 -1h-25q-23 1 -49 8l-10 4q-17 46 -30.5 100t-21 90t-20.5 108.5t-20 109.5 q-14 76 -28 187.5t-26 185.5q-3 25 -6 47.5t-4 27.5v2l-2 4q-41 295 -98 578q-1 4 -3.5 13t-2.5 12z" />
<glyph unicode="W" horiz-adv-x="937" d="M25 1518v6q0 2 6 2l55 12q11 -56 35 -260q5 -45 18 -134.5t17 -119.5l28 -182q8 -69 20.5 -153t16.5 -122q26 -285 35 -329q27 -154 41 -154l2 -2v12q0 33 4 62q17 152 57 712l9 138q35 325 37 344l8 53q4 1 13 1h19l9 -1q16 0 31 -1l14 -1q5 -23 13 -58t15 -71 q18 -111 25 -160v-2l2 -2q0 -21 2 -31q4 -43 15 -124t16 -128q3 -32 8.5 -109t9.5 -120q5 -59 11.5 -119.5t7.5 -68.5v-2q3 -24 17 -139.5t22 -164.5q2 -14 7.5 -27.5t6.5 -19.5l24 31l48 320v2q1 11 5 40.5t5 45.5l10 122l10 127q35 295 49 525q10 122 29 256h8q13 0 45 -4 q1 1 1.5 -1t0.5 -6q0 -39 -16 -139v-2l-25 -282q-1 -8 -2 -22t-2 -21q-1 -11 -2 -21.5t-1.5 -16.5t-0.5 -10q0 -20 -2 -36q-4 -50 -4 -52l-10 -90q-43 -480 -92 -743l-8 -45l-5 -4v-13q0 -10 -8 -34h-2h-10q-11 0 -20 -2.5t-11 -2.5l-12 -4q-56 9 -59 9q-11 4 -11 6 q-42 284 -59 463q0 5 -2.5 39t-8 108.5t-10.5 146.5q-12 172 -36 322l-31 227l-19 -194l-22 -312q-19 -304 -19 -309l-6 -78q-12 -99 -12 -163q-2 -9 -4 -32.5t-4 -35.5l-4 -64q-9 -103 -13 -124h-10h-4l-2 -2q-19 0 -55.5 3t-52.5 3l-11 4q-2 6 -4.5 12t-3.5 10 q0 1 -1.5 8.5t-3.5 18.5t-3 18q-1 4 -41 394l-4 36l-8 50q0 22 -2 32l-7 35q-1 5 -10 76l-45 340q-11 57 -19 130t-16 122l-28 219q-1 9 -2 15t-1.5 8.5t-0.5 3.5z" />
<glyph unicode="X" horiz-adv-x="663" d="M35 -31q0 2 2 6q10 25 14 39l19 60l96 313l27 80l26 86l27 84q4 10 13 39.5t15 46.5l9 18q-9 20 -22 55.5t-17 45.5q-1 3 -8 30v2l-31 89l-51 167l-27 89v2q-7 15 -21.5 65t-17.5 70l-22 76l-3 2q-11 26 -14 43v2l-6 18q16 2 45 2q25 0 29 -2l18 -57l68 -230q2 -10 7 -30 t7 -27q26 -99 90 -272l35 -84l27 84q22 66 66.5 210t68.5 216q9 28 18.5 53t14.5 41q24 74 32 92q15 2 19 2h4l4 2h18h29l2 -2h2l-88 -215l-43 -135q-7 -14 -12 -39q-14 -42 -15 -49q-2 -5 -6 -19.5t-6 -19.5q-6 -18 -14 -49l-29 -82l-47 -150l107 -342q7 -24 27 -99 t34 -116l18 -59q28 -104 37 -131h-24q-35 0 -47 4q-9 29 -33.5 106.5t-34.5 116.5l-6 29l-8 30q-2 9 -5 17.5t-4.5 12.5t-1.5 7l-2 9q-2 0 -22.5 66t-47 154t-36.5 117q-3 7 -10 5l-35 -111q-3 -11 -8 -33l-11 -37q-125 -403 -135 -432q-17 -59 -18 -67l-4 -11 q-15 -6 -27 -6h-18q-33 0 -33 2h-2h-2z" />
<glyph unicode="Y" horiz-adv-x="600" d="M27 1499q16 2 45 2q12 0 18 -1l6 -1q1 -4 2.5 -9.5t2.5 -8.5t1 -4q2 -24 20.5 -82t20.5 -76l25 -88l49 -144q11 -32 19.5 -60.5t14.5 -52t9 -34.5l41 -113q7 14 16.5 40t21.5 62.5t17 49.5q42 112 68 213l29 104q63 186 63 193v2h2q0 2 23 4q15 1 24.5 2.5t16.5 1.5h2 q-10 -35 -11 -41q-31 -96 -32 -100q-15 -56 -66 -213q-20 -65 -53 -160t-56.5 -159.5t-27.5 -73.5l-4 -9v-475q0 -4 -1 -14.5t-1 -15.5q0 -12 1 -23t1 -14v-115q-2 -8 -2 -49v-21q-2 -9 -3 -14v-2t-1 -2l-68 -2q-4 0 -6 2l2 324l2 102v80q2 37 2 69q2 15 2 35v142l-31 73 q-6 16 -6 21q-2 9 -4.5 16t-4 10t-1.5 4l-6 17q-6 18 -8 22q-3 13 -6 23l-23 68q-110 364 -145 495z" />
<glyph unicode="Z" horiz-adv-x="587" d="M39 -18q0 11 1 35t1 38l174 580l35 96q2 6 29 92q1 5 4.5 17.5t5.5 19.5q3 8 5.5 16t4 12t2.5 8t2 7l88 250l80 250l-199 2l-131 2h-16q-5 0 -19 -1t-16 -1h-24h-7q-2 12 -2 16q0 13 -2 23q-1 9 -2 14.5t-1.5 7t-0.5 2.5v13q43 0 55 -2h5h4q36 4 78 4l335 -2h15 q4 -20 4 -23l-2 -6v-16q0 -32 -24.5 -100t-28.5 -87q-2 -9 -5 -17t-6 -14l-4 -8l-2 -6v-2q0 -4 -24 -82l-29 -88l-117 -370q-33 -87 -53 -166q-20 -46 -35 -93l-39 -116q-15 -51 -36.5 -120.5t-32.5 -107.5l49 -2l41 -6h4q16 2 26 2h19h4h37h43q55 2 200 2h9q2 -20 2 -55 v-14l-166 -2q-81 0 -101 -2h-36q-27 2 -41 2h-62q-27 2 -41 2q-25 0 -35 -2t-22 -2z" />
<glyph unicode="[" horiz-adv-x="452" d="M84 139v80q0 469 2 582v47q0 37 -2 43q4 46 4 61q0 40 1 101t1 90q2 27 2 121l2 100t1.5 76.5t0.5 38.5t2 16v4v2q0 39 2 53q180 0 291 -2h2q12 1 24 0.5t16 -1t9 0.5q0 -43 4 -55q-120 0 -163 -2q-27 0 -31 2h-6h-4q-10 -2 -49 -2h-31v-31q0 -1 -1 -9.5t-2 -22t-1 -27.5 v-305q-1 -14 -2 -31.5t-1.5 -27.5t-0.5 -19q0 -3 4 -61v-689v-2q2 -25 2 -96q0 -49 -2 -65v-5v-4q2 -12 2 -49v-49h121q24 0 94 4l53 4q4 -23 4 -47v-8l-14 -4q-50 0 -137.5 -1t-135.5 -1q-5 0 -17 -1t-13 -1h-23q-2 0 -2 4v4l-2 6v8q0 16 -2 83t-2 87z" />
<glyph unicode="\" horiz-adv-x="727" d="M27 1503h18h10l6 -2h9q5 -5 8 -16l18 -39l60 -137l69 -156l17 -39q10 -25 16 -37l35 -76l6 -12l6 -16l25 -55l39 -87q14 -28 41 -88l344 -741q-8 -2 -17 -2h-10q-10 0 -18 -2q-11 4 -13 4l-6 8q-4 8 -4 13l-203 434l-43 96l-12 29q-4 12 -16 36q-9 21 -23 44l-51 120 l-59 136l-48 106l-43 98l-38 88l-3 2q0 5 -10 25q-3 8 -6 15.5t-4 9.5q-8 20 -14 32q-4 4 -27 64z" />
<glyph unicode="]" horiz-adv-x="452" d="M6 1497q4 12 4 55q2 -1 8.5 -0.5t16 1t24.5 -0.5h2q111 2 291 2q2 -14 2 -53v-2v-4q2 -4 2 -16t0.5 -38.5t1.5 -76.5l2 -100q0 -94 2 -121q0 -29 1.5 -90t1.5 -101q0 -15 4 -61q-2 -6 -2 -43v-47q2 -113 2 -582v-80q0 -20 -2 -87t-2 -83v-8l-3 -6v-4q0 -4 -2 -4h-22 q-2 0 -14 1t-17 1q-47 0 -134 1t-138 1q-1 0 -15 4v8q0 18 5 47l53 -4q70 -4 94 -4h121v49q0 37 2 49v4v5q-2 16 -2 65q0 71 2 96v2v689q4 58 4 61l-4 78v305q0 14 -1 27.5t-2 22t-1 9.5v31h-31q-39 0 -49 2h-4h-6q-4 -2 -31 -2q-43 2 -164 2z" />
<glyph unicode="^" horiz-adv-x="399" d="M84 1300q9 41 14 50q35 92 70 161l96 -8l2 -4v-2v-2q9 -21 26 -57.5t28 -65t18 -57.5l-62 -10l-6 18q-2 7 -4.5 14.5l-4 12t-1.5 6.5q-1 4 -20 59v2l-2 4q-2 4 -5.5 13.5t-6.5 16.5t-7 7l-1 -1l-1 -3q-15 -21 -37.5 -70t-32.5 -86h-24q-7 0 -21 1t-18 1z" />
<glyph unicode="_" horiz-adv-x="808" d="M84 -10q108 -6 225 -6q65 0 195.5 2t193.5 2q27 -2 50 -2v-49q-7 0 -18 -1.5t-13 -1.5h-37h-16l-2 3l-316 -3l-67 -2q-5 0 -20 -1t-17 -1q-27 0 -37 -2h-21l-98 2v2v2q-2 25 -2 31v25z" />
<glyph unicode="`" horiz-adv-x="307" d="M49 1616q11 0 25 -0.5t27 -1t24 -1t18 -1.5h7l2 -2q3 -1 10 -8l2 -3q13 -14 45 -63l2 -6l4 -2q9 -9 21 -25l16 -22q-12 -2 -16 -2q-12 0 -27.5 0.5t-26.5 0.5l-10 1l-2 4l-4 4q-85 99 -117 127z" />
<glyph unicode="a" horiz-adv-x="569" d="M35 -4v12l2 2v8q0 15 4 39q3 28 12.5 99.5t12.5 105.5v2l10 117q7 51 15 144.5t11 123.5l15 148l8 69q3 46 14 154v4q0 32 6 53v2q6 65 21 180.5t20 165.5q3 15 7.5 37t8.5 40.5t5 21.5l41 2q20 -2 31 -2q36 -8 55 -8q9 -36 22 -102.5t23 -108.5q12 -49 20.5 -104 t17 -130.5t13.5 -107.5q8 -73 35 -234l14 -119l23 -188q1 -6 10 -96q6 -44 10 -90l29 -191q0 -5 1 -15t1 -12q3 -21 6 -30v-4h-65v6v10q-7 59 -19 145q-5 31 -9.5 82t-8.5 72l-17 125h-69l-4 2h-56q-14 -2 -18 -2h-37h-12q-6 0 -18.5 1t-18.5 1l-57 4l-11 -94 q-10 -65 -16 -143t-10 -113q-7 -50 -7 -78q-14 -2 -16 -2h-2q-28 -4 -53 -4zM160 498h71q36 -4 97 -4h2l98 2l-14 137q-6 58 -26 203.5t-26 205.5q-12 60 -12 72v2l-8 58v4q-26 173 -61 272q-2 0 -6.5 5t-6.5 5t-2 -2q-13 -25 -21.5 -84t-8.5 -76v-2l-3 -2q-3 -14 -6.5 -50 t-11 -108.5t-14.5 -136.5q-9 -98 -13 -159v-2q-22 -262 -24 -279v-16z" />
<glyph unicode="b" horiz-adv-x="540" d="M84 1143v123q0 37 1 86.5t1 81.5q0 33 2 49v2v24q36 12 62 15q40 4 51 4q46 0 82 -8q18 -2 43 -11q24 -9 39 -18q19 -12 41 -43q19 -36 28 -74l6 -37q6 -23 11 -73v-2q4 -27 18 -209v-25q0 -78 -20 -133q-14 -46 -33.5 -76t-32.5 -40t-32 -19t-23 -12q34 -14 69 -43 q56 -46 76 -125q14 -53 14 -134q0 -18 -1 -46t-1 -38q0 -33 -4 -135v-51q-3 -52 -4 -57q-9 -70 -36.5 -97t-100.5 -36h-29h-2q-16 -2 -26 -2q-18 1 -51 2t-58.5 3t-46.5 7q-21 4 -31 6q-4 40 -4 115v188q0 66 2 82v80q0 66 -10 676zM143 958q2 -49 2 -112v-68q8 -6 48 -6 t100 27q85 45 100 100q15 56 15 145l-2 68q-10 178 -27 244q-12 44 -33 65l-2 2h-2q-18 15 -41 21q-31 10 -86 10h-55h-15v-31v-41v-241q-2 -9 -2 -45v-138zM152 72l4 -15l16 -4q29 -10 107 -10h38h2q51 9 72.5 40t26.5 91q4 58 4 59q0 22 1 70.5t1 73.5q0 84 -8 139l-8 35 q-2 8 -4 14.5t-3 9t-1.5 5t-0.5 4.5l-2 2v4q-9 21 -18 33l-2 2q-6 7 -13 13.5t-12.5 11.5t-7.5 7q-50 50 -154 50h-18h-12q-3 -6 -4 -15t-1 -16t0.5 -16t0.5 -11v-16q0 -33 2 -53v-170q-4 -62 -4 -109v-45q-2 -31 -2 -43v-141z" />
<glyph unicode="c" horiz-adv-x="512" d="M63 899v23v2v20v51q3 198 31 310q38 102 51 125q34 60 86 79q29 7 41 7h9q74 0 120 -52v-2q29 -23 43 -94q13 -50 13 -96q0 -23 -4 -47v-2v-2q0 -6 -1 -16t-1 -11q-5 2 -10 3t-7 1.5t-4 1.5q-24 4 -27 4q-9 4 -10 5q-1 0 -2 1q0 6 1 18t1 17q2 31 2 51v2q-3 59 -33 107 q-30 41 -73 41q-20 0 -35 -10h-2l-4 -2q-22 -19 -45 -58q-21 -34 -45 -137q-25 -125 -25 -225v-105q0 -62 6 -233q8 -207 17 -328q12 -153 24 -219q8 -40 34.5 -61t55.5 -27l4 -2h5q28 0 55 18q59 51 59 199v129v29h25h20l4 -2h4h7q3 -43 4 -45q2 -10 2 -66v-51 q0 -99 -10 -144q-11 -47 -38.5 -75.5t-72.5 -46.5q-28 -11 -53 -11h-11q-10 0 -16 2h-4h-29q-24 5 -43 21l-2 2h-2q-14 8 -35 33v2l-2 2q-14 17 -22 47q-21 88 -31 211q-8 115 -10 192q-1 12 -4 106t-6 167v2q-2 12 -2 57v27v2q-3 15 -3 53z" />
<glyph unicode="d" horiz-adv-x="522" d="M82 1047q2 27 2 81l2 396q0 5 6 8l17 4q27 0 43 -2q39 -3 43 -4q78 -13 120 -33q95 -44 117 -160q12 -63 19 -155q0 -26 2 -69t2 -69v-2q2 -16 2 -77l2 -88q1 -28 2 -60.5t1.5 -50.5t0.5 -29v-65q2 -31 2 -56v-167q-3 -217 -27 -306q-18 -85 -63 -123 q-39 -20 -58.5 -28.5t-55 -15.5t-83.5 -7h-43q-10 0 -14 4q-12 2 -23 2q-3 24 -4 86t-2 179t-2 202q0 84 -3 214t-3 221v86q0 66 -2 84zM150 1423q0 -73 2 -106v-90q0 -31 2 -39v-103q0 -579 2 -677v-138q0 -20 -2 -75.5t-2 -83.5q0 -34 4 -70q10 0 26 -1t23 -1q43 0 69.5 9 t51.5 34q51 46 61 143q10 85 10 176q2 18 2 43q0 115 -2 148v131v74v141q0 44 -4 123t-4 94q-7 155 -19 198q-14 49 -44 62q-35 25 -142 39l-34 4v-35z" />
<glyph unicode="e" d="M70 1458q0 34 4 58q36 4 73 4h17q17 0 60.5 -1t56.5 -1q125 0 145 2q11 -2 23 -2.5t16 -1.5h2h2h14v-7l2 -4q0 -13 -2 -31.5t-2 -29.5q-4 -1 -7 -1t-5 1h-2h-18q-85 0 -99 -4h-213l4 -266q4 -148 4 -224v-61v-2q2 -27 2 -45l3 -164h22q18 0 53 -1t54 -1h24h74h16 q2 -16 2 -39v-33v-4q0 -4 -217 -4l-31 -2l-4 -514l205 -4q72 -2 135 -2q4 -32 4 -58v-16h-36h-5l-4 -2h-51h-90l-225 4q-2 20 -2 59v115q0 58 4 176v154q2 53 2 106q0 54 -1 134t-1 120q-2 33 -2 135q-1 79 -2 152.5t-1.5 109t-0.5 46.5q0 35 -1 85t-1 64z" />
<glyph unicode="f" horiz-adv-x="481" d="M84 4q0 1 4 275q0 44 1 145.5t1 140.5v361q2 18 2 28v72v197v88v202q28 1 67.5 2t66.5 2t48 1h58h4h24h54h24v-5v-2l2 -4v-7q1 -6 1.5 -15.5t0.5 -18.5v-16h-36h-56h-71h-117l4 -305v-318q-2 -35 -2 -45l2 -53h39h2q6 2 59 2h56l4 -2q9 5 12 -4q0 -1 1 -7t1 -11l-4 -50 h-2h-66l-110 -6v-280q0 -32 -1 -93.5t-1 -89.5q0 -57 2 -84v-20q0 -15 -1 -42t-1 -38q-12 -2 -13 -2q-35 0 -49 -2z" />
<glyph unicode="g" horiz-adv-x="628" d="M74 338v201q2 41 2 166q0 36 -1 115t-1 114v229q0 35 0.5 61t3 49t3.5 35t7 31.5t7.5 24.5t10.5 28t11 29q20 44 71 72q50 34 109 37h2q10 2 57 2q11 -3 20 -6t13.5 -4t8 -2t5.5 -2q49 -25 56 -27q27 -23 35 -35l2 -2q61 -63 67 -160q4 -78 4 -145v-29v-16l-2 -6v-17 q0 -1 -20.5 -0.5t-26.5 2.5h-2h-18v140q0 219 -172 229h-2q-37 0 -45 -2q-3 -1 -33 -8q-9 -3 -33 -19l-2 -2l-2 -2q-31 -31 -46.5 -88t-17.5 -102.5t-2 -136.5v-244q0 -101 -2 -158v-125v-92q0 -255 19 -311q2 -10 12 -29q15 -38 49 -72h2q15 -12 64 -24q13 -4 35 -4 q76 0 108 37q37 45 55 133q11 59 11 172v53v121l-56 -4h-20l-6 2h-84h-4q-6 -2 -9 -2v18q0 9 -1 26t-1 25v2h13l20 2q37 0 114.5 4.5t98.5 4.5q2 -16 2 -60q0 -24 -1 -108t-1 -117q0 -118 -22 -201q-32 -115 -109 -151q-47 -21 -113 -21h-14q-69 0 -98 19q-77 35 -111 151 q-5 18 -8 35.5t-5 40t-3 35.5t-2 44.5t-2 43.5z" />
<glyph unicode="h" horiz-adv-x="565" d="M80 -2q0 29 1 85.5t1 88.5q2 18 2 37v139l2 152v149v238l-4 176l2 96l-2 35v295v10h10l6 2q6 6 35 6q2 0 2 -1q1 -2 6 -3h2q0 -24 2 -28v-224v-270l2 -213h62q13 -2 22.5 -1.5t12.5 -0.5h2h112h70v471q0 47 2 108.5t2 96.5q0 18 1 38.5t1 24.5h6q26 -2 52 -8l8 -2l-4 -84 q0 -33 -1 -89t-1 -83v-117l-2 -346v-145q0 -67 -5 -164v-2v-442v-17h-4l-6 -2q-12 -6 -41 -6q-8 3 -13 5q-2 1 -3 1v10v37q0 26 2 123t2 131q0 10 -1 27t-1 22v64l2 184v66v30h-37h-47h-4h-66q-14 0 -36 1t-31 1q-23 0 -33 -2l-27 -4v-127q0 -109 -2 -168l-2 -104l4 -272 q0 -3 -1 -7l-1 -4v-4v-4q0 -6 -39 -6h-22z" />
<glyph unicode="i" horiz-adv-x="219" d="M82 6v825v506q0 39 1 78l1 39v39v4h4l4 2h23q20 0 22 -2h4h6q0 -12 1.5 -58.5t1.5 -78.5q0 -4 1 -18t1 -17v-182v-2q2 -20 2 -41l-4 -678q0 -356 -3 -414v-2v-10h-4h-14q-11 0 -21 1t-12 1z" />
<glyph unicode="j" horiz-adv-x="552" d="M39 367v34v48h4q12 -3 14 -3q40 -3 56 -8v-43q2 -15 5 -58t5.5 -63.5t10.5 -51t20 -52.5q57 -100 139 -100q63 0 96.5 81t36.5 218v47q0 37 2 47v2v432v313v230v57q2 23 2 29q4 0 6 -1t4 -1q23 -2 33 -2h21v-23v-2q4 -78 4 -172v-403q0 -271 2 -328v-47q0 -76 -2 -103v-2 q0 -59 -2 -77v-3q0 -80 -15 -151q-20 -100 -47 -137q-15 -27 -39 -47v-2l-2 -2q-52 -35 -102 -35h-15q-56 6 -117 58t-81 104q-39 98 -39 217z" />
<glyph unicode="k" horiz-adv-x="534" d="M82 1509q39 0 49 -2q3 -1 7.5 -1h6.5t2 -1q5 -87 5 -223v-2v-2q2 -12 2 -66q0 -79 2 -214.5t2 -198.5l39 24q23 30 39 69t33 96.5t22 72.5l2 2v2q2 7 11.5 38.5t14.5 51.5q28 96 54 160l2 6l53 184q20 4 25 4h24q23 -2 29 -2q-2 -7 -4.5 -18t-3.5 -14q-6 -16 -11 -31 l-28 -84q-11 -39 -13 -41l-2 -4l-2 -4l-120 -361q-6 -22 -13 -38.5t-8 -22.5q-4 -12 -9.5 -26.5t-8.5 -23.5l-4 -12q-11 -19 -19.5 -34.5t-17.5 -30.5q30 -53 71 -172q13 -43 31 -88q3 -14 11.5 -40t11.5 -38l28 -88l23 -78l12 -37q39 -116 72 -221q-6 -2 -47 -2h-27 q-11 1 -8 3l2 1q0 2 -0.5 3.5t-1.5 4t-2 4.5l-19 60v2q-60 179 -123 397q-2 10 -8 27.5t-10 31.5t-4 19l-2 4l-27 76l-67 131v-137q0 -83 -2 -101l4 -266q2 -76 2 -225v-39q-10 -2 -12 -2q-1 -1 -6.5 -1.5t-13 -1t-11.5 -1.5q-6 -1 -11.5 -2t-8.5 -2t-5.5 -1.5t-3.5 -0.5 l-4 2v8l-2 2v2l2 2v72l2 217v102q2 23 2 55v140l2 141v311q0 76 -5 249t-5 224z" />
<glyph unicode="l" horiz-adv-x="460" d="M82 702v72q0 74 1 209t1 201q2 168 2 319l49 -6l19 -6v-418q-4 -59 -4 -172v-121v-305q0 -213 2 -309v-6v-6v-7v-69l124 -4q25 0 95 4q11 1 23.5 1h20.5t11 1q2 -47 2 -76l-14 -4q-13 0 -36 1t-34 1q-32 0 -99 -2t-104 -2q-5 0 -17 -1t-13 -1h-23q-2 0 -2 4v4l-2 6v285 q0 93 -1 228t-1 179z" />
<glyph unicode="m" horiz-adv-x="741" d="M80 1511h12h4q13 5 15 5q10 0 20 -5h4h2q25 0 25 -4q31 -86 139 -448q9 -36 18 -60l15 -55q8 -32 14 -47l10 -29q6 -13 16 -49t18.5 -62t15.5 -26h2v2q0 9 10 53.5t20 84.5l9 40q13 61 28 157.5t21 129.5q0 23 27.5 154.5t35.5 158.5h4h2q38 0 92 -24l3 -8v-113 q0 -5 2 -63.5t4 -96.5q1 -47 1.5 -125t1 -208.5t1.5 -231.5v-47q2 -25 2 -43v-111v-12q0 -35 -2 -39v-6v-6q4 -32 4 -96l2 -283q-2 -6 -2 -10v-2l-6 -2h-2q-31 0 -39 4q-5 2 -8.5 3.5t-4.5 2t-2 0.5v24l-2 25l-2 244v135l-4 362v97q0 33 -2 45v170l-8 325l-10 -35l-41 -258 q-10 -70 -47 -233l-17 -82q-4 -18 -8 -37t-4 -20q-4 -19 -17.5 -73.5t-21.5 -92.5q-28 -4 -49 -4q-3 8 -9.5 27.5t-9.5 27.5q-1 3 -16 41q-5 24 -10 39q-21 77 -23 88v2l-2 4q-2 5 -6.5 22t-7.5 27q-10 34 -10 43l-29 92l-25 88l-22 82v2q-42 144 -72 218l8 -242 q0 -21 3 -45v-19q3 -134 3.5 -311.5t2.5 -286.5q4 -250 10 -434v-26q0 -6 1 -14.5t1 -14.5q-1 0 -2.5 -0.5t-5 -1.5t-6.5 -2q-8 -2 -41 -2q-3 0 -9 1l-6 1q-6 699 -6 729v119q-3 53 -3.5 149t-2.5 135q0 60 -3 191t-3 196z" />
<glyph unicode="n" horiz-adv-x="665" d="M80 51v12v23v84v18q0 49 1 142t1 153v25v6l2 117v160q0 16 4 106v4v2q-2 14 -2 74v20q0 50 2 60v2v184v162v35v57h16h2q16 2 37 2h2q8 0 26 -1t34 -1q8 -12 16 -53.5t8 -42.5q89 -485 123 -653l17 -82l2 -2l1 -10q1 -10 1 -13q6 -24 6 -33h2l4 -20l16 -74l48 -178v-2 q6 -18 6 -27l10 -43l8 -29q8 -29 18 -63t17 -51q1 -5 14.5 -42t14.5 -40v51v37v53q2 12 2 33v2q0 9 -1 31.5t-1 36.5q0 18 1 43t1 59q0 83 -7 240v49v12q0 10 1.5 19t1.5 10v65q0 67 -1.5 209.5t-1.5 212.5q0 66 -2 109q-6 77 -6 100v2q-2 35 -2 86q4 0 16 1t15 1q23 0 31 2 q8 -2 8 -45v-39l6 -260q0 -39 2 -59v-64q2 -63 2 -258v-186q-2 -23 -2 -37v-2v-166q-2 -33 -2 -57v-4q0 -102 2 -170q4 -78 4 -162v-4l-2 -8h-6h-39h-4q-15 -5 -29 -5q-13 0 -21.5 1t-12.5 2.5t-6 2.5t-2 3l-1 2q-20 38 -61 200q-13 50 -27 112t-23 100t-14 53 q-24 74 -63 290q-1 5 -4.5 19l-9 36t-9.5 42q-1 7 -3 23.5t-3 23.5v2v2q-4 13 -6 26t-2 15l-92 493l-14 -4l2 -303v-2q0 -20 -2.5 -72t-2.5 -83v-3v-100q0 -40 3 -61q-3 -38 -3 -74v-14v-187q3 -135 3 -217q0 -40 1 -77t2.5 -78.5t2.5 -67.5v-76q-23 -4 -31 -4h-2q-6 0 -8 2 h-4h-21l-8 2q2 6 2 12v2q0 15 -2 21t-2 10z" />
<glyph unicode="o" horiz-adv-x="585" d="M61 719q0 16 2 24v2v158q0 36 3 76v2q0 17 -1.5 63t-1.5 72q0 82 9 125v2q6 117 41 195q25 52 55.5 77t71.5 31l6 2h10q66 0 111 -45q34 -34 67 -80q29 -45 51 -118q25 -75 32 -168t7 -228v-43v-301q0 -80 2 -92v-133q0 -47 -2 -86q-3 -108 -24 -166q-19 -51 -49.5 -75.5 t-81.5 -32.5q-44 -7 -88 -7q-47 6 -86 30t-64 58q-52 97 -59 258q0 22 -6 99q-3 30 -3 141v131v2q-2 16 -2 27zM129 1042q0 -8 1 -25.5t1 -25.5v-84v-24q0 -16 1 -35.5t1 -24.5v-192q3 -380 19 -434q11 -47 20 -64q11 -24 31 -51l2 -2q24 -27 55 -37q20 -8 62 -8 q73 0 108 57.5t35 145.5v69v23v18q0 137 -2 209q-2 84 -2 168v276q0 14 -4 72q-6 124 -21 184q-20 87 -100 185q-28 39 -64 39q-6 0 -18 -4q-60 -20 -88 -80q-16 -38 -23 -94v-3v-2q-14 -142 -14 -256z" />
<glyph unicode="p" horiz-adv-x="514" d="M68 1430v20q1 14 1 27v20.5t1 11.5q126 0 211 -18q16 -4 84 -37q41 -34 61 -63t41 -84q12 -56 12 -152v-45v-70q0 -93 -12 -157q-10 -87 -39 -158q-13 -29 -25 -45q-42 -48 -91 -67t-136 -19h-35l4 -289q0 -64 5 -244v-28q0 -6 0.5 -13.5t0.5 -11t-1 -6.5q-3 -6 -23 -6 q-7 0 -18.5 -1t-18.5 -1q-15 0 -18 6v23v83q0 11 1 44.5t1 54.5q0 29 1 93t1 89v266l-4 183q-2 27 -2 63v318v49v49v59q0 16 -1 32t-1 24zM131 1368q0 -76 2 -94v-176q3 -335 6 -365v-43v-16q13 0 32.5 1t27.5 1q54 0 94 14q81 33 108 166q13 77 13 209v59v50v2v30v2 q-1 11 -13 82q-10 43 -39 77t-67 54q-43 21 -82 21q-3 0 -14 1t-15 1q-53 0 -53 -12v-64z" />
<glyph unicode="q" horiz-adv-x="624" d="M74 782v117q0 18 6 129q3 69 6 115q14 227 59 305q39 70 131 76q136 0 203 -41q88 -72 88 -287v-457q0 -53 -1 -122t-1 -107v-139q-4 -108 -6 -125q-13 -105 -37 -166q-14 -35 -33 -51l-14 -17l14 -26q15 -34 33 -62q2 -5 2.5 -8t-1.5 -5.5t-3 -3.5t-5.5 -3t-6.5 -4 q-32 -9 -33 -9t-3 1.5t-3 1.5q-4 0 -4 8l-2 4l-27 57l-16 29l-25 -8q-35 -7 -67 -7q-39 0 -82.5 23t-59.5 45q-56 65 -84 225q-26 114 -26 310v2q-2 41 -2 200zM131 688q0 -164 12.5 -301.5t34.5 -198.5q16 -65 51 -100q51 -51 107 -51l63 8l-22 45q-5 12 -13.5 28.5 t-15.5 33.5v4l-2 2l6 2h2l4 2q4 4 23 4q21 0 25 -2l32 -101q4 6 12 17.5t13.5 21.5t9.5 21q20 65 26.5 159.5t8.5 268.5v258q0 258 2 344v66q0 73 -8 113t-29 67l-2 2q-48 56 -176 59h-4q-54 0 -86 -47q-30 -35 -47 -149q-21 -160 -21 -289q0 -58 -3 -145.5t-3 -141.5z" />
<glyph unicode="r" horiz-adv-x="493" d="M66 135.5v48.5q0 131 4 213q0 14 4 76v2l-4 160q6 125 6 338v207q0 56 2 135.5t2 128.5q3 60 6 76l27 4q8 0 47.5 3t60.5 3h19q54 0 96 -19q27 -12 42 -26t25 -41q23 -74 23 -223v-99q0 -123 -20 -202q-13 -84 -60.5 -158t-105.5 -115l-21 -18q17 -9 45.5 -22t44.5 -22.5 t36 -26.5t35.5 -44.5t27.5 -67.5q18 -60 18 -260q0 -103 -2 -123v-2q0 -37 -2 -41v-4v-2v-14h-66q0 10 1 28.5t1 30.5v47v66v29q-2 25 -4 70.5t-3.5 69t-4 49t-6.5 36.5q-13 49 -59 88l-2 2l-3 2q-29 17 -77.5 40.5t-59.5 23.5l-2 -2l4 -70v-2l-1 -8q0 -9 -0.5 -20.5 t-0.5 -20.5v-43q2 -68 2 -109l-4 -284q0 -5 1 -11l1 -6v-4q-5 -2 -7 -4h-3q-2 -2 -25 -2q-11 0 -19 0.5t-12 1t-5 0.5v41v8t-0.5 19.5t-1 29t-0.5 40zM135 1020q0 -124 1 -222.5t1 -140.5l17 -2l16 17q141 106 178 289q12 63 12 227v31q0 161 -28 211q-18 40 -96 40 q-47 0 -97 -16q-1 -10 -1 -27.5t-1 -23.5q-2 -23 -2 -64q0 -19 1 -58t1 -64q0 -41 -1 -106.5t-1 -90.5z" />
<glyph unicode="s" d="M55 1309q0 110 43 178q18 28 64.5 44.5t95.5 16.5q82 0 129 -53q37 -43 57 -127q17 -80 17 -147q-4 0 -4 -2h-2q-21 -7 -47 -7h-13q-9 85 -24 160v2v2q-6 28 -23 56q-34 51 -84 51h-31h-2q-43 -3 -76.5 -51t-33.5 -111q0 -40 10.5 -72t36.5 -79t37 -70q29 -70 96 -209 l43 -109l96 -250q30 -58 43 -159q11 -90 11 -101q0 -84 -17 -161q-14 -56 -43 -97q-27 -44 -137 -57h-12q-60 0 -109 43q-48 39 -78 127q-26 73 -26 133v21h8q10 -1 21 -2t18 -2t10 -1q15 -130 86 -208v-2q41 -41 76 -41q29 0 54.5 11.5t37.5 29.5q41 54 41 165q0 70 -8 125 q-7 48 -24 106t-32.5 100t-44 116t-43.5 113q-14 34 -55.5 120.5t-48.5 102.5l-39 78q-41 84 -57 127v2v2q-10 23 -17 86z" />
<glyph unicode="t" horiz-adv-x="520" d="M16 1497v16q11 0 23 3l113 2l174 2h88h82q2 -12 2 -39v-23h-88q-13 0 -36 -1t-34 -1h-33v-31v-79v-56l-2 -190v-223q-4 -422 -4 -717v-41q0 -68 -2 -99q0 -32 -2 -40q-8 -11 -61 -11l-5 1l2 1q4 2 3 4q-2 3 -2 7t1 11t1 11v2v31v74q0 20 2 53.5t2 44.5v192q0 122 2 313.5 t2 305.5v92v145v72v125l-133 -2l-93 -2q-2 16 -2 47z" />
<glyph unicode="u" horiz-adv-x="643" d="M78 1221q2 82 2 266v8q0 2 2 10h8h27h2q12 1 14 2h2t4.5 -1t3.5 -1v-73q-2 -78 -2 -218v-57q0 -487 23 -801q12 -143 31 -196q12 -50 58 -81.5t107 -31.5l17 -2h2q30 0 59 21q23 23 47 106q22 92 25 291v51q2 66 2 217v217v90v39l-2 109q-4 98 -4 301v16q41 -6 61 -6 v-145q2 -51 6 -289q0 -75 1 -165t1 -107q0 -57 1.5 -154t1.5 -152v-53v-24l1 -13q0 -2 -1 -6v-2v-2q-10 -168 -35 -274q-21 -76 -66 -117q-33 -23 -92 -23q-102 3 -176 60q-52 43 -76 110q-33 137 -43 365q-7 149 -12 715z" />
<glyph unicode="v" horiz-adv-x="552" d="M47 1501l12 6q40 6 47 6h9v-12l6 -80v-2q1 -18 5 -59.5t5 -63.5v-2l2 -4l25 -262q8 -88 22.5 -228t18.5 -188q22 -262 39 -379l4 -26l24 -129q33 151 37 192q1 9 8 40.5t8 49.5q7 51 11 86q36 202 73 584q37 333 62 486h8h10q29 0 35 -3h2h2h6v-14l-10 -74l-12 -112 q-1 -19 -11 -86t-14 -103q-5 -40 -11 -99.5t-11 -98.5l-8 -72l-84 -637q-1 -13 -4.5 -31.5t-8.5 -44.5t-8 -43l-18 -98v-4v-10l-13 -4q-25 0 -56 4t-50 4q-4 0 -8 2q-1 8 -7.5 54t-7.5 54q-1 26 -5 62t-5 43l-6 65q-4 64 -11 134t-17 153t-15 129l-23 215q-8 146 -28 305z " />
<glyph unicode="w" horiz-adv-x="937" d="M18 1495q6 6 27 6h14h29l41 -252l2 -2q0 -9 4 -33v-2q12 -67 19 -129v-4q9 -18 20 -98l43 -276q10 -62 14 -87v-2q4 -23 10.5 -69t8.5 -60l10 -38l68 -359q28 168 32 207q6 40 10.5 158t8.5 178q30 380 33 446q2 22 11 119.5t9 140.5v2q15 5 78 5h10q2 0 2 -9 q11 -33 13 -45v-2q36 -205 53 -422q11 -97 14 -139q7 -89 24.5 -261t22.5 -232q3 -12 9.5 -57.5t12.5 -81.5t9 -36q5 0 51 246q9 60 21.5 177t19.5 171l72 815v9q1 4 1.5 8.5t1 7t1.5 4.5q4 4 16 4l45 2l4 -2h5q-4 -24 -8 -62.5t-8.5 -85t-6.5 -63.5v-4q-1 -35 -9 -110.5 t-12 -133.5l-30 -348v-2q0 -15 -4 -39q-28 -265 -52 -422q-6 -48 -23.5 -131t-19.5 -102q0 -6 -8 -6q-1 0 -18.5 1t-34.5 1h-2q-20 0 -68 6q-20 87 -49 414l-22 284q-16 243 -27 326l-33 229l-18 -231q-14 -152 -23 -324q-10 -257 -16 -327q-1 -50 -10.5 -161t-9.5 -171v-4 v-2l-3 -37v-2h-8v-2q-3 0 -12.5 -1t-13.5 -1q-20 -2 -31 -2h-16h-3q-5 0 -9.5 0.5t-6.5 0.5t-3.5 0.5t-2.5 0.5l-6 6h-12q-2 8 -3.5 15.5t-2.5 11.5t-1 8q-36 172 -71 405l-49 273q-5 8 -9.5 49t-5.5 45q-3 12 -8.5 54t-7.5 48l-92 531q-6 25 -6 39v4z" />
<glyph unicode="x" horiz-adv-x="638" d="M41 -2q18 58 49 186q26 113 57 205l23 82l49 168l27 88q16 59 16 76v8l-2 12l-8 29q-1 6 -12 39q-1 8 -23 72l-76 245l-78 234q-3 14 -7.5 25t-6.5 18v12v10q4 4 12 4h7h10q8 0 18 1t13 1q12 0 18 -6q1 -4 7.5 -33t12.5 -49l19 -61q24 -92 41 -150q55 -179 88 -270 l29 -82l28 82q41 111 60 189l26 90q2 5 5.5 19.5t5.5 21.5q12 34 12 45q6 23 53 172q2 7 3.5 16.5t2.5 11.5q0 4 23 4h18h6q9 0 21 -4h2h2h2h2q0 -4 -47 -145l-25 -90v-2q-5 -20 -14 -47q-4 -13 -8 -23t-5.5 -15t-2.5 -7l-29 -93l-92 -280l92 -279q11 -32 21.5 -66.5t23 -80 t22.5 -78.5l60 -194q2 -5 11 -30t14.5 -44t5.5 -31q0 -2 -9 -2h-26h-2q-18 0 -26.5 1t-12.5 1l-12 51l-33 119l-25 88q-12 42 -28 91t-29 98l-98 294l-46 -118q-6 -24 -28.5 -99t-30.5 -112l-20 -84l-45 -160l-46 -164v-8h-8h-2h-2q-39 -2 -53 -2z" />
<glyph unicode="y" horiz-adv-x="481" d="M31 1493q0 6 4 10q3 3 8.5 3.5t15 -0.5t13.5 -1q18 0 22 -4q8 -8 10 -22q0 -7 5 -64q12 -115 36 -211l9 -47v-2q4 -21 8 -33q9 -29 29.5 -98t35 -117.5t15.5 -48.5q4 0 16 43t16 64q7 17 14 51.5t9 42.5l10 43l25 94q9 42 29.5 122t27.5 109l6 33q3 9 4.5 16.5t2 14.5 t1.5 10q2 17 25 17h25q16 0 16 -9q0 -6 -4 -14l-8 -45l-23 -92q-89 -354 -96 -379v-2q-13 -54 -19 -68l-2 -4v-2q-8 -40 -34 -143l-4 -15v-2q0 -57 -3 -94v-133q-2 -35 -2 -53l-2 -96q-1 -27 -2 -100.5t-2 -102.5q-2 -45 -2 -131q0 -7 0.5 -15.5t0.5 -11t-1.5 -6t-5 -4 t-10.5 -0.5l-19 2q-2 1 -7 2t-7 2q-8 1 -11.5 5.5t-3.5 9.5t1.5 15t1.5 17l2 324v41v92l2 248q-4 30 -16 65l-15 47q-1 3 -4 13t-4 16v2l-2 2q-2 6 -8 29l-2 2q-5 15 -9.5 27t-7 20.5t-2.5 9.5v2q-1 3 -4.5 18.5t-5.5 22.5l-12 35q-19 66 -33 127t-19 87.5t-16.5 102 t-15.5 97.5q-2 6 -2 14z" />
<glyph unicode="z" horiz-adv-x="495" d="M43 1499q1 2 1 3.5t1 4.5h10h11q6 0 17.5 -1t18.5 -1q15 0 25 2h141q117 0 123 -2h4h4q21 0 41 -1t21 -1l-2 -20q-18 -118 -45 -230l-15 -65l-151 -639l-10 -47v-2q-1 -15 -2 -21t-2 -8t-3 -7t-4 -15q-3 -9 -4.5 -15.5t-1.5 -9t-0.5 -4.5t-1.5 -4v-2l-16 -58 q-12 -46 -26.5 -106t-23.5 -96l-12 -48l-12 -38l47 -2q62 -3 133 -3h117q32 -3 33 -4q2 -2 2 -16v-14v-6q0 -18 -6 -21q-2 -2 -11 -2h-16h-96h-240q-23 0 -31 2.5t-8 11.5q0 3 2.5 12.5t3.5 16.5q2 12 8.5 35t6.5 24l41 189q7 34 13.5 62t11 47.5t5.5 23.5q11 33 17 63 l12 60l25 100l26 111l21 88q5 32 14 67q3 22 13.5 61.5t13.5 53.5l92 412h-43q-57 0 -82 2h-2h-201h-2q0 10 -3 27.5t-3 29.5z" />
<glyph unicode="{" horiz-adv-x="425" d="M84 803q80 55 119 102q23 32 28 41q23 48 23 88q0 74 2 92q2 31 2 54q0 70 2 80v2q6 116 41 194q44 91 115 107l2 -60q-5 -4 -9.5 -8.5t-7.5 -8.5t-4 -5l-2 -2q-30 -39 -42.5 -76.5t-20.5 -102.5v-2q0 -30 -4 -108v-2v-2q0 -56 -2 -68v-2v-2q0 -55 -2 -61v-2v-64 q0 -109 -115 -184q23 -26 53 -47l23 -23l22 -20q15 -12 15 -68q3 -413 18 -465q11 -45 20 -63q6 -14 31 -51q10 -15 18.5 -23.5t17 -15t11.5 -9.5l-2 -69q-19 1 -35.5 7t-25 10t-22.5 19t-16.5 18.5t-17.5 23.5q-30 51 -41.5 110t-17.5 148q0 82 -6 164q-2 20 -2 94v30 q0 57 -14 89q-8 26 -25 43q-2 2 -7 6t-7 6q-21 11 -56 35q-37 26 -59 51z" />
<glyph unicode="|" horiz-adv-x="231" d="M84 -131l4 887q0 72 2 84v2v284q2 25 2 39v178q2 66 2 117v39v4h4l6 2h13h33q8 -1 10 -2h2q0 -12 1 -58.5t1 -78.5v-35v-2q2 -16 2 -31v-145v-2q2 -20 2 -41v-405q2 -35 2 -93q0 -26 -1 -81t-1 -87q0 -534 -2 -573v-2v-4l-2 -6q0 -2 -2 -2q-1 0 -3.5 0.5t-8 1t-11.5 0.5 h-12q-5 0 -10.5 0.5t-8.5 0.5t-5 0.5t-3 0.5q-6 3 -9.5 5t-4.5 2.5t-2 0.5z" />
<glyph unicode="}" horiz-adv-x="438" d="M84 18q3 3 11.5 9.5t17 15t18.5 23.5q25 37 31 51q9 18 20 63q16 56 19 465q0 57 14 68l23 20l22 23q30 21 53 47q-114 74 -114 184v64v2q-2 6 -2 61v2v2q-2 12 -2 68v2v2q-5 97 -5 108v2q-8 65 -20.5 102.5t-42.5 76.5l-2 2q-1 1 -4 5t-7.5 8.5t-9.5 8.5l2 60 q71 -16 115 -107q35 -78 41 -194v-2q2 -10 2 -80q0 -23 2 -54q2 -18 2 -92q0 -40 23 -88q5 -9 28 -41q39 -47 119 -102q-22 -25 -59 -51t-55 -35q-2 -2 -7.5 -6t-7.5 -6q-16 -16 -24 -43q-15 -34 -15 -89v-30q0 -74 -2 -94q-6 -82 -6 -164q-6 -89 -17.5 -148t-41.5 -110 q-34 -45 -53 -58q-26 -18 -64 -20z" />
<glyph unicode="~" horiz-adv-x="499" d="M84 1400v3v2q0 41 29 72.5t77 31.5q53 -7 72 -26q17 -15 30.5 -42.5t31.5 -39.5q12 -4 18 -4q43 0 43 47q0 6 -1 14l-1 8v7h53q2 -12 2 -23q0 -56 -20.5 -77.5t-69.5 -29.5q-23 0 -45 13v2q-31 16 -53 55q-7 11 -11.5 17.5t-9 10t-6.5 5t-8 4t-10 4.5q-9 6 -21 6 q-2 0 -5.5 -1t-4.5 -1q-33 -9 -33 -53q0 -13 6 -37l-57 -6q-1 3 -2 8.5t-2 7.5q0 8 -0.5 13.5t-1.5 8.5z" />
<glyph unicode="&#xa1;" horiz-adv-x="233" d="M86 1470q0 8 8 31q4 8 12 12h3l4 3q1 0 2.5 0.5t5 1t8.5 0.5h10q17 -3 24 -10.5t7 -30.5v-2v-2q2 -8 2 -35q0 -17 -2 -23h-6l-12 -8q-5 0 -21 -6h-10q0 2 -12 2q-8 8 -13 22q-8 16 -10 45zM88 502q6 24 6 41q0 3 -2 16v76q0 121 2 158v2v65q0 46 2 58v2v55q2 16 2 53 q4 110 4 121q0 1 1 12t1 21v20v4q5 0 19.5 1t17.5 1q5 0 23 -4q2 -4 2 -37v-53q-2 -14 -2 -39v-39v-2q4 -54 4 -73q0 -11 -2 -27v-2v-526q-1 -18 -2 -56t-2 -51v-2q0 -54 -2 -68v-2v-2q0 -57 2 -108v-78h-8q-39 0 -62 2q0 7 -1 32t-1 42q0 11 1 44t1 58v193v2q-2 8 -2 26v33 q0 15 -2 31z" />
<glyph unicode="&#xa2;" horiz-adv-x="647" d="M33 709v4l2 6v14q3 57 41 105q47 53 121 65q51 12 120 12h31h35q18 -2 51 -2q17 0 45.5 1t42.5 1q31 0 49 -2q17 0 23 2q-2 -9 -10 -73q0 -6 -47 -6q-17 0 -47 1t-37 1l-105 -2h-31q-80 0 -125.5 -15.5t-66.5 -56.5l-2 -4q-4 -28 -4 -82q0 -112 47.5 -166.5t140.5 -67.5 q71 -22 185 -22h120q2 -16 2 -39q0 -11 -0.5 -19.5t-1 -12.5t-0.5 -5q-12 2 -32 2q-11 0 -25.5 -1t-19.5 -1h-23q-86 0 -121 6q-174 30 -239 70q-31 25 -78 90q-41 53 -41 197z" />
<glyph unicode="&#xa3;" horiz-adv-x="628" d="M39 750v4h35v32v177v221q1 65 5.5 110.5t18 93t37 77t64 49.5t96.5 24h2q10 2 57 2q47 -1 81 -12t57.5 -34.5t38 -52.5t22.5 -76t10.5 -93.5t3.5 -114.5v-67h-57h-201l187 2q0 158 -7 233q-14 75 -45.5 107t-101.5 32q-8 0 -16 -1t-9 -1q-13 0 -26 -1t-15 -1 q-37 -7 -61.5 -24t-38 -47.5t-19.5 -60t-10 -75.5q-6 -33 -6 -153v-193v-121v-28q10 -2 15 -2h14q6 2 23 2h26h172h39v-78h-33q-18 -2 -32 -2l-132 -2h-40q-28 -4 -33 -4h-19l13 -619h170q37 0 65 14.5t44.5 34.5t28.5 54.5t17 62t10 68.5q5 20 5 22q0 3 -1 8t-1 7l69 2 q-4 -162 -44.5 -235t-131.5 -103q-8 -2 -27 -2q-23 0 -47 -4h-2q-12 0 -134 3t-132 3v4q0 6 -0.5 10.5t-1 6.5t-0.5 3.5v1.5v1v1v39h41q0 53 -3.5 163.5t-4.5 135.5v320h-33v4q-2 25 -2 72z" />
<glyph unicode="&#xa4;" horiz-adv-x="880" d="M57 1413l25 49l6 -2h4q7 0 14 -20l173 -289l26 43l29 29h2q33 39 86 39q14 0 22 -2q41 -4 83 -25.5t65 -44.5q3 -4 6 -8.5t4 -7.5l25 -50l30 70l136 242q10 16 12 18h6l6 2l31 -26l-60 -117q-6 -7 -8.5 -11t-3 -6.5t-0.5 -3.5l-2 -6q-7 -12 -18 -32.5t-17 -30.5 q0 -1 -6 -12.5t-17.5 -32.5t-19.5 -37l-49 -86v-13q0 -30 1 -67t1 -53v-29q-2 -29 -2 -78q0 -35 2 -105t2 -122q0 -22 -4 -62l-2 -28l184 -318l-36 -63q-11 2 -13 2q-2 2 -3.5 4.5t-2.5 3.5l-151 268l-25 -59q-12 -30 -34.5 -46t-69.5 -26q-3 0 -8.5 -1t-8.5 -1q-8 0 -22 2 t-21 2h-2q-56 11 -80 30.5t-47 65.5l-26 84l-138 -253q-1 -5 -5.5 -14.5t-8.5 -16.5l-4 -6l-49 53l182 317v9q0 1 -1 7t-1 9q-3 22 -7 99t-6.5 141t-2.5 67v14v2q0 90 14 162l2 4v9l2 14l-76 139q-6 9 -15.5 27.5t-14.5 25.5q0 7 -4 15t-8 12l-3 4q-2 3 -12.5 25t-20.5 37z M309 911q0 -47 6.5 -181.5t6.5 -164.5v-4l2 -6q0 -31 8 -63v-9q9 -31 13.5 -45.5t16.5 -37t27 -35.5q30 -27 80 -27t79.5 46t29.5 103q4 28 4 58q2 12 2 28v25q0 22 -5.5 170.5t-5.5 161.5q0 38 -0.5 59t-4 57t-11.5 56.5t-21.5 43.5t-36 33.5t-53.5 10.5q-41 0 -67.5 -23 t-36.5 -59q-2 -5 -5.5 -13.5t-4.5 -9.5v-2q-21 -50 -21 -120v-2q0 -41 -2 -43v-7z" />
<glyph unicode="&#xa5;" horiz-adv-x="477" d="M25 1493q0 6 4 10q4 2 14 2h23h4q14 0 18 -4q8 -8 10 -22q0 -18 4 -64q16 -116 39 -211l9 -47v-2q4 -21 8 -33q9 -29 29.5 -98t35 -117.5t15.5 -48.5q4 0 32 107q7 17 14 51.5t9 42.5l10 43l25 94q9 43 29 124.5t26 106.5l6 33q3 9 4.5 16.5t2 14.5t1.5 10q2 17 25 17h24 q19 0 19 -9q0 -2 -2.5 -6.5t-3.5 -7.5l-8 -45l-23 -92q-11 -43 -43.5 -178.5t-50.5 -200.5v-2q-13 -54 -19 -68l-2 -4v-2q-8 -40 -34 -143l-5 -15v-2v-57h39q53 0 84 2h47v-2q0 -5 1 -15t1 -14h3v-2v-8v-31q-7 0 -18.5 -1t-12.5 -1h-37h-23l-4 2l-39 -2l-43 -2v-59h31 q53 0 84 2h47v-2q0 -5 1 -15t1 -14h2v-2v-8v-31q-7 0 -18 -1t-12 -1h-37h-23l-4 2l-39 -2l-35 -2v-16l-2 -96q-2 -53 -2 -203q-2 -37 -2 -111v-20v-25q0 -8 -3 -10t-13 -2l-19 2q-3 1 -7.5 2t-6.5 2q-16 3 -16 16q0 4 2 14t2 17v324v35v67v2q-11 0 -22 -1t-15 -1h-21l-98 2 v2v2q-1 12 -2 21v4v43q27 -2 94 -2h29h14l6 2q2 0 7 1t8 1v59q-19 0 -27 -2h-20l-99 2v2v2l-2 25v43q27 -2 95 -2h28h15l6 2q4 0 6 2v70q-3 24 -17 65l-14 47q-1 3 -4 13t-4 16v2l-2 2q-2 6 -8 29l-2 2q-5 15 -9.5 27t-7 20.5t-2.5 9.5v2q-1 3 -4.5 18.5t-5.5 22.5l-12 35 q-19 66 -32.5 125t-19.5 91.5t-17 98t-17 99.5q-2 6 -2 14z" />
<glyph unicode="&#xa6;" horiz-adv-x="221" d="M84 0l4 707h66v-27l2 -4v-103q0 -5 1 -11l1 -5v-115l2 -4q-4 -12 -4 -22l1 -9q1 -9 1 -12v-395l-6 -2q-9 2 -23 2h-45zM84 897l4 430v12l2 2v72l1 6q1 6 1 11q0 55 2 65v21h66l-2 -267q0 -311 -2 -354h-62zM160 438z" />
<glyph unicode="&#xa7;" horiz-adv-x="473" d="M74 1366q0 37 29 78t61 57q40 21 94 21q97 0 141 -76q11 -28 11 -43q6 -27 6 -49l4 -56l2 -16h-2v-2h-6h-11h-18h-14q-8 4 -13 4h-4q-4 16 -4 64q0 30 -14.5 57t-36.5 39q-20 10 -41 10q-56 0 -80 -16q-9 -5 -24 -23l-2 -2q-10 -18 -15 -37l2 -26q7 -13 14.5 -34.5 t14.5 -35.5q6 -15 31 -53q3 -4 11 -18t20.5 -32.5t27.5 -37.5q13 -16 39.5 -60.5t42.5 -64.5l12 -19q36 -74 49 -131q11 -43 13 -57q8 -70 8 -84v-2q0 -154 -64 -199q-37 -26 -98 -26q7 -10 30.5 -48t37.5 -57q2 -4 6 -10t6 -10q40 -65 57 -131q1 -2 4.5 -12.5t7 -23.5 t5.5 -24q1 -9 5 -40t5 -46q0 -40 -6 -78q-14 -85 -58 -114q-39 -27 -100 -27h-12q-40 1 -79 21t-52 38q-1 1 -5 6.5t-5.5 7.5t-5.5 8.5t-6 11t-5.5 12t-5 14.5t-3 17t-1.5 20v141h61q0 -5 -1 -8l-1 -2v-2v-29q0 -12 -1 -38t-1 -36q0 -8 2 -12q13 -104 90 -104q42 0 52 2 q75 12 75 123v16q0 16 -3 46t-3 44q-2 34 -45 131q-38 87 -115 197l-10 14q-48 17 -65 43q-1 1 -8 9.5t-10 13.5t-8 15.5t-7.5 23t-3.5 28.5l-2 94q0 41 28.5 82.5t61.5 57.5q39 20 90 20q27 0 63 -8l-18 43q-38 87 -115 197l-12 20q-14 18 -16 23l-27 38q-45 76 -55 119 q-2 20 -2 33zM137 668q2 -18 10 -41q11 -23 23 -39q22 -19 57 -19q42 0 52 2q71 12 75 103q0 5 -1 24.5t-1 30.5q0 30 -14.5 56t-36.5 38q-22 11 -41 11q-56 0 -82 -17q-8 -4 -24 -24h-2q-10 -23 -13 -39v-2v-2q0 -13 -1 -39t-1 -41v-2z" />
<glyph unicode="&#xa8;" horiz-adv-x="192" d="M14 1509q1 16 4 27t8.5 21.5t6.5 13.5q18 12 30 12h3q5 -1 10 -6.5t8 -10.5l2 -5q4 -10 4 -27q0 -19 -2 -21v-6q0 -13 -6.5 -26t-18.5 -13h-10q-6 0 -10 1l-4 1l-4 3h-2q-5 4 -12 18t-7 18zM133 1509q0 74 43 74h8q4 -1 9.5 -6.5t8.5 -10.5l3 -5q4 -10 4 -25 q0 -68 -29 -68h-8l-14 2l-4 3h-2q-7 4 -13 16t-6 20z" />
<glyph unicode="&#xa9;" horiz-adv-x="944" d="M57 594v194v27q0 56 2 70v22q0 25 2 41v43q1 31 2 83.5t2 83.5t4.5 74t10 71.5t17.5 60t29 54t42 38.5q129 20 274 25q53 -1 201 -8q163 -21 197.5 -81t41.5 -279q1 -18 1 -28q0 -33 2 -47v-110q1 -11 2 -35.5t2 -32.5v-143q2 -41 2 -162v-139q0 -36 -2 -54v-55 q-4 -92 -10 -144.5t-23 -94.5q-13 -27 -20 -35q-3 -2 -4.5 -2.5t-2.5 -0.5t-2 -1h-2q-9 -9 -14 -9q-7 -2 -11 -4t-4 -3l-1 -1q-91 -12 -275 -12h-55q-133 3 -201 10q-77 7 -106 17q0 1 -8.5 10.5t-8.5 11.5q-10 8 -16 25v2q-32 65 -45 188q-19 117 -19 238q0 11 -2 48.5 t-2 43.5zM131 805q0 -129 6 -223l27 -422q28 -52 61 -66q33 -18 103 -22q64 -6 198 -6h13q57 0 94 6q97 0 137 32q35 28 41 86q8 51 8 148v16q2 25 2 86v23v100q2 16 2 49q0 8 -1 25t-1 20v29q0 56 -2 70v123v268q-1 6 -2 26.5t-2 28.5v60q-1 4 -6 32q-12 49 -51 76 q-76 45 -326 45h-8h-39q-77 0 -131 -4h-2q-52 -9 -80 -33v-2q-29 -32 -25 -57q-11 -130 -16 -148q0 -21 1 -68.5t1 -72.5q0 -37 -1 -112.5t-1 -112.5zM266 858v14q0 85 25 213h2v2q0 34 41 103v2q5 8 28 31h3q13 16 44 26.5t60 10.5q21 0 35 -7h4q26 -4 55 -16 q32 -20 45 -35q54 -40 54 -217v-100q-11 -11 -35 -11q-23 0 -33 7v4v2v33q-2 10 -2 16v45q0 91 -28 150t-89 59q-41 0 -67.5 -23t-36.5 -59q-19 -38 -25 -68t-6 -77q0 -41 -2 -45v-7q0 -74 11 -227t11 -201q21 -86 78 -121q32 -24 60 -24q34 0 65 31h2l21 28v2q20 57 20 88 q4 28 4 64q0 97 6 131l58 -4q0 -9 1 -20t1 -13v-22q0 -7 1 -18.5t1 -12.5v-57q0 -106 -49 -199q-12 -28 -37 -53q-43 -19 -70 -19q-23 2 -61 2q-36 7 -47 13h-2q-24 7 -37 20q-21 11 -36.5 52t-19.5 73v6q-9 15 -18 70l-12 86q-9 65 -14 127t-7 102.5t-2 42.5z" />
<glyph unicode="&#xaa;" horiz-adv-x="425" d="M31 1317q0 85 37 141q33 49 98 49h49q7 -2 10 -2l56 -8h2l14 -6l16 -2h31v24h55l-53 -4h53v-10l-2 -6v-47q0 -309 -2 -350h-18h-21l-6 2h-4q-2 0 -4 2q-2 0 -2 67l-47 -47q-10 -1 -18 -2t-11 -1.5t-4 -0.5h-57q-23 2 -41 6l-35 6q-15 4 -45 19q-9 11 -14 18q-3 0 -13 13 q-2 4 -2 6l-2 6q0 2 -2 6q-18 48 -18 121zM49 948v53q29 -2 88 -2h15l6 2q20 5 37 5h159q6 0 12 -0.5t9 -1t4 -0.5v-50q-7 0 -12.5 -1t-6.5 -1h-20h-23l-4 2l-39 -2l-65 -2q-4 0 -19.5 -1t-19.5 -1q-11 0 -23 -1l-12 -1h-20zM82 1331q0 -90 22 -121l2 -2v-2q7 -6 12 -9.5 t6.5 -4.5t2.5 -2l4 -4l23 -19q14 -12 22 -12l6 -2q9 0 15 -6q23 -10 43 -10q27 0 39 6q38 10 53 39l4 6l10 84v2v10v4v80l-2 2v2l2 6v17q0 28 -16 46t-39 23q-27 11 -74 11q-12 0 -20 -2h-17h-2q-15 -3 -31 -11q-17 -5 -30 -18q-13 -15 -13 -27l-20 -63v-4v-9l-2 -2v-8z" />
<glyph unicode="&#xab;" horiz-adv-x="499" d="M57 610l4 78l13 21q24 36 75.5 108t75.5 109h23q4 2 43 2h10q-13 -16 -38 -51t-34 -46v-2l-108 -145l-2 -61q5 -18 41 -50l129 -167l12 -13h-49q-3 0 -27 4l-18 25l-35 41l-4 8v2l-14 17.5t-11 13.5v2q-10 14 -86 104zM199 610l4 78l12 21q24 36 76 108t76 109h22 q4 2 43 2h10q-13 -16 -37.5 -51t-33.5 -46v-2l-109 -145l-2 -61q5 -18 41 -50l129 -167l12 -13h-49q-2 0 -26 4l-19 25l-35 41l-4 8v2q-5 4 -14 16.5t-10 14.5v2q-10 14 -86 104z" />
<glyph unicode="&#xac;" horiz-adv-x="536" d="M84 604v74q70 4 201 4h41h110q9 0 18 -0.5t15 -1.5h6v-21l-2 -143q1 -8 1.5 -25t1 -46t1.5 -50l-67 2q0 8 -1 18t-1 11l-5 184l-14 -2v2l-45 -2l-65 -2q-4 0 -19.5 1t-19.5 1q-11 0 -23 -1l-12 -1h-21zM389 608z" />
<glyph unicode="&#xad;" horiz-adv-x="536" d="M84 604v60q33 -2 123 -2h14l6 2q16 4 37 4h172q9 0 18 -0.5t15 -1.5h6v-56q-7 0 -18 -1t-13 -1h-34h-23l-4 2l-39 -2l-65 -2q-4 0 -19.5 -1t-19.5 -1q-11 0 -23 -1l-12 -1h-21z" />
<glyph unicode="&#xae;" horiz-adv-x="944" d="M57 594v194v27v14q0 44 2 56v22v4q0 23 2 35v2v43q4 91 13 228q16 133 43 178q10 17 21.5 27.5t32 18.5t31.5 11t47.5 9.5t51.5 9.5q21 4 139 8q53 -1 201 -8q105 -13 125 -21q26 -10 49 -39q37 -59 50.5 -118.5t17.5 -209.5q0 -33 2 -47v-51q0 -37 2 -57q0 -56 2 -70 v-141v-2q2 -41 2 -162v-193q-2 -31 -2 -53v-2q-2 -47 -8 -110q-1 -8 -2 -22t-2 -21q-23 -97 -66 -127.5t-127 -30.5h-2q-19 0 -71 2t-85 2h-2h-2h-55q-133 3 -201 10q-57 5 -81 12t-34.5 17.5t-25.5 40.5q-1 2 -16 47q-20 68 -33 165.5t-13 176.5q-2 14 -2 23v10q0 31 -2 47 q-2 25 -2 45zM131 598q0 -312 37 -422q28 -46 49 -67q10 -10 24 -16.5t25.5 -9t30 -5.5t29.5 -6q25 -6 90 -6h12h113q53 0 96 6q16 2 47 3.5t49 6t31 16.5q37 40 55 152q4 16 4 31q0 13 -2 38.5t-2 34.5q2 20 2 72v14v23v100q2 16 2 49v9v36v2q-2 16 -2 27q0 56 -2 70v309 v78q-4 127 -14 153q-28 57 -66 80q-30 18 -133 37q-30 6 -69 6h-2q-20 0 -57.5 -2t-55.5 -2q-256 0 -272 -131q-9 -18 -9 -20q0 -1 1 -3.5t1 -3.5v-2q0 -35 -6 -99.5t-6 -106.5v-347q0 -26 4 -38q-4 -12 -4 -25v-8v-33zM293 348v8q0 35 8 166v2q0 11 4 35v2v47v2q0 23 2 35 v2l6 381q2 16 2 39v2q5 55 11 70q51 10 96 10q153 -11 194 -43q46 -43 46 -148q0 -88 -30.5 -166t-78.5 -102q-21 -10 -41 -18l-74 -35l158 -47q39 -13 49 -39q17 -39 17 -109v-16q0 -33 -3 -45v-2v-2v-17l-2 -6v-2h-59q-2 18 -2 23q-3 48 -6 74q-3 30 -19 61q-8 16 -12 22 l-10 9h-8l-11 4q-8 2 -16.5 6t-9.5 4q-96 33 -109 33q-10 0 -10 -6q0 -1 1 -10t1 -17q0 -4 -1 -12.5t-1 -12.5q-1 -13 -2 -33.5t-2 -33.5q-2 -41 -2 -55v-23l-2 -6v-29q-16 -2 -43 -2h-41zM371 1012q0 -31 4 -51q6 -59 6 -97q0 -68 2 -86v-33q0 -6 2 -16v-20l2 -29l72 12 q65 31 101 113t36 158q0 14 -3 28t-5 20.5t-8.5 19t-6.5 13.5l-2 3l-2 2q-21 33 -67 41q-23 6 -53 6h-3h-30h-2h-6q-4 0 -13 1t-12 1q-8 0 -8 -6q0 -17 -2 -42t-2 -38z" />
<glyph unicode="&#xaf;" horiz-adv-x="284" d="M47 1548.5v1.5v1v1v25h16q43 0 80 2h95v-49q-7 0 -18 -1t-13 -1h-37q-76 -6 -117 -6h-4v4v2q0 6 -0.5 10.5t-1 6.5t-0.5 3.5z" />
<glyph unicode="&#xb0;" horiz-adv-x="409" d="M82 1421v17h2q0 43 19 68.5t57 25.5h26q52 0 79.5 -25.5t27.5 -70.5v-11l2 -2v-47q0 -55 -53 -71q-20 -2 -21 -2h-28q-46 0 -69.5 14.5t-33.5 50.5q-8 32 -8 53zM129 1434q0 -38 2 -50q7 -22 16 -26q4 -3 23.5 -6.5t28.5 -3.5q5 0 12 1t8 1h2l23 14q7 11 9 18t0.5 21.5 t-1.5 21.5q0 49 -43 62q-17 4 -25 4q-39 0 -47 -21q-4 -11 -8 -36z" />
<glyph unicode="&#xb1;" horiz-adv-x="534" d="M82 403v60q27 -2 94 -2h29h14l6 2q5 1 19 -0.5t18 -1.5h172q9 0 18 -0.5t15 -0.5l6 -1v-58q-7 0 -18 -1t-13 -1h-34h-23l-4 2l-39 -2h-29q-21 0 -59 1t-51 1h-21zM82 705v53q27 -2 94 -2h29h43v133q0 9 0.5 18t1.5 15v6h49v-31v-2q2 -18 2 -33v-22l-2 -4l2 -37v-37h39h10 q51 0 82 -2h2h39v-53q-7 0 -18 -1t-13 -1h-34h-23l-4 2l-37 -2l-37 -3v-34v-6v-25l-2 -100h-57q2 27 2 94v28v43h-37h-6h-25z" />
<glyph unicode="&#xb2;" horiz-adv-x="479" d="M86 952v25v10q1 10 3.5 18t2.5 23q0 9 4 29q10 67 31 100q26 29 89.5 96t94.5 103l16 20t16 21.5t8.5 19t4.5 25.5q0 16 -16 37q-18 18 -53 22h-19q-83 0 -102 -67v-2q0 -10 -6 -31h-10h-19q-10 0 -13 2t-1 8v10q0 56 54.5 94.5t117.5 38.5q49 0 80 -30.5t43 -73.5v-6 q0 -43 -25 -88l-27 -31l-2 -2q-18 -22 -66 -70.5t-73 -81.5q-4 -5 -16.5 -19t-18.5 -21t-13 -18t-11 -21q-6 -13 -10 -48q0 -8 -1.5 -13.5t-1.5 -14.5v-25q6 -4 60 -4h78h108h13q10 0 10 -4v-12l-2 -25v-5q0 -8 -2 -9.5t-15 -1.5h-32q-9 0 -29 -1t-29 -1q-23 0 -67.5 2 t-67.5 2q-9 0 -27.5 -1t-27.5 -1q-20 0 -25.5 4t-5.5 18z" />
<glyph unicode="&#xb3;" horiz-adv-x="481" d="M86 1423q19 74 49 97.5t105 23.5q106 0 145 -57q27 -41 27 -119v-16q0 -21 -6 -35q-8 -21 -25.5 -37t-40.5 -20q-4 -1 7 -7l7 -4q7 -5 13 -9.5t8.5 -6t3.5 -2.5q28 -35 33.5 -54t5.5 -73q0 -34 -6 -64q-15 -93 -80 -125q-46 -22 -99 -22h-10q-58 2 -95.5 27t-37.5 75v9 h53v-5q3 -32 22 -41.5t56 -9.5h27q7 0 10.5 1t5.5 1q55 8 74 39q7 11 10 22t4 21.5t2 14.5q2 12 2 38q0 62 -14 97q-11 17 -33 26h-2q-27 9 -35 9q-5 0 -14.5 1t-13.5 1q-13 0 -21 2h-24h-2q-2 12 -2 34q0 4 0.5 8.5t1 7t0.5 3.5q10 -2 12 -2q57 0 102 18q19 9 33 31 q10 12 10 47v31q0 87 -98 90h-2h-14q-8 0 -24 1t-23 1q-32 0 -39 -16q-2 -3 -9 -23.5t-10 -26.5q-14 -2 -49 -2z" />
<glyph unicode="&#xb4;" horiz-adv-x="296" d="M49 1481l21 24l20 23l4 2l2 6q14 19 23 31l20 26q4 6 11 9l2 2q1 0 5 0.5t10.5 1t12.5 0.5q41 3 41 -2q0 -3 -16 -19q-4 -4 -13.5 -14.5t-15.5 -18.5q-12 -14 -27.5 -35t-21.5 -28l-4 -4l-2 -4q-1 0 -24.5 -1t-30.5 -1q-13 0 -17 2z" />
<glyph unicode="&#xb5;" horiz-adv-x="632" d="M84 524v23q0 51 2 61v146v26q0 86 1 265t1 294v43v107q40 -3 72 -19l-2 -231q-2 -31 -2 -104q0 -29 1 -85.5t1 -80.5v-35v-275v-20q0 -50 -2 -70v-233q0 -69 34 -156q42 -108 170 -108q24 0 48 12q6 6 16 14t16.5 15t10.5 14q21 36 28 70h2q20 96 25 219v47v168 q0 221 -2 330l-2 350v182h4q8 0 30 5t31 5t11 -2v-147l2 -314q0 -146 1 -398t1 -392l2 -78l2 -199h-37q-29 0 -33 2v68v14v47q-24 -32 -43 -52t-53 -39t-70 -19q-76 0 -133 47l-53 53v-74q2 -84 2 -208q0 -43 -0.5 -81.5t-1 -62t-0.5 -28.5v-7l-2 -6q0 -2 -2 -2q-1 0 -4 0.5 t-8.5 1t-10.5 0.5h-12h-8t-6.5 0.5t-4 1t-2.5 0.5h-2q-6 3 -9.5 5t-4.5 3t-2 1z" />
<glyph unicode="&#xb6;" horiz-adv-x="804" d="M82 1128q0 108 20 181q22 63 71.5 112.5t113.5 71.5q78 20 112 20h201h10q55 0 86 -2h41v-337q2 -20 2 -41l2 -447q0 -48 -2 -127.5t-2 -126.5v-6q0 -106 2 -239.5t2 -153.5v-33v-8l-2 -4q-4 -2 -14 -2q-9 0 -25 2t-18 2q-6 3 -9.5 5t-4.5 2.5t-2 0.5l2 739v23q0 51 2 61 l-2 328q2 25 2 39v119v108v33l-68 -4l-65 -2h-41v-31l2 -94v-49q0 -39 -2 -66v-80v-153q0 -88 -4 -174l-3 -181q0 -48 -2 -77v-95q0 -45 -1 -177.5t-1 -170.5q0 -45 -4 -65v-35h-69q2 9 2 14v51q2 78 2 246v250h-31h-2q-49 0 -84 6q-35 5 -60 17.5t-35.5 23t-35.5 39.5 q-45 73 -64 203q-16 108 -18 190q-4 62 -4 94z" />
<glyph unicode="&#xb7;" horiz-adv-x="225" d="M84 78q2 31 10 47l10 20h5l4 2l4 3h10q1 0 6 -5h10h4l17 -10v-12q0 -27 -2 -31v-4v-2q0 -29 -4 -41l-2 -2v-4v-2q-4 -1 -8.5 -2t-7 -1.5t-3.5 -0.5h-10q-5 0 -8.5 0.5t-5 1t-2.5 0.5l-5 2h-2q-6 3 -12 12q-8 20 -8 29z" />
<glyph unicode="&#xb8;" horiz-adv-x="501" d="M152 -137h41q4 -16 6 -23.5t9 -21.5t19.5 -20.5t30.5 -6.5h6q60 0 60 47q0 21 -15 41q-15 27 -65 39l-8 2q0 6 1 46.5t1 45.5l41 -4v-55q5 -4 25 -17t28 -22q29 -32 33 -70v-2q0 -40 -23 -63q-30 -27 -78 -27q-34 0 -55.5 6t-32 21.5t-14.5 29.5t-8 41q-1 3 -1 4.5 t-1 4.5v4z" />
<glyph unicode="&#xb9;" horiz-adv-x="335" d="M86 1407l2 66q10 2 30 9t38 13q4 1 15 4t17 6q9 4 13.5 8t6.5 8t3 5q2 2 14 2l4 2h11h22q7 -1 8 -2h2v-15q0 -48 -1 -146.5t-1 -147.5v-17q2 -14 2 -22q-2 -18 -2 -43v-43v-70q0 -92 -2 -104v-2v-3q-27 3 -41 3q-12 2 -14 2l4 305q0 29 2 35v2v200l-39 -22l-78 -29h-2 q-13 -3 -14 -4z" />
<glyph unicode="&#xba;" horiz-adv-x="395" d="M31 1337q0 79 35 129q31 47 98 47q38 0 96 -14q38 -12 64 -45.5t34 -79.5q4 -32 4 -51q0 -66 -26 -117q-17 -33 -66 -43q-30 -6 -67 -6q-57 0 -97 14q-40 15 -57.5 54.5t-17.5 111.5zM47 1038v29q20 -2 59 -2q34 0 106 3t110 3q6 0 11 -0.5t7.5 -1t3.5 -0.5v-57 q-6 0 -10.5 -1t-5.5 -1h-19h-20l-4 2l-35 -2l-60 -2q-4 0 -16.5 -1t-15.5 -1q-25 0 -33 -2h-19l-57 2v2v2q-2 23 -2 28zM90 1319q0 -67 28 -90t93 -23q29 0 35 2q67 17 67 140q0 46 -23.5 75t-62.5 37l-12 6l-6 2q-21 7 -35 7q-41 0 -62.5 -32t-21.5 -77v-47z" />
<glyph unicode="&#xbb;" horiz-adv-x="499" d="M57 393l13 13l129 167q36 32 41 50l-2 61l-109 145v2q-52 72 -72 97h11q39 0 43 -2h22q24 -37 76 -109t76 -108l12 -21l4 -78l-86 -104v-2q-2 -1 -11.5 -13.5t-13.5 -17.5v-2q-4 -6 -4 -8l-34 -41l-19 -25q-24 -4 -27 -4h-49zM199 393l12 13l129 167q36 32 41 50l-2 61 l-109 145v2q-60 84 -71 97h10q39 0 43 -2h22q24 -37 76 -109t76 -108l12 -21l4 -78l-86 -104v-2q-2 -2 -11 -14.5t-13 -16.5v-2q-4 -6 -4 -8l-35 -41l-19 -25q-24 -4 -26 -4h-49z" />
<glyph unicode="&#xbc;" horiz-adv-x="913" d="M88 0l336 743q15 35 41 88l215 478l80 170q4 14 8 14q0 2 4 2h4l15 2h28l-65 -139q-10 -24 -17 -43t-11 -28.5t-11 -24.5l-13 -29q-2 -6 -4.5 -11.5t-3 -7t-0.5 -2.5q-70 -139 -198 -430l-52 -120q-21 -38 -38 -80l-250 -562q-4 -10 -4 -12l-7 -8l-12 -4q-8 2 -18 2h-11 q-5 0 -8.5 0.5t-5 1t-2.5 0.5zM145 1407l2 66q10 2 30 9t38 13q4 1 15.5 4t17.5 6q9 4 13.5 8t6 8t2.5 5q2 2 15 2l4 2h10h23q7 -1 8 -2h2v-15v-294v-17q2 -14 2 -22q-4 -36 -4 -43q0 -5 1 -19t1 -24v-70q0 -92 -2 -104v-2v-3q-27 3 -41 3q-12 2 -15 2l5 305q0 29 2 35v2 l-2 200l-39 -22l-78 -29h-2zM530 643h19q14 0 25 -1t12 -1l4 -109q2 -20 2 -40q2 -16 2 -68q0 -19 2 -23q-2 -6 -2 -18v-10h18q10 -2 31 -2q16 0 52 3t55 3h26q-2 8 -2 33t-2 69.5t-2 65.5v30q1 9 1 17t-0.5 13.5t-1 10t-1.5 6.5v3v20q13 0 31.5 -1t27.5 -1q0 -54 3.5 -152 t3.5 -147v-2l8 -133l10 -180q-2 -2 -6 -2q-14 -3 -47 -9h-4q-4 16 -4 25q0 63 -17 276v11h-45l-182 -2v16q-2 6 -2 29q0 48 -6 134t-7 120v2q-2 6 -2 14z" />
<glyph unicode="&#xbd;" horiz-adv-x="894" d="M88 0l336 743q15 35 41 88l215 478l80 170q4 14 8 14q0 2 4 2h4l15 2h28l-65 -139q-10 -24 -17 -43t-11 -28.5t-11 -24.5l-13 -29q-2 -6 -4.5 -11.5t-3 -7t-0.5 -2.5q-70 -139 -198 -430l-52 -120q-21 -38 -38 -80l-250 -562q-4 -10 -4 -12l-7 -8l-12 -4q-8 2 -18 2h-11 q-5 0 -8.5 0.5t-5 1t-2.5 0.5zM156 1407l2 66q9 2 28.5 9t38.5 13q4 1 15.5 4t17.5 6q9 4 13.5 8t6.5 8t3 5q2 2 14 2l4 2h10h23q7 -1 8 -2h2v-15v-294v-17q2 -14 2 -22q-4 -36 -4 -43q0 -5 1 -19t1 -24v-70q0 -92 -2 -104v-2v-3q-27 3 -41 3q-12 2 -14 2l4 305q0 29 2 35v2 l-2 200l-39 -22l-78 -29h-2q-13 -3 -14 -4zM506 37q0 3 1 10t1 12v11q1 11 3 19t3 22q0 8 4 28q7 65 29 101l182 198q4 5 14 16.5t14 17t9.5 14.5t7.5 18t2 20q0 16 -16 37q-18 18 -55 23q-3 0 -9.5 1t-9.5 1q-77 0 -100 -70v-2q0 -1 -1 -5.5t-2.5 -12t-2.5 -13.5h-11h-20 q-10 0 -13 2.5t-1 8.5q0 6 2 10q0 56 54.5 94.5t115.5 38.5q90 0 124 -105v-6q0 -49 -26 -88l-27 -30v-2q-12 -13 -63 -65.5t-76 -86.5q-49 -53 -57 -80q-7 -17 -11 -47q-1 -5 -2.5 -12t-1.5 -17v-24q4 -4 60 -4h80h106h14q11 0 11 -4v-13l-2 -24q0 -13 -2 -15t-15 -2h-33 h-57q-23 0 -68 1t-69 1q-8 0 -26 -1t-29 -1q-20 0 -25.5 5t-5.5 20z" />
<glyph unicode="&#xbe;" horiz-adv-x="913" d="M88 0l336 743q15 35 41 88l215 478l80 170q4 14 8 14q0 2 4 2h4l15 2h28l-65 -139q-10 -24 -17 -43t-11 -28.5t-11 -24.5l-13 -29q-2 -6 -4.5 -11.5t-3 -7t-0.5 -2.5q-70 -139 -198 -430l-52 -120q-21 -38 -38 -80l-250 -562q-4 -10 -4 -12l-7 -8l-12 -4q-8 2 -18 2h-11 q-5 0 -8.5 0.5t-5 1t-2.5 0.5zM143 1423q19 74 49 97.5t105 23.5q104 0 143 -57q31 -45 31 -119v-16q0 -21 -8 -35q-19 -48 -64 -57q-6 -1 7 -8l8 -3q17 -14 24 -18q27 -35 32 -54t5 -73q0 -34 -6 -64q-16 -95 -80 -125q-46 -22 -98 -22h-8q-60 2 -98 27t-38 75v9h56v-5 q1 -32 20.5 -41.5t55.5 -9.5h26q8 0 12 1t5 1q56 8 75 39q9 16 15 58q0 7 1 23t1 24q0 51 -13 88q-11 17 -32 26h-2q-31 9 -35 9q-6 0 -16 1t-13 1q-12 0 -20 2h-2h-23h-4v34v19q10 -2 14 -2q60 0 101 18q17 8 32 31q15 18 11 47v31q0 87 -99 90h-4h-12q-8 0 -24 1t-23 1 q-28 0 -39 -16q-3 -4 -18 -50q-15 -2 -50 -2zM530 643h19q14 0 25 -1t12 -1l4 -109q2 -20 2 -40q2 -16 2 -68q0 -19 2 -23q-2 -6 -2 -18v-10h18q10 -2 31 -2q16 0 52 3t55 3h26q-2 8 -2 33t-2 69.5t-2 65.5v30q1 9 1 17t-0.5 13.5t-1 10t-1.5 6.5v3v20q13 0 31.5 -1t27.5 -1 q0 -54 3.5 -152t3.5 -147v-2l8 -133l10 -180q-2 -2 -6 -2q-14 -3 -47 -9h-4q-4 16 -4 25q0 63 -17 276v11h-45l-182 -2v16q-2 6 -2 29q0 48 -6 134t-7 120v2q-2 6 -2 14z" />
<glyph unicode="&#xbf;" horiz-adv-x="483" d="M84 262v25q3 69 8 90q10 39 47 129l29 76q18 53 37 92l2 4l2 4q0 9 41 121q63 129 63 364v41l70 4v-69v-2q2 -43 2 -84q0 -74 -6 -86q-16 -61 -55 -144q-51 -119 -54 -129v-2h-2q0 -3 -10 -28l-2 -2l-14 -37v-4q0 -3 -5 -19t-6 -22l-12 -31l-8 -27l-12 -32v-2 q-31 -94 -35 -134q-2 -12 -2 -47q0 -33 2 -43q11 -144 80 -149h12q56 0 78 45q14 30 18 55v2q2 23 4 27q6 38 6 49q0 60 3 84h6q33 0 51 -6q0 -3 -1 -8t-1 -7v-2v-41q0 -10 -2 -16q-2 -10 -2 -31v-12q-5 -56 -8 -65q-7 -33 -17 -62q-11 -27 -24 -37v-2q-42 -47 -107 -47 q-64 0 -106 45v2q-13 11 -25 29v2l-2 2l-16 27v8l-5 6q-12 24 -12 27v8l4 8l-4 12q-4 10 -10 41zM309 1440v2l2 6v16q0 29 4 41l2 2v4v2q4 1 8.5 2t7 2t3.5 1h10q5 0 8.5 -0.5t5 -1t2.5 -0.5l5 -3h2q8 -4 12 -12q8 -23 8 -31q-2 -29 -10 -45q-6 -16 -12 -22q-14 -2 -17 -2 h-4q-23 3 -30 11.5t-7 27.5z" />
<glyph unicode="&#xc0;" horiz-adv-x="622" d="M29 -33q2 10 2 23q6 25 6 43q9 46 16 123q5 43 10 69q1 8 4.5 27t4.5 27q5 20 7.5 36t2.5 17l8 57l45 287q9 70 20.5 131.5t28 135.5t25.5 120q1 8 4 23.5t4 19.5v2v2q1 9 2 15t1.5 8.5t0.5 3.5l2 2v4q10 48 27 117t22 96l52 178q2 -1 28.5 -1t51.5 -2t28 -7 q9 -27 19 -97.5t14 -93.5q5 -42 14.5 -112.5t14.5 -122.5q4 -51 22 -224q4 -63 17 -209t16 -194l18 -152l17 -200q4 -42 7 -53.5t7 -57.5v-10q0 -6 2 -12q-28 -4 -29 -4h-6l-4 -5q-1 0 -6 -1t-8 -1h-15v2q-18 208 -28 265l-6 28l-21 4h-10h-49h-23h-2q-12 0 -22 2h-2h-52 q-11 0 -20 3h-2h-47h-4q-12 -3 -13 -3q-45 0 -77 -4q-11 -12 -16.5 -37t-10 -67.5t-10.5 -69.5v-2l-2 -4q-5 -75 -21 -125q-8 -2 -12 -2h-27q-24 0 -26 2zM162 360h33q44 -8 94 -8q17 0 53 1t57 1q11 0 22 1t13 1h60l-45 553q-9 79 -13.5 130t-5 64.5t-3 33t-7.5 53.5l-8 74 l-29 188l-12 12l-49 -190q-1 -3 -10 -49t-20 -100t-13 -64q-49 -226 -60 -301l-16 -113q-7 -44 -13 -84t-14 -88q-4 -19 -6 -33.5t-2.5 -23t-1.5 -12.5zM225 1716q18 0 42.5 -1t42 -2t18.5 -1v-2q5 -1 12 -8v-2q7 -7 45 -64l4 -6l4 -2q0 -3 21 -24l16 -23q-12 -2 -16 -2 q-13 0 -28.5 0.5t-26 1t-11.5 0.5v4l-4 4q-79 92 -119 127z" />
<glyph unicode="&#xc1;" horiz-adv-x="622" d="M29 -33q2 10 2 23q6 25 6 43q9 46 16 123q5 43 10 69q1 8 4.5 27t4.5 27q5 20 7.5 36t2.5 17l8 57l45 287q9 70 20.5 131.5t28 135.5t25.5 120q1 8 4 23.5t4 19.5v2v2q1 9 2 15t1.5 8.5t0.5 3.5l2 2v4q10 48 27 117t22 96l52 178q2 -1 28.5 -1t51.5 -2t28 -7 q9 -27 19 -97.5t14 -93.5q5 -42 14.5 -112.5t14.5 -122.5q4 -51 22 -224q4 -63 17 -209t16 -194l18 -152l17 -200q4 -42 7 -53.5t7 -57.5v-10q0 -6 2 -12q-28 -4 -29 -4h-6l-4 -5q-1 0 -6 -1t-8 -1h-15v2q-18 208 -28 265l-6 28l-21 4h-10h-49h-23h-2q-12 0 -22 2h-2h-52 q-11 0 -20 3h-2h-47h-4q-12 -3 -13 -3q-45 0 -77 -4q-11 -12 -16.5 -37t-10 -67.5t-10.5 -69.5v-2l-2 -4q-5 -75 -21 -125q-8 -2 -12 -2h-27q-24 0 -26 2zM162 360h33q44 -8 94 -8q17 0 53 1t57 1q11 0 22 1t13 1h60l-45 553q-9 79 -13.5 130t-5 64.5t-3 33t-7.5 53.5l-8 74 l-29 188l-12 12l-49 -190q-1 -3 -10 -49t-20 -100t-13 -64q-49 -226 -60 -301l-16 -113q-7 -44 -13 -84t-14 -88q-4 -19 -6 -33.5t-2.5 -23t-1.5 -12.5zM348 1565l21 24l20 23l4 2l4 6l21 31l20 26q4 6 11 9l2 2q1 0 10.5 1t17.5 1q41 3 41 -2q0 -3 -16 -19l-29 -33 q-28 -39 -49 -63l-4 -4v-4q-1 0 -25.5 -1t-31.5 -1q-13 0 -17 2z" />
<glyph unicode="&#xc2;" horiz-adv-x="622" d="M29 -33q2 10 2 23q6 25 6 43q9 46 16 123q5 43 10 69q1 8 4.5 27t4.5 27q5 20 7.5 36t2.5 17l8 57l45 287q9 70 20.5 131.5t28 135.5t25.5 120q1 8 4 23.5t4 19.5v2v2q1 9 2 15t1.5 8.5t0.5 3.5l2 2v4q10 48 27 117t22 96l52 178q2 -1 28.5 -1t51.5 -2t28 -7 q9 -27 19 -97.5t14 -93.5q5 -42 14.5 -112.5t14.5 -122.5q4 -51 22 -224q4 -63 17 -209t16 -194l18 -152l17 -200q4 -42 7 -53.5t7 -57.5v-10q0 -6 2 -12q-28 -4 -29 -4h-6l-4 -5q-1 0 -6 -1t-8 -1h-15v2q-18 208 -28 265l-6 28l-21 4h-10h-49h-23h-2q-12 0 -22 2h-2h-52 q-11 0 -20 3h-2h-47h-4q-12 -3 -13 -3q-45 0 -77 -4q-11 -12 -16.5 -37t-10 -67.5t-10.5 -69.5v-2l-2 -4q-5 -75 -21 -125q-8 -2 -12 -2h-27q-24 0 -26 2zM162 360h33q44 -8 94 -8q17 0 53 1t57 1q11 0 22 1t13 1h60l-45 553q-9 79 -13.5 130t-5 64.5t-3 33t-7.5 53.5l-8 74 l-29 188l-12 12l-49 -190q-1 -3 -10 -49t-20 -100t-13 -64q-49 -226 -60 -301l-16 -113q-7 -44 -13 -84t-14 -88q-4 -19 -6 -33.5t-2.5 -23t-1.5 -12.5zM270 1567q5 16 21 47q17 45 43 96l96 -8q11 -28 18.5 -45.5t16.5 -39t18 -44.5l-55 -14l-6 18q-2 7 -4.5 14.5l-4 12 t-1.5 6.5q-2 6 -9 19.5t-14 23.5t-8 10q-1 -1 -4.5 -1t-5.5 -3q-22 -30 -39 -96h-17q-7 0 -24 2t-21 2z" />
<glyph unicode="&#xc3;" horiz-adv-x="622" d="M29 -33q2 10 2 23q6 25 6 43q9 46 16 123q5 43 10 69q1 8 4.5 27t4.5 27q5 20 7.5 36t2.5 17l8 57l45 287q9 70 20.5 131.5t28 135.5t25.5 120q1 8 4 23.5t4 19.5v2v2q1 9 2 15t1.5 8.5t0.5 3.5l2 2v4q10 48 27 117t22 96l52 178q2 -1 28.5 -1t51.5 -2t28 -7 q9 -27 19 -97.5t14 -93.5q5 -42 14.5 -112.5t14.5 -122.5q4 -51 22 -224q4 -63 17 -209t16 -194l18 -152l17 -200q4 -42 7 -53.5t7 -57.5v-10q0 -6 2 -12q-28 -4 -29 -4h-6l-4 -5q-1 0 -6 -1t-8 -1h-15v2q-18 208 -28 265l-6 28l-21 4h-10h-49h-23h-2q-12 0 -22 2h-2h-52 q-11 0 -20 3h-2h-47h-4q-12 -3 -13 -3q-45 0 -77 -4q-11 -12 -16.5 -37t-10 -67.5t-10.5 -69.5v-2l-2 -4q-5 -75 -21 -125q-8 -2 -12 -2h-27q-24 0 -26 2zM162 360h33q44 -8 94 -8q17 0 53 1t57 1q11 0 22 1t13 1h60l-45 553q-9 79 -13.5 130t-5 64.5t-3 33t-7.5 53.5l-8 74 l-29 188l-12 12l-49 -190q-1 -3 -10 -49t-20 -100t-13 -64q-49 -226 -60 -301l-16 -113q-7 -44 -13 -84t-14 -88q-4 -19 -6 -33.5t-2.5 -23t-1.5 -12.5zM238 1591v25v2q0 40 26.5 72t67.5 32q40 -8 53 -34q5 -8 17.5 -35.5t23.5 -38.5q4 -4 16 -4q33 0 33 41q0 7 -2 17 t-2 11v7h53v-23v-21q0 -31 -20 -61q-13 -22 -58 -31q-19 0 -36 13v2q-26 16 -45 55q-1 3 -4.5 11t-4.5 10t-4 7.5t-5 7.5t-5 4.5t-6.5 3.5t-7.5 1h-13q-24 -6 -24 -53q0 -23 4 -31l-53 -6q0 12 -4 16z" />
<glyph unicode="&#xc4;" horiz-adv-x="622" d="M29 -33q2 10 2 23q6 25 6 43q9 46 16 123q5 43 10 69q1 8 4.5 27t4.5 27q5 20 7.5 36t2.5 17l8 57l45 287q9 70 20.5 131.5t28 135.5t25.5 120q1 8 4 23.5t4 19.5v2v2q1 9 2 15t1.5 8.5t0.5 3.5l2 2v4q10 48 27 117t22 96l52 178q2 -1 28.5 -1t51.5 -2t28 -7 q9 -27 19 -97.5t14 -93.5q5 -42 14.5 -112.5t14.5 -122.5q4 -51 22 -224q4 -63 17 -209t16 -194l18 -152l17 -200q4 -42 7 -53.5t7 -57.5v-10q0 -6 2 -12q-28 -4 -29 -4h-6l-4 -5q-1 0 -6 -1t-8 -1h-15v2q-18 208 -28 265l-6 28l-21 4h-10h-49h-23h-2q-12 0 -22 2h-2h-52 q-11 0 -20 3h-2h-47h-4q-12 -3 -13 -3q-45 0 -77 -4q-11 -12 -16.5 -37t-10 -67.5t-10.5 -69.5v-2l-2 -4q-5 -75 -21 -125q-8 -2 -12 -2h-27q-24 0 -26 2zM162 360h33q44 -8 94 -8q17 0 53 1t57 1q11 0 22 1t13 1h60l-45 553q-9 79 -13.5 130t-5 64.5t-3 33t-7.5 53.5l-8 74 l-29 188l-12 12l-49 -190q-1 -3 -10 -49t-20 -100t-13 -64q-49 -226 -60 -301l-16 -113q-7 -44 -13 -84t-14 -88q-4 -19 -6 -33.5t-2.5 -23t-1.5 -12.5zM289 1628q1 14 22 49q17 13 29 13h4q5 -1 10.5 -6.5t7.5 -11.5l3 -5q4 -10 4 -27q0 -16 -2 -26q-4 -39 -27 -39h-8 q-7 0 -11.5 1t-5.5 1q-30 15 -26 51zM410 1616q0 74 45 74h8q4 -1 9 -6.5t8 -11.5l3 -5q4 -10 4 -25q0 -67 -28 -67h-8l-17 2q-9 3 -16 14q-8 16 -8 25z" />
<glyph unicode="&#xc5;" horiz-adv-x="622" d="M29 -33q2 10 2 23q6 25 6 43q9 46 16 123q5 43 10 69q1 8 4.5 27t4.5 27q5 20 7.5 36t2.5 17l8 57l45 287q9 70 20.5 131.5t28 135.5t25.5 120q1 8 4 23.5t4 19.5v2v2q1 9 2 15t1.5 8.5t0.5 3.5l2 2v4q10 48 27 117t22 96l50 170q-23 16 -31 47q-8 32 -8 53v16h2 q0 44 18.5 70.5t56.5 26.5h27q52 0 79.5 -26t27.5 -71v-10l2 -2v-47q0 -56 -54 -72h-6q7 -27 16 -90.5t13 -87.5q5 -42 14.5 -112.5t14.5 -122.5q4 -51 22 -224q4 -63 17 -209t16 -194l18 -152l17 -200q4 -42 7 -53.5t7 -57.5v-10q0 -6 2 -12q-28 -4 -29 -4h-6l-4 -5 q-1 0 -6 -1t-8 -1h-15v2q-18 208 -28 265l-6 28l-21 4h-10h-49h-23h-2q-12 0 -22 2h-2h-52q-11 0 -20 3h-2h-47h-4q-12 -3 -13 -3q-45 0 -77 -4q-11 -12 -16.5 -37t-10 -67.5t-10.5 -69.5v-2l-2 -4q-5 -75 -21 -125q-8 -2 -12 -2h-27q-24 0 -26 2zM162 360h33q44 -8 94 -8 q17 0 53 1t57 1q11 0 22 1t13 1h60l-45 553q-9 79 -13.5 130t-5 64.5t-3 33t-7.5 53.5l-8 74l-29 188l-12 12l-49 -190q-1 -3 -10 -49t-20 -100t-13 -64q-49 -226 -60 -301l-16 -113q-7 -44 -13 -84t-14 -88q-4 -19 -6 -33.5t-2.5 -23t-1.5 -12.5zM330 1638q0 -37 2 -47 q7 -22 16 -26q5 -3 23.5 -8t27.5 -5q13 0 21 4h2l22 13q11 17 11 28q0 4 -1 15.5t-1 19.5q0 50 -43 60q-17 6 -25 6q-39 0 -47 -21q-4 -9 -8 -39z" />
<glyph unicode="&#xc6;" horiz-adv-x="729" d="M33 -33q2 10 2 23q6 25 6 43q10 47 14 123q3 26 11 69q1 8 4 27t4 27q5 20 7.5 36t2.5 17l8 57l45 287q9 70 20.5 131.5t28 135.5t25.5 120q1 8 4 23.5t4 19.5v2v2q1 9 2 15t1.5 8.5t0.5 3.5l2 2v4q8 39 25.5 111t21.5 102l52 160h12h53h19h36q95 0 113 -3h6h4q3 3 33 3 h37q14 0 16 -7v-22v-14q0 -7 -0.5 -15t-0.5 -13l-1 -5h-6l-4 -2h-6h-41q-17 0 -41 -4l-104 4l-46 -2q0 -28 -1 -83.5t-1 -90.5q0 -21 -2 -31v-2l-2 -365v-2q2 -31 2 -74v-55v-41v-30h70q72 0 84 2h25q5 0 8.5 -0.5t5 -1t2.5 -0.5q2 -2 2 -9v-8q0 -16 1 -28t1 -21v-8 q0 -2 -2 -6q-10 -2 -27 -2h-104q-41 0 -64 -5q-2 0 -2 -3.5t0.5 -7.5t-0.5 -5q-6 -105 -6 -113v-129q0 -20 -2 -28v-2l2 -230l37 -2q4 0 14 1t21 1q88 0 100 2h25q12 -2 24 -2h66q2 -16 2 -39q0 -13 -0.5 -23.5t-1 -16.5t-0.5 -7q-10 -2 -16 -2h-17q-11 2 -31 2h-12 q-23 2 -110 2h-23q-15 0 -46 -2t-46 -2q-29 0 -47 6v21q4 22 0 51q-4 70 -4 227l-35 2q-12 0 -21 3h-2h-20h-4q-12 -3 -13 -3q-45 0 -77 -4q-11 -12 -16.5 -36.5t-9.5 -68t-9 -69.5v-2l-2 -4q-5 -75 -21 -125q-8 -2 -12 -2h-27h-6q-18 0 -20 2zM164 360h33q44 -8 61 -8 q5 0 27 1t43 1q0 6 -1 14t-1 11q4 40 4 61q0 12 -1 33t-1 29v20q0 57 1 155t1 150v21v102q4 86 4 176v187l-10 -39q-1 -3 -10 -49t-20 -100t-13 -64q-49 -226 -60 -301l-16 -113q-7 -44 -13 -84t-14 -88q-4 -19 -6 -33.5t-2.5 -23t-1.5 -12.5z" />
<glyph unicode="&#xc7;" d="M78 985v117q2 25 2 41q0 143 16 221h2v2q0 6 17 59q11 27 24 48q3 6 29 32l2 2q8 8 43 23h4l2 2q6 6 19 6q21 2 28 6h15q26 0 30 -4l4 -2h4q28 -4 56 -16q32 -20 45 -35q9 -7 20 -29q29 -80 29 -108l4 -80l2 -84q0 -11 2 -17q-16 -8 -24 -10l-9 -2l-12 2q-10 2 -12 2 l-4 4h-2v4v2v29v4q-3 15 -4 17v45q0 44 -7 84q-9 46 -41 82q-32 38 -75 38q-39 0 -66 -20q-61 -46 -78 -154q-4 -50 -4 -86v-36v-84q-2 -49 -2 -86v-60q0 -35 2 -49v-137q6 -249 6 -252q0 -70 2 -90v-37q0 -31 3 -43q2 -10 2 -41v-19q5 -73 12 -100q3 -21 26 -67 q15 -34 54 -58q7 -7 26 -10q8 -2 19 -2l12 2h12q23 0 39.5 7.5t27.5 23t17 29t13 36.5q10 42 10 53q4 28 4 58q2 8 2 20v15v26v60v16h10q7 0 15 2h20q12 -2 16 -2h5v-102q0 -98 -21 -166q-17 -57 -45 -92q-42 -53 -131 -56v-49q5 -4 25 -17t28 -22q28 -28 33 -69v-2 q0 -42 -23 -62q-29 -29 -79 -29q-63 0 -82.5 23t-26.5 76q-1 3 -1 4t-1 4v4h41q4 -16 6 -23.5t9 -21.5t19.5 -20.5t30.5 -6.5h7q20 0 33 4.5t18 13t6.5 15t1.5 14.5q0 22 -14 41q-7 13 -19 21t-21 11t-26 7l-8 2q0 4 1 41t1 47q-22 5 -25 7q-69 31 -104 108q-37 90 -37 191 q0 40 -4 98q0 51 -2 84v20v37v25v10q0 6 1 24t1 29v2v2q-2 18 -2 78q0 89 -2 146q-2 70 -2 149z" />
<glyph unicode="&#xc8;" horiz-adv-x="462" d="M74 401q2 20 2 64v59q0 65 1 175t1 171v103q4 86 4 176v176v170q40 4 76 4q133 0 149 -2h6h4q2 2 33 2h35q12 0 18 -6v-23v-14q0 -7 -0.5 -15t-0.5 -13l-1 -5h-6l-4 -2h-6h-41q-17 0 -41 -4l-104 4l-45 -2q0 -28 -2 -65.5t-2 -73.5q0 -15 -3 -27v-2l-2 -364v-2 q2 -29 2 -72v-59v-39v-31h70q72 0 84 2h25q5 0 8.5 -0.5t5 -1t2.5 -0.5q2 -2 2 -8v-8q0 -16 1 -28.5t1 -21.5v-8q0 -2 -2 -6q-10 -2 -27 -2h-104q-45 0 -63 -4q-2 0 -2 -3.5v-7.5t-1 -5q-6 -105 -6 -113v-129q0 -21 -2 -29v-2v-229l37 -2q4 0 14 1t21 1q88 0 100 2h25 q12 -2 24 -2h66q2 -16 2 -39q0 -13 -0.5 -23.5t-1 -16.5t-0.5 -7q-10 -2 -16 -2h-17q-11 2 -31 2h-12q-27 2 -133 2q-14 0 -45 -2t-47 -2q-29 0 -47 6v20q4 22 0 52q-2 37 -2 256q0 61 -2 75zM96 1686q11 0 25 -0.5t27 -1t24 -1.5t18 -1l7 -1l2 -2q3 -1 10 -8l2 -2 q13 -14 45 -63l2 -7l4 -2q12 -12 21 -24l16 -23q-12 -2 -16 -2q-12 0 -27.5 0.5t-25.5 1.5h-11l-2 4l-4 5q-85 99 -117 127z" />
<glyph unicode="&#xc9;" horiz-adv-x="462" d="M74 401q2 20 2 64v59q0 65 1 175t1 171v103q4 86 4 176v176v170q40 4 76 4q133 0 149 -2h6h4q2 2 33 2h35q12 0 18 -6v-23v-14q0 -7 -0.5 -15t-0.5 -13l-1 -5h-6l-4 -2h-6h-41q-17 0 -41 -4l-104 4l-45 -2q0 -28 -2 -65.5t-2 -73.5q0 -15 -3 -27v-2l-2 -364v-2 q2 -29 2 -72v-59v-39v-31h70q72 0 84 2h25q5 0 8.5 -0.5t5 -1t2.5 -0.5q2 -2 2 -8v-8q0 -16 1 -28.5t1 -21.5v-8q0 -2 -2 -6q-10 -2 -27 -2h-104q-45 0 -63 -4q-2 0 -2 -3.5v-7.5t-1 -5q-6 -105 -6 -113v-129q0 -21 -2 -29v-2v-229l37 -2q4 0 14 1t21 1q88 0 100 2h25 q12 -2 24 -2h66q2 -16 2 -39q0 -13 -0.5 -23.5t-1 -16.5t-0.5 -7q-10 -2 -16 -2h-17q-11 2 -31 2h-12q-27 2 -133 2q-14 0 -45 -2t-47 -2q-29 0 -47 6v20q4 22 0 52q-2 37 -2 256q0 61 -2 75zM236 1563l20 24l20 23l5 2l2 6q6 8 9 12.5t3.5 5.5t2.5 4t7 9l21 26q4 5 10 8 l2 3q1 0 5 0.5t11 1t13 0.5q40 3 40 -1q-1 -5 -16 -20q-4 -4 -13.5 -14.5t-15.5 -18.5q-11 -14 -27 -35t-22 -28l-4 -4l-2 -4q-1 0 -24.5 -1t-30.5 -1q-12 0 -16 2z" />
<glyph unicode="&#xca;" horiz-adv-x="462" d="M74 401q2 20 2 64v59q0 65 1 175t1 171v103q4 86 4 176v176v170q40 4 76 4q133 0 149 -2h6h4q2 2 33 2h35q12 0 18 -6v-23v-14q0 -7 -0.5 -15t-0.5 -13l-1 -5h-6l-4 -2h-6h-41q-17 0 -41 -4l-104 4l-45 -2q0 -28 -2 -65.5t-2 -73.5q0 -15 -3 -27v-2l-2 -364v-2 q2 -29 2 -72v-59v-39v-31h70q72 0 84 2h25q5 0 8.5 -0.5t5 -1t2.5 -0.5q2 -2 2 -8v-8q0 -16 1 -28.5t1 -21.5v-8q0 -2 -2 -6q-10 -2 -27 -2h-104q-45 0 -63 -4q-2 0 -2 -3.5v-7.5t-1 -5q-6 -105 -6 -113v-129q0 -21 -2 -29v-2v-229l37 -2q4 0 14 1t21 1q88 0 100 2h25 q12 -2 24 -2h66q2 -16 2 -39q0 -13 -0.5 -23.5t-1 -16.5t-0.5 -7q-10 -2 -16 -2h-17q-11 2 -31 2h-12q-27 2 -133 2q-14 0 -45 -2t-47 -2q-29 0 -47 6v20q4 22 0 52q-2 37 -2 256q0 61 -2 75zM164 1569q5 15 10 26t7.5 15.5t2.5 5.5q18 47 45 96l95 -8q11 -28 18.5 -45.5 t16.5 -39t18 -44.5l-53 -14q-4 13 -9 18q-8 32 -8 33q-3 10 -16.5 31.5t-16.5 21.5q0 -1 -1 -0.5t-3 0t-4 -3.5q-14 -17 -20.5 -34t-20.5 -62h-16q-6 0 -22.5 2t-22.5 2z" />
<glyph unicode="&#xcb;" horiz-adv-x="462" d="M74 401q2 20 2 64v59q0 65 1 175t1 171v103q4 86 4 176v176v170q40 4 76 4q133 0 149 -2h6h4q2 2 33 2h35q12 0 18 -6v-23v-14q0 -7 -0.5 -15t-0.5 -13l-1 -5h-6l-4 -2h-6h-41q-17 0 -41 -4l-104 4l-45 -2q0 -28 -2 -65.5t-2 -73.5q0 -15 -3 -27v-2l-2 -364v-2 q2 -29 2 -72v-59v-39v-31h70q72 0 84 2h25q5 0 8.5 -0.5t5 -1t2.5 -0.5q2 -2 2 -8v-8q0 -16 1 -28.5t1 -21.5v-8q0 -2 -2 -6q-10 -2 -27 -2h-104q-45 0 -63 -4q-2 0 -2 -3.5v-7.5t-1 -5q-6 -105 -6 -113v-129q0 -21 -2 -29v-2v-229l37 -2q4 0 14 1t21 1q88 0 100 2h25 q12 -2 24 -2h66q2 -16 2 -39q0 -13 -0.5 -23.5t-1 -16.5t-0.5 -7q-10 -2 -16 -2h-17q-11 2 -31 2h-12q-27 2 -133 2q-14 0 -45 -2t-47 -2q-29 0 -47 6v20q4 22 0 52q-2 37 -2 256q0 61 -2 75zM174 1602q1 16 4 26.5t8.5 20.5t6.5 14q18 12 30 12h2q5 -1 10.5 -6.5t8.5 -10.5 l2 -5q4 -10 4 -27q0 -18 -2 -20v-7q0 -13 -6.5 -25.5t-18.5 -12.5h-10q-6 0 -10 1l-4 1l-4 2h-2q-5 4 -12 18.5t-7 18.5zM293 1602q0 73 43 73h8q4 -1 9.5 -6.5t8.5 -10.5l3 -5q4 -10 4 -25q0 -67 -29 -67h-8l-15 2l-4 2h-2q-7 4 -12.5 16.5t-5.5 20.5z" />
<glyph unicode="&#xcc;" horiz-adv-x="221" d="M-29 1698q11 0 25 -0.5t27 -1t24 -1t18 -1.5h7l2 -2q1 0 10 -9l2 -2q13 -14 45 -63l2 -6l4 -2q9 -9 21 -25l16 -22q-12 -2 -16 -2q-12 0 -27.5 0.5t-26.5 0.5l-10 1l-2 4l-4 4q-85 99 -117 127zM82 223v170v690v27q0 58 2 72l-2 323q14 2 35 2h35v-67v-64v-100v-133v-137 v-9q0 -40 -2 -65v-2q0 -53 1 -164.5t1 -147.5v-215v-14v-252v-14l-2 -10v-2v-5v-21t0.5 -20.5t1 -17.5t0.5 -13v-5v-4v-2q0 -9 -0.5 -15t-1.5 -9v-3h-7q-41 0 -47 -2l-10 4q-2 16 -2 65z" />
<glyph unicode="&#xcd;" horiz-adv-x="221" d="M82 223v170v690v27q0 58 2 72l-2 323q14 2 35 2h35v-67v-64v-100v-133v-137v-9q0 -40 -2 -65v-2q0 -53 1 -164.5t1 -147.5v-215v-14v-252v-14l-2 -10v-2v-5v-21t0.5 -20.5t1 -17.5t0.5 -13v-5v-4v-2q0 -9 -0.5 -15t-1.5 -9v-3h-7q-41 0 -47 -2l-10 4q-2 16 -2 65z M98 1563l21 24l20 23l4 2l2 6q14 19 23 31l20 26q3 4 11 8l2 3q1 0 5 0.5t10.5 1t12.5 0.5q41 3 41 -2q0 -3 -16 -19q-4 -4 -13.5 -14.5t-15.5 -18.5q-11 -14 -27 -35t-22 -28l-4 -4l-2 -4q-1 0 -24.5 -1t-30.5 -1q-13 0 -17 2z" />
<glyph unicode="&#xce;" horiz-adv-x="221" d="M29 1569q14 41 20 47q9 25 41 96l98 -8q14 -35 28.5 -69t25.5 -60l-58 -14q-4 12 -4 18q-2 7 -5 14.5t-5 12t-2 6.5q-2 6 -9 19.5t-13 23.5l-7 10q-1 -1 -5.5 -1t-6.5 -3q-24 -37 -37 -96h-16q-9 0 -25.5 2t-19.5 2zM82 223v170v690v27q0 58 2 72l-2 323q14 2 35 2h35 v-67v-64v-100v-133v-137v-9q0 -40 -2 -65v-2q0 -53 1 -164.5t1 -147.5v-215v-14v-252v-14l-2 -10v-2v-5v-21t0.5 -20.5t1 -17.5t0.5 -13v-5v-4v-2q0 -9 -0.5 -15t-1.5 -9v-3h-7q-41 0 -47 -2l-10 4q-2 16 -2 65z" />
<glyph unicode="&#xcf;" horiz-adv-x="221" d="M37 1602q1 16 3.5 26.5t8 21t6.5 13.5q19 12 31 12h2q5 -1 10.5 -6.5t7.5 -10.5l3 -5q4 -10 4 -27q0 -18 -2 -20v-7q0 -13 -6.5 -25.5t-18.5 -12.5h-10q-6 0 -10 1l-5 1l-4 2h-2q-5 4 -11.5 18.5t-6.5 18.5zM82 223v170v690v27q0 58 2 72l-2 323q14 2 35 2h35v-67v-64 v-100v-133v-137v-9q0 -40 -2 -65v-2q0 -53 1 -164.5t1 -147.5v-215v-14v-252v-14l-2 -10v-2v-5v-21t0.5 -20.5t1 -17.5t0.5 -13v-5v-4v-2q0 -9 -0.5 -15t-1.5 -9v-3h-7q-41 0 -47 -2l-10 4q-2 16 -2 65zM156 1602q0 73 43 73h8q4 -1 9 -6.5t8 -10.5l3 -5q4 -10 4 -25 q0 -67 -28 -67h-8l-15 2l-4 2h-2q-7 4 -12.5 16.5t-5.5 20.5z" />
<glyph unicode="&#xd0;" horiz-adv-x="559" d="M6 801v43q27 -2 51 -2h21h12v100q0 31 -2 43v340l2 6l-2 99q2 14 2 32q0 9 -1 24t-1 25v7q18 4 55 4q4 0 23.5 1t23.5 1h39q16 -1 31 -2t23 -1.5t14 -0.5q39 0 43 -2h2q15 -2 33 -13h2l2 -2q46 -20 78 -78q14 -29 25.5 -95t11.5 -109v-4q4 -31 4 -127q0 -64 3 -133 t3 -113q1 -5 0.5 -9.5t-1.5 -13t-1 -14.5v-131l-2 -215q0 -16 -2 -44t-5 -68t-4 -64q0 -6 -2 -32t-3 -34t-3.5 -30t-5 -32l-6.5 -26t-10 -27t-13 -20l-24 -29q-11 -15 -35 -30q-18 -18 -43 -21h-2q-4 -1 -39 -10h-16q-18 -6 -54 -6q-20 0 -51 2t-37 2h-8l-2 2h-8q-2 0 -13 1 t-14 1q-2 16 -2 20v111l-2 27l-2 49q2 20 2 30v5q-2 12 -2 59v80q0 41 -2 55v184l-2 23v57q3 27 4 31v8q0 7 -1 19t-1 16h-16l-68 2v2v2zM158 1243q0 -51 1 -159t1 -160v-78q18 2 57 2q8 0 39 2h47v-2q0 -12 2 -34t2 -36q-7 0 -18.5 -1t-12.5 -1h-57l-49 -2h-10v-69 q0 -5 0.5 -11.5t1 -10.5t0.5 -5q0 -53 1 -179.5t1 -179.5l4 -231v-25h27q29 -2 57 -2h27h2v2q30 7 57 30t41 46q8 9 16 25q10 21 19 61q2 22 6 37v31q2 23 2 33q1 34 2 110t2 109l4 168q0 4 -1 18.5t-1 18.5v237q0 49 -4 155.5t-4 149.5q-9 93 -41.5 128.5t-118.5 35.5h-31 q-6 0 -14 -1l-8 -1h-49v-37l2 -133q0 -8 -2 -10v-31z" />
<glyph unicode="&#xd1;" horiz-adv-x="655" d="M68 4v25q0 138 3.5 443.5t4.5 395.5q2 31 2 121q2 18 2 55q1 13 0.5 20.5t-1 9.5t-1 3t-0.5 2v197l-2 221l2 2q4 2 16 2h25q20 -7 20 -8q2 -4 2 -6l13 -57q10 -30 27.5 -106t23.5 -95l24 -86l29 -111q1 -6 5.5 -22.5t6.5 -26.5l21 -70q46 -137 120 -405t105 -369v240v481 v543v98q45 0 68 -4v-72v-28v-404v-334v-679q-3 0 -12 1t-13 1.5t-12 2t-11.5 3t-9.5 3.5t-9 5t-6.5 7t-4.5 9h-2v2q-5 8 -8 16l-2 9v2l-2 2q-2 6 -12 31t-11 32l-131 388q-5 13 -15 57.5t-20 75.5l-8 28q-61 218 -74 271l-82 346q-2 0 -2 -62q0 -49 1.5 -132t3.5 -146l1 -64 v-102q0 -78 2 -98q-8 -131 -8 -379q-1 -51 -1.5 -121t-1 -110.5t-1.5 -57.5q-11 0 -65 4zM188 1597v2q0 40 27 72.5t68 32.5q36 -6 57 -35q3 -6 8.5 -19t9 -20.5t10 -17.5t13.5 -17l12 -4q33 0 33 41v29v6h49q4 -12 4 -22v-21q0 -15 -4 -27t-9.5 -21.5t-6.5 -12.5 q-13 -22 -58 -31q-25 0 -41 12v2q-28 21 -45 56q-2 4 -5.5 12.5t-5 11.5t-4.5 8.5t-5.5 7.5t-6.5 3.5t-9 1.5h-9q-28 -6 -28 -54q0 -5 2 -15.5t2 -14.5l-49 -7q-4 6 -4 17q0 6 -1 11t-1.5 7t-1.5 3.5t-1 2.5z" />
<glyph unicode="&#xd2;" horiz-adv-x="534" d="M68 565v193q0 80 2 96v64q2 27 2 116q1 29 2 83t2 79q0 1 1.5 27t1.5 32t2 30.5t4 34.5t5 31.5t7 33t9.5 27.5t12.5 27.5t16 20.5q20 24 49 41q46 19 90 19q36 0 78 -17q69 -30 90 -94q18 -53 23.5 -87t7.5 -87q0 -62 2 -107v-47q2 -27 2 -51v-133q1 -11 2 -35.5t2 -32.5 v-143q2 -41 2 -162v-139q0 -35 -2 -53v-56q-2 -47 -8 -110q-7 -57 -29 -100q-31 -61 -61.5 -84t-91.5 -23h-19q-58 3 -100 33q-30 20 -39 51v2q-14 28 -22 51q-19 82 -25 137q-14 118 -14 244q-2 6 -2 39q0 41 -2 49zM111 1698q18 0 42.5 -1t41.5 -2t18 -1v-2q4 -1 12 -9v-2 q9 -9 45 -63l4 -6l5 -2q0 -5 20 -25l16 -22q-12 -2 -16 -2q-13 0 -28.5 0.5t-26 1t-11.5 0.5v4l-4 4q-82 96 -118 127zM135 555q0 -48 8 -174q10 -117 11 -129q23 -223 143 -223q70 0 94 73v2q21 75 21 220q2 29 2 108v100q2 18 2 58q0 7 -1 21t-1 16v28q0 56 -2 70v123 q0 11 -1 86.5t-1 112.5q0 57 2 57v82q-2 129 -14.5 175.5t-65.5 76.5q-39 20 -72 20q-39 0 -66 -30t-37.5 -62.5t-11.5 -62.5q-1 -23 -4 -115.5t-4 -147.5q-2 -111 -2 -331v-154z" />
<glyph unicode="&#xd3;" horiz-adv-x="534" d="M68 565v193q0 80 2 96v64q2 27 2 116q1 29 2 83t2 79q0 1 1.5 27t1.5 32t2 30.5t4 34.5t5 31.5t7 33t9.5 27.5t12.5 27.5t16 20.5q20 24 49 41q46 19 90 19q36 0 78 -17q69 -30 90 -94q18 -53 23.5 -87t7.5 -87q0 -62 2 -107v-47q2 -27 2 -51v-133q1 -11 2 -35.5t2 -32.5 v-143q2 -41 2 -162v-139q0 -35 -2 -53v-56q-2 -47 -8 -110q-7 -57 -29 -100q-31 -61 -61.5 -84t-91.5 -23h-19q-58 3 -100 33q-30 20 -39 51v2q-14 28 -22 51q-19 82 -25 137q-14 118 -14 244q-2 6 -2 39q0 41 -2 49zM135 555q0 -48 8 -174q10 -117 11 -129 q23 -223 143 -223q70 0 94 73v2q21 75 21 220q2 29 2 108v100q2 18 2 58q0 7 -1 21t-1 16v28q0 56 -2 70v123q0 11 -1 86.5t-1 112.5q0 57 2 57v82q-2 129 -14.5 175.5t-65.5 76.5q-39 20 -72 20q-39 0 -66 -30t-37.5 -62.5t-11.5 -62.5q-1 -23 -4 -115.5t-4 -147.5 q-2 -111 -2 -331v-154zM238 1563l20 24l21 23l4 2l4 6l20 31l21 26q4 5 10 8l2 3q1 0 11 1t18 1q40 3 40 -1q-1 -5 -16 -20l-28 -33q-23 -32 -50 -63l-4 -4v-4q-1 0 -25.5 -1t-31.5 -1q-12 0 -16 2z" />
<glyph unicode="&#xd4;" horiz-adv-x="534" d="M68 565v193q0 80 2 96v64q2 27 2 116q1 29 2 83t2 79q0 1 1.5 27t1.5 32t2 30.5t4 34.5t5 31.5t7 33t9.5 27.5t12.5 27.5t16 20.5q20 24 49 41q46 19 90 19q36 0 78 -17q69 -30 90 -94q18 -53 23.5 -87t7.5 -87q0 -62 2 -107v-47q2 -27 2 -51v-133q1 -11 2 -35.5t2 -32.5 v-143q2 -41 2 -162v-139q0 -35 -2 -53v-56q-2 -47 -8 -110q-7 -57 -29 -100q-31 -61 -61.5 -84t-91.5 -23h-19q-58 3 -100 33q-30 20 -39 51v2q-14 28 -22 51q-19 82 -25 137q-14 118 -14 244q-2 6 -2 39q0 41 -2 49zM135 555q0 -48 8 -174q10 -117 11 -129 q23 -223 143 -223q70 0 94 73v2q21 75 21 220q2 29 2 108v100q2 18 2 58q0 7 -1 21t-1 16v28q0 56 -2 70v123q0 11 -1 86.5t-1 112.5q0 57 2 57v82q-2 129 -14.5 175.5t-65.5 76.5q-39 20 -72 20q-39 0 -66 -30t-37.5 -62.5t-11.5 -62.5q-1 -23 -4 -115.5t-4 -147.5 q-2 -111 -2 -331v-154zM168 1569q8 22 20 47q17 45 43 96l97 -8q11 -28 18.5 -45.5t16.5 -39t18 -44.5l-55 -14q-4 12 -7 18q-2 7 -4.5 14.5l-4 12t-1.5 6.5q-2 6 -9 19.5t-13.5 23.5t-7.5 10q-1 -1 -5 -1t-6 -3q-22 -30 -39 -96h-16q-7 0 -24 2t-21 2z" />
<glyph unicode="&#xd5;" horiz-adv-x="534" d="M68 565v193q0 80 2 96v64q2 27 2 116q1 29 2 83t2 79q0 1 1.5 27t1.5 32t2 30.5t4 34.5t5 31.5t7 33t9.5 27.5t12.5 27.5t16 20.5q20 24 49 41q46 19 90 19q36 0 78 -17q69 -30 90 -94q18 -53 23.5 -87t7.5 -87q0 -62 2 -107v-47q2 -27 2 -51v-133q1 -11 2 -35.5t2 -32.5 v-143q2 -41 2 -162v-139q0 -35 -2 -53v-56q-2 -47 -8 -110q-7 -57 -29 -100q-31 -61 -61.5 -84t-91.5 -23h-19q-58 3 -100 33q-30 20 -39 51v2q-14 28 -22 51q-19 82 -25 137q-14 118 -14 244q-2 6 -2 39q0 41 -2 49zM131 1602v24v2q0 41 26.5 73t67.5 32q41 -8 54 -35 q6 -9 17.5 -36t22.5 -38q4 -4 17 -4q33 0 33 41q0 7 -2 17.5t-2 11.5v6h53v-23v-20q0 -31 -21 -62q-12 -21 -57 -30q-21 0 -37 12v2q-26 16 -45 55q-1 3 -4.5 11t-4.5 10t-4 7.5t-5 7.5t-5 4.5t-6.5 3.5t-7.5 1h-12q-25 -6 -25 -53q0 -23 4 -31l-53 -6q0 13 -4 17zM135 555 q0 -48 8 -174q10 -117 11 -129q23 -223 143 -223q70 0 94 73v2q21 75 21 220q2 29 2 108v100q2 18 2 58q0 7 -1 21t-1 16v28q0 56 -2 70v123q0 11 -1 86.5t-1 112.5q0 57 2 57v82q-2 129 -14.5 175.5t-65.5 76.5q-39 20 -72 20q-39 0 -66 -30t-37.5 -62.5t-11.5 -62.5 q-1 -23 -4 -115.5t-4 -147.5q-2 -111 -2 -331v-154z" />
<glyph unicode="&#xd6;" horiz-adv-x="534" d="M68 565v193q0 80 2 96v64q2 27 2 116q1 29 2 83t2 79q0 1 1.5 27t1.5 32t2 30.5t4 34.5t5 31.5t7 33t9.5 27.5t12.5 27.5t16 20.5q20 24 49 41q46 19 90 19q36 0 78 -17q69 -30 90 -94q18 -53 23.5 -87t7.5 -87q0 -62 2 -107v-47q2 -27 2 -51v-133q1 -11 2 -35.5t2 -32.5 v-143q2 -41 2 -162v-139q0 -35 -2 -53v-56q-2 -47 -8 -110q-7 -57 -29 -100q-31 -61 -61.5 -84t-91.5 -23h-19q-58 3 -100 33q-30 20 -39 51v2q-14 28 -22 51q-19 82 -25 137q-14 118 -14 244q-2 6 -2 39q0 41 -2 49zM135 555q0 -48 8 -174q10 -117 11 -129 q23 -223 143 -223q70 0 94 73v2q21 75 21 220q2 29 2 108v100q2 18 2 58q0 7 -1 21t-1 16v28q0 56 -2 70v123q0 11 -1 86.5t-1 112.5q0 57 2 57v82q-2 129 -14.5 175.5t-65.5 76.5q-39 20 -72 20q-39 0 -66 -30t-37.5 -62.5t-11.5 -62.5q-1 -23 -4 -115.5t-4 -147.5 q-2 -111 -2 -331v-154zM176 1602q3 25 21 61q16 12 28 12h4q5 -1 10.5 -6.5t8.5 -10.5l2 -5q4 -10 4 -27q0 -18 -4 -20v-7q0 -38 -25 -38h-8q-17 0 -29 14.5t-12 26.5zM295 1602q0 73 45 73h8q4 -1 9 -6.5t9 -10.5l3 -5q4 -10 4 -25q0 -67 -29 -67h-8q-20 0 -30.5 12 t-10.5 29z" />
<glyph unicode="&#xd7;" horiz-adv-x="577" d="M45 385l84 102l135 162q-10 13 -69.5 96.5t-96.5 120.5l-45 56q0 2 -4 6h66l4 -2h12l10 -17q11 -15 43.5 -62.5t51.5 -70.5l59 -74l49 74q7 10 12 17.5t7 11t4 6.5q54 74 79 115h15q4 2 16 2h51l-49 -62q-8 -9 -23 -29.5t-26 -31.5l-108 -160l127 -158l83 -102h-49 q-24 0 -28 2l-4 6q-23 28 -77.5 98.5t-84.5 104.5l-148 -182q-7 -14 -12 -19v-2h-2l-4 -6q-12 -2 -29 -2h-49z" />
<glyph unicode="&#xd8;" horiz-adv-x="542" d="M2 -10l84 268v2q-14 130 -14 217q-2 6 -2 39q0 41 -2 49v193v26q0 56 2 70v64q2 27 2 116q2 42 3 97.5t2 82.5t5 67t12 83q6 51 27 81.5t61 55.5q46 19 90 19q36 0 78 -17q69 -30 90 -94l13 -39l30 90l15 41v2q2 7 4 10h6l4 3h10h21l-43 -136l-29 -94q0 -8 1 -25t1 -26 q0 -62 2 -107v-47q2 -27 2 -51v-133q1 -11 2 -35.5t2 -32.5v-143q2 -41 2 -162v-139q0 -35 -2 -53v-56q-2 -47 -8 -110q-3 -54 -27 -100q-31 -61 -61.5 -84t-91.5 -23h-19q-58 3 -100 33q-30 20 -39 51v2q-1 2 -18 51q-1 2 -11 49l-26 -73l-19 -60q-2 -4 -2.5 -6t-1 -6 t-2.5 -10h-53zM135 555q0 -45 4 -127l103 317q1 3 11.5 35.5t18.5 53.5l140 407q-5 92 -20 131.5t-62 65.5q-39 20 -72 20q-52 0 -80.5 -45t-30.5 -90v-2q0 -11 -1 -15t-1 -6q0 -41 -3.5 -131t-4.5 -129q-2 -104 -2 -305v-180zM152 295q4 -28 4 -43q26 -223 141 -223 q72 0 96 73v2q19 68 19 220q2 25 2 86v22v100q2 18 2 58q0 7 -1 21t-1 16v28q0 56 -2 70v123q0 11 -1 89.5t-1 115.5q0 51 2 51v2l-9 -29l-59 -192l-43 -135q-14 -45 -44 -134t-32 -96l-30 -96z" />
<glyph unicode="&#xd9;" horiz-adv-x="612" d="M68 1423v76v17q14 -2 24 -5q32 -3 35 -6l2 -2h4q1 -11 2 -47t2 -53v-326v-47v-2v-2q2 -25 2 -45q0 -31 -2 -47v-35q0 -20 1 -57t1 -60l2 -133q2 -87 11 -186q1 -19 4 -48.5t4 -37.5q1 -14 5 -57t6.5 -64t8 -53t13 -54.5t18.5 -39.5h2v-3q34 -45 88 -45q8 0 33 5h2l2 2 q32 8 59 32q40 41 56.5 77t19.5 91q4 60 8 170v178l2 84v191q0 139 -2 250v266v2v98h27l22 -2h2h11q2 -30 3.5 -100t2.5 -82v-106v-50q0 -35 1 -97t1 -93q0 -63 -2 -98q0 -40 1 -92.5t1 -67.5q0 -60 -2 -68v-2v-221l-2 -59q-3 -89 -12 -138q-16 -84 -47.5 -130.5 t-88.5 -90.5q-48 -22 -96 -22h-4q-40 0 -55 6q-16 2 -47 20q-27 18 -41 49q-22 56 -37 113q-13 67 -21 123q-2 38 -6 59q-12 132 -12 267q-1 111 -4 302t-4 261zM168 1681l98 -4l4 -2q2 -1 9 -8l4 -2q27 -36 45 -63v-7l4 -2q3 -2 10 -10t10 -14l17 -23q-12 -2 -17 -2l-61 2 l-4 4l-4 4q-91 106 -115 127z" />
<glyph unicode="&#xda;" horiz-adv-x="612" d="M68 1423v76v17q14 -2 24 -5q32 -3 35 -6l2 -2h4q1 -11 2 -47t2 -53v-326v-47v-2v-2q2 -25 2 -45q0 -31 -2 -47v-35q0 -20 1 -57t1 -60l2 -133q2 -87 11 -186q1 -19 4 -48.5t4 -37.5q1 -14 5 -57t6.5 -64t8 -53t13 -54.5t18.5 -39.5h2v-3q34 -45 88 -45q8 0 33 5h2l2 2 q32 8 59 32q40 41 56.5 77t19.5 91q4 60 8 170v178l2 84v191q0 139 -2 250v266v2v98h27l22 -2h2h11q2 -30 3.5 -100t2.5 -82v-106v-50q0 -35 1 -97t1 -93q0 -63 -2 -98q0 -40 1 -92.5t1 -67.5q0 -60 -2 -68v-2v-221l-2 -59q-3 -89 -12 -138q-16 -84 -47.5 -130.5 t-88.5 -90.5q-48 -22 -96 -22h-4q-40 0 -55 6q-16 2 -47 20q-27 18 -41 49q-22 56 -37 113q-13 67 -21 123q-2 38 -6 59q-12 132 -12 267q-1 111 -4 302t-4 261zM266 1542l21 25l20 22l4 2v6q23 29 25 31l18 27q3 4 11 8l2 2q1 0 10.5 1t17.5 1q40 3 41 -1q0 -3 -14 -19 q-19 -19 -29 -33q-11 -14 -26.5 -34t-22.5 -30l-4 -4l-4 -4q-1 0 -23.5 -1t-29.5 -1q-13 0 -17 2z" />
<glyph unicode="&#xdb;" horiz-adv-x="612" d="M68 1423v76v17q14 -2 24 -5q32 -3 35 -6l2 -2h4q1 -11 2 -47t2 -53v-326v-47v-2v-2q2 -25 2 -45q0 -31 -2 -47v-35q0 -20 1 -57t1 -60l2 -133q2 -87 11 -186q1 -19 4 -48.5t4 -37.5q1 -14 5 -57t6.5 -64t8 -53t13 -54.5t18.5 -39.5h2v-3q34 -45 88 -45q8 0 33 5h2l2 2 q32 8 59 32q40 41 56.5 77t19.5 91q4 60 8 170v178l2 84v191q0 139 -2 250v266v2v98h27l22 -2h2h11q2 -30 3.5 -100t2.5 -82v-106v-50q0 -35 1 -97t1 -93q0 -63 -2 -98q0 -40 1 -92.5t1 -67.5q0 -60 -2 -68v-2v-221l-2 -59q-3 -89 -12 -138q-16 -84 -47.5 -130.5 t-88.5 -90.5q-48 -22 -96 -22h-4q-40 0 -55 6q-16 2 -47 20q-27 18 -41 49q-22 56 -37 113q-13 67 -21 123q-2 38 -6 59q-12 132 -12 267q-1 111 -4 302t-4 261zM223 1548q5 16 21 47q19 49 43 97l96 -9q11 -28 18.5 -45.5t16.5 -39t18 -44.5l-55 -14q-2 5 -3 9l-1.5 6 t-1.5 4q-2 7 -4.5 14t-4 11.5t-1.5 6.5q-2 6 -9 19.5t-14 24t-8 10.5l-4 -1q-4 0 -6 -4q-22 -30 -39 -96h-17q-8 0 -24 2t-21 2z" />
<glyph unicode="&#xdc;" horiz-adv-x="612" d="M68 1423v76v17q14 -2 24 -5q32 -3 35 -6l2 -2h4q1 -11 2 -47t2 -53v-326v-47v-2v-2q2 -25 2 -45q0 -31 -2 -47v-35q0 -20 1 -57t1 -60l2 -133q2 -87 11 -186q1 -19 4 -48.5t4 -37.5q1 -14 5 -57t6.5 -64t8 -53t13 -54.5t18.5 -39.5h2v-3q34 -45 88 -45q8 0 33 5h2l2 2 q32 8 59 32q40 41 56.5 77t19.5 91q4 60 8 170v178l2 84v191q0 139 -2 250v266v2v98h27l22 -2h2h11q2 -30 3.5 -100t2.5 -82v-106v-50q0 -35 1 -97t1 -93q0 -63 -2 -98q0 -40 1 -92.5t1 -67.5q0 -60 -2 -68v-2v-221l-2 -59q-3 -89 -12 -138q-16 -84 -47.5 -130.5 t-88.5 -90.5q-48 -22 -96 -22h-4q-40 0 -55 6q-16 2 -47 20q-27 18 -41 49q-22 56 -37 113q-13 67 -21 123q-2 38 -6 59q-12 132 -12 267q-1 111 -4 302t-4 261zM221 1581q0 74 49 74q5 -1 10.5 -6.5t7.5 -10.5l3 -6q4 -10 4 -26v-21v-6q0 -13 -7 -26t-18 -13h-12 q-17 0 -27 13.5t-10 27.5zM340 1581q0 74 41 74h8q5 -1 10.5 -6.5t8.5 -10.5l2 -6q4 -10 4 -24q0 -15 -0.5 -23.5t-3 -20.5t-9 -18t-16.5 -6h-8q-18 0 -27.5 12.5t-9.5 28.5z" />
<glyph unicode="&#xdd;" horiz-adv-x="600" d="M27 1499q16 2 45 2q12 0 18 -1l6 -1q1 -4 2.5 -9.5t2.5 -8.5t1 -4q2 -24 20.5 -82t20.5 -76l25 -88l49 -144q11 -32 19.5 -60.5t14.5 -52t9 -34.5l41 -113q7 14 16.5 40t21.5 62.5t17 49.5q42 112 68 213l29 104q63 186 63 193v2h2q0 2 23 4q15 1 24.5 2.5t16.5 1.5h2 q-10 -35 -11 -41q-31 -96 -32 -100q-15 -56 -66 -213q-20 -65 -53 -160t-56.5 -159.5t-27.5 -73.5l-4 -9v-475q0 -4 -1 -14.5t-1 -15.5q0 -12 1 -23t1 -14v-115q-2 -8 -2 -49v-21q-2 -9 -3 -14v-2t-1 -2l-68 -2q-4 0 -6 2l2 324l2 102v80q2 37 2 69q2 15 2 35v142l-31 73 q-6 16 -6 21q-2 9 -4.5 16t-4 10t-1.5 4l-6 17q-6 18 -8 22q-3 13 -6 23l-23 68q-110 364 -145 495zM279 1522l16 24l20 23l4 2v6q23 29 25 31l29 39q4 4 12 8v2q16 4 86 4q-16 -16 -115 -131l-4 -4l-4 -4q-1 0 -23.5 -1t-29.5 -1q-12 0 -16 2z" />
<glyph unicode="&#xde;" horiz-adv-x="462" d="M84 242v82q2 12 2 24q0 6 -1 14l-1 9v61v17q0 37 2 45v2v200l2 64v35q0 64 2 84v112q2 25 2 43v123q2 25 2 39l-2 158q2 66 2 116v43h4l6 3h13h37q8 -1 9.5 -2t2.5 -1q0 -12 -1 -57t-1 -76q0 -23 4 -39v-133q84 0 143 -18q62 -18 86 -62q26 -43 29 -221v-116v-33 q0 -66 -2 -80v-2q0 -104 -14 -184q-12 -70 -39 -117q-15 -25 -52 -47q-21 -13 -100 -13h-61v-36v-109v-154v-2v-6l-2 -4l-4 -2l-9 2h-12q-5 0 -10.5 0.5t-8.5 0.5t-5 0.5t-3 0.5q-6 3 -9.5 5t-4.5 2.5t-2 0.5q0 162 -4 228zM160 397q27 -4 61 -4h4q7 0 20 -1t19 -1 q20 0 31 8q42 33 53 117q2 17 3 37t1.5 44.5t1.5 37.5q4 74 4 164q0 142 -5 205t-25 90q-32 36 -78 36h-2q-12 0 -32 2.5t-34 2.5h-14v-45q-2 -12 -2 -39v-54q0 -14 -4 -120v-3v-92q0 -45 2 -65z" />
<glyph unicode="&#xdf;" horiz-adv-x="985" d="M53 1309q0 68 24 117t68 69q43 21 105 21q61 0 95.5 -28t57.5 -79q21 -61 21 -129l4 -78v-24l-2 -7h-6h-10q-19 3 -33 5l-10 4h-5h-2q0 5 -1 41t-1 61q-1 49 -17.5 91t-41.5 61q-20 18 -47 18q-65 0 -94 -33q-6 -6 -10.5 -13t-10.5 -18.5t-8 -15.5l-2 -2q-8 -22 -12 -57 v-2l2 -41q8 -21 14.5 -54.5t11.5 -50.5q8 -32 29 -80q3 -6 14 -32t26.5 -58t33.5 -65q12 -23 34.5 -78.5t34.5 -79.5q2 -7 7 -17.5t6 -13.5q50 -106 71 -200q1 -3 4.5 -18.5t7.5 -35t7 -34.5q10 -88 10 -129v-2q0 -60 -6 -119q-10 -127 -62 -176q-42 -39 -112 -39h-8 q-43 1 -86.5 28t-57.5 52q-1 1 -7.5 12.5t-8.5 16t-7.5 17.5t-8 23.5t-5.5 27t-4 34.5l2 229h27q19 0 29 -2h6q0 -4 -0.5 -7.5t-1 -5.5t-0.5 -3v-2v-48q0 -18 -1 -59.5t-1 -56.5v-21q10 -82 33 -124t71 -42q45 0 57 2q84 21 84 201q2 8 2 23q0 27 -3 75t-3 68q-2 55 -51 199 q-48 143 -131 301l-14 32q-3 7 -7 15l-6.5 13t-3.5 9l-30 70q-47 125 -56 190q-1 15 -2 27l-1.5 18t-0.5 9zM510 1309v12q0 99 41 166q18 28 65 44.5t97 16.5q80 0 127 -53q37 -43 57 -127q18 -70 18 -147q-4 0 -4 -2h-2q-21 -7 -47 -7h-12q-8 78 -27 160v2v2q-7 31 -22 56 q-34 51 -84 51h-31h-2q-43 -3 -72.5 -50t-29.5 -112q0 -31 7.5 -61t15.5 -48.5t26.5 -54.5t27.5 -57q23 -57 97 -209l43 -109l96 -250q30 -58 43 -159q10 -82 10 -101q0 -80 -17.5 -153t-39.5 -105q-27 -44 -137 -57h-13q-59 0 -108 43q-48 39 -78 127q-29 72 -29 133v21h9 q10 -1 21 -2t18 -2t10 -1q15 -128 88 -208v-2q41 -41 76 -41q29 0 54.5 11.5t37.5 29.5q39 55 39 165q0 63 -9 125q-7 48 -24 106.5t-32 99.5t-44 116t-43 113q-14 34 -55.5 120.5t-48.5 102.5l-39 78q-45 93 -58 127v2v2q-8 20 -16 86z" />
<glyph unicode="&#xe0;" horiz-adv-x="569" d="M35 -4v12l2 2v8q0 15 4 39q3 28 12.5 99.5t12.5 105.5v2l10 117q7 51 15 144.5t11 123.5l15 148l8 69q3 46 14 154v4q0 32 6 53v2q6 65 21 180.5t20 165.5q3 15 7.5 37t8.5 40.5t5 21.5l41 2q20 -2 31 -2q36 -8 55 -8q9 -36 22 -102.5t23 -108.5q12 -49 20.5 -104 t17 -130.5t13.5 -107.5q8 -73 35 -234l14 -119l23 -188q1 -6 10 -96q6 -44 10 -90l29 -191q0 -5 1 -15t1 -12q3 -21 6 -30v-4h-65v6v10q-7 59 -19 145q-5 31 -9.5 82t-8.5 72l-17 125h-69l-4 2h-56q-14 -2 -18 -2h-37h-12q-6 0 -18.5 1t-18.5 1l-57 4l-11 -94 q-10 -65 -16 -143t-10 -113q-7 -50 -7 -78q-14 -2 -16 -2h-2q-28 -4 -53 -4zM86 1726l98 -4l4 -2q2 -1 9 -8l4 -2q27 -36 45 -63v-7l4 -2q3 -2 10 -10t10 -14l17 -23q-12 -2 -17 -2l-61 2l-4 4l-4 4q-91 106 -115 127zM160 498h71q36 -4 97 -4h2l98 2l-14 137 q-6 58 -26 203.5t-26 205.5q-12 60 -12 72v2l-8 58v4q-26 173 -61 272q-2 0 -6.5 5t-6.5 5t-2 -2q-13 -25 -21.5 -84t-8.5 -76v-2l-3 -2q-3 -14 -6.5 -50t-11 -108.5t-14.5 -136.5q-9 -98 -13 -159v-2q-22 -262 -24 -279v-16z" />
<glyph unicode="&#xe1;" horiz-adv-x="569" d="M35 -4v12l2 2v8q0 15 4 39q3 28 12.5 99.5t12.5 105.5v2l10 117q7 51 15 144.5t11 123.5l15 148l8 69q3 46 14 154v4q0 32 6 53v2q6 65 21 180.5t20 165.5q3 15 7.5 37t8.5 40.5t5 21.5l41 2q20 -2 31 -2q36 -8 55 -8q9 -36 22 -102.5t23 -108.5q12 -49 20.5 -104 t17 -130.5t13.5 -107.5q8 -73 35 -234l14 -119l23 -188q1 -6 10 -96q6 -44 10 -90l29 -191q0 -5 1 -15t1 -12q3 -21 6 -30v-4h-65v6v10q-7 59 -19 145q-5 31 -9.5 82t-8.5 72l-17 125h-69l-4 2h-56q-14 -2 -18 -2h-37h-12q-6 0 -18.5 1t-18.5 1l-57 4l-11 -94 q-10 -65 -16 -143t-10 -113q-7 -50 -7 -78q-14 -2 -16 -2h-2q-28 -4 -53 -4zM160 498h71q36 -4 97 -4h2l98 2l-14 137q-6 58 -26 203.5t-26 205.5q-12 60 -12 72v2l-8 58v4q-26 173 -61 272q-2 0 -6.5 5t-6.5 5t-2 -2q-13 -25 -21.5 -84t-8.5 -76v-2l-3 -2q-3 -14 -6.5 -50 t-11 -108.5t-14.5 -136.5q-9 -98 -13 -159v-2q-22 -262 -24 -279v-16zM225 1575l21 24l20 23l4 2v6q23 29 25 31l18 27q3 4 11 8l2 2q1 0 10.5 1t17.5 1q40 3 41 -1q0 -4 -14 -20q-22 -22 -29 -32q-11 -14 -26 -34t-23 -30l-4 -4l-4 -4q-1 0 -23.5 -1t-29.5 -1q-13 0 -17 2z " />
<glyph unicode="&#xe2;" horiz-adv-x="569" d="M35 -4v12l2 2v8q0 15 4 39q3 28 12.5 99.5t12.5 105.5v2l10 117q7 51 15 144.5t11 123.5l15 148l8 69q3 46 14 154v4q0 32 6 53v2q6 65 21 180.5t20 165.5q3 15 7.5 37t8.5 40.5t5 21.5l41 2q20 -2 31 -2q36 -8 55 -8q9 -36 22 -102.5t23 -108.5q12 -49 20.5 -104 t17 -130.5t13.5 -107.5q8 -73 35 -234l14 -119l23 -188q1 -6 10 -96q6 -44 10 -90l29 -191q0 -5 1 -15t1 -12q3 -21 6 -30v-4h-65v6v10q-7 59 -19 145q-5 31 -9.5 82t-8.5 72l-17 125h-69l-4 2h-56q-14 -2 -18 -2h-37h-12q-6 0 -18.5 1t-18.5 1l-57 4l-11 -94 q-10 -65 -16 -143t-10 -113q-7 -50 -7 -78q-14 -2 -16 -2h-2q-28 -4 -53 -4zM160 498h71q36 -4 97 -4h2l98 2l-14 137q-6 58 -26 203.5t-26 205.5q-12 60 -12 72v2l-8 58v4q-26 173 -61 272q-2 0 -6.5 5t-6.5 5t-2 -2q-13 -25 -21.5 -84t-8.5 -76v-2l-3 -2q-3 -14 -6.5 -50 t-11 -108.5t-14.5 -136.5q-9 -98 -13 -159v-2q-22 -262 -24 -279v-16zM166 1569q8 22 20 47q17 45 43 96l97 -8q11 -28 18.5 -45.5t16.5 -39t18 -44.5l-55 -14q-4 12 -7 18q-2 7 -4.5 14.5l-4 12t-1.5 6.5q-2 6 -9 19.5t-14 23.5t-8 10q0 -1 -4 -1t-6 -3q-22 -30 -39 -96 h-16q-7 0 -24 2t-21 2z" />
<glyph unicode="&#xe3;" horiz-adv-x="569" d="M35 -4v12l2 2v8q0 15 4 39q4 32 14 102.5t13 102.5v2l8 117q7 51 15 144.5t11 123.5l15 148l8 69q3 46 14 154v4q0 32 6 53v2q5 54 12.5 112t16.5 127t14 107q1 10 19 99l41 2q20 -2 31 -2q36 -8 55 -8q12 -43 26 -116t19 -95q12 -49 20.5 -104t17 -130.5t13.5 -107.5 q8 -73 35 -234l14 -119l23 -188q1 -6 10 -96q1 -5 3 -20t4.5 -33.5t4.5 -36.5l27 -191q0 -5 1 -15t1 -12q3 -21 6 -30v-4h-65v16q-7 59 -19 145q-3 21 -7.5 74.5t-10.5 79.5l-17 125h-69l-4 2h-56q-14 -2 -18 -2h-37h-12q-6 0 -18.5 1t-18.5 1l-57 4l-11 -94 q-8 -59 -13.5 -132.5t-12.5 -123.5q-7 -52 -7 -78q-14 -2 -16 -2h-2q-28 -4 -53 -4zM135 1642v3q0 40 26.5 72t67.5 32q39 -8 56 -35q5 -9 12 -25t13.5 -28t15.5 -21q4 -4 14 -4q35 0 35 41q0 7 -2 17.5t-2 11.5v6h51q2 -12 2 -22v-21q0 -29 -21 -61q-13 -22 -57 -31 q-19 0 -39 12v2q-28 19 -43 56q-2 4 -6 12.5t-6 11.5t-5.5 8.5t-6 7.5t-6.5 3.5t-9 1.5h-10q-27 -6 -27 -54q0 -10 5 -30l-52 -6q-1 3 -2 8.5t-2 7.5q0 6 -0.5 11t-0.5 7v4zM160 498h71q36 -4 97 -4h2l98 2l-14 137q-6 58 -26 203.5t-26 205.5q-12 60 -12 72v2l-8 58v4 q-28 189 -59 274q-2 -2 -3.5 -0.5t-4.5 5t-5 3.5t-4 -2q-11 -25 -20.5 -85t-9.5 -75v-2l-3 -2q-3 -14 -6.5 -50t-11 -108.5t-14.5 -136.5q-9 -98 -13 -159v-2q-22 -262 -24 -279v-16z" />
<glyph unicode="&#xe4;" horiz-adv-x="569" d="M35 -4v12l2 2v8q0 15 4 39q3 28 12.5 99.5t12.5 105.5v2l10 117q7 51 15 144.5t11 123.5l15 148l8 69q3 46 14 154v4q0 32 6 53v2q6 65 21 180.5t20 165.5q3 15 7.5 37t8.5 40.5t5 21.5l41 2q20 -2 31 -2q36 -8 55 -8q9 -36 22 -102.5t23 -108.5q12 -49 20.5 -104 t17 -130.5t13.5 -107.5q8 -73 35 -234l14 -119l23 -188q1 -6 10 -96q6 -44 10 -90l29 -191q0 -5 1 -15t1 -12q3 -21 6 -30v-4h-65v6v10q-7 59 -19 145q-5 31 -9.5 82t-8.5 72l-17 125h-69l-4 2h-56q-14 -2 -18 -2h-37h-12q-6 0 -18.5 1t-18.5 1l-57 4l-11 -94 q-10 -65 -16 -143t-10 -113q-7 -50 -7 -78q-14 -2 -16 -2h-2q-28 -4 -53 -4zM160 498h71q36 -4 97 -4h2l98 2l-14 137q-6 58 -26 203.5t-26 205.5q-12 60 -12 72v2l-8 58v4q-26 173 -61 272q-2 0 -6.5 5t-6.5 5t-2 -2q-13 -25 -21.5 -84t-8.5 -76v-2l-3 -2q-3 -14 -6.5 -50 t-11 -108.5t-14.5 -136.5q-9 -98 -13 -159v-2q-22 -262 -24 -279v-16zM176 1622q0 16 3 27t8 20t6 14q20 13 32 13q5 -1 10.5 -6.5t8.5 -11.5l2 -5q4 -10 4 -26v-21v-6q0 -13 -7 -26t-18 -13h-12l-12 2l-4 2h-4q-5 4 -11 18.5t-6 18.5zM295 1622q0 74 41 74h8 q5 -1 10.5 -6.5t7.5 -11.5l3 -5q4 -10 4 -24q0 -15 -0.5 -23.5t-3 -20.5t-9 -18t-16.5 -6h-8l-13 2l-4 2h-4q-6 4 -11 16.5t-5 20.5z" />
<glyph unicode="&#xe5;" horiz-adv-x="569" d="M35 -4v12l2 2v8q0 15 4 39q4 32 14 102.5t13 102.5v2l8 117q7 51 15 144.5t11 123.5l15 148l8 69q3 46 14 154v4q0 32 6 53v2q5 54 12.5 112t16.5 127t14 107q5 39 19 95q-15 12 -25 43q-8 32 -8 53v16h2q0 44 19 70.5t57 26.5h27q52 0 79 -26t27 -71v-10l2 -2v-47 q0 -54 -49 -70q3 -13 41 -198q12 -49 20.5 -104t17 -130.5t13.5 -107.5q8 -73 35 -234l14 -119l23 -188q1 -6 10 -96q7 -55 12 -90l27 -191q0 -5 1 -15t1 -12q3 -21 6 -30v-4h-65v16q-7 59 -19 145q-3 21 -7.5 74.5t-10.5 79.5l-17 125h-69l-4 2h-56q-14 -2 -18 -2h-37h-12 q-6 0 -18.5 1t-18.5 1l-57 4l-11 -94q-8 -59 -13.5 -132.5t-12.5 -123.5q-7 -52 -7 -78q-14 -2 -16 -2h-2q-28 -4 -53 -4zM160 498h71q36 -4 97 -4h2l98 2l-14 137q-6 58 -26 203.5t-26 205.5q-12 60 -12 72v2l-8 58v4q-29 194 -61 274q0 -3 -4 2l-7 6q-2 0 -4 -2 q-11 -25 -20.5 -85t-9.5 -75v-2l-3 -2q-3 -14 -6.5 -50t-11 -108.5t-14.5 -136.5q-9 -98 -13 -159v-2q-22 -262 -24 -279v-16zM221 1628q0 -37 2 -47q7 -22 17 -27q5 -3 23.5 -7.5t27.5 -4.5q12 0 20 4h2l23 13q10 15 10 28q0 5 -1 16.5t-1 18.5q0 49 -43 59q-17 7 -25 7 q-39 0 -47 -21q-4 -9 -8 -39z" />
<glyph unicode="&#xe6;" horiz-adv-x="729" d="M33 -33q2 10 2 23q6 25 6 43q10 47 14 123q3 26 11 69q1 8 4 27t4 27q5 20 7.5 36t2.5 17l8 57l45 287q9 70 20.5 131.5t28 135.5t25.5 120q1 8 4 23.5t4 19.5v2v2q1 9 2 15t1.5 8.5t0.5 3.5l2 2v4q8 39 25.5 111t21.5 102l52 160h12h53h19h36q95 0 113 -3h6h4q3 3 33 3 h37q14 0 16 -7v-22v-14q0 -7 -0.5 -15t-0.5 -13l-1 -5h-6l-4 -2h-6h-41q-17 0 -41 -4l-104 4l-46 -2q0 -28 -1 -83.5t-1 -90.5q0 -21 -2 -31v-2l-2 -365v-2q2 -31 2 -74v-55v-41v-30h70q72 0 84 2h25q5 0 8.5 -0.5t5 -1t2.5 -0.5q2 -2 2 -9v-8q0 -16 1 -28t1 -21v-8 q0 -2 -2 -6q-10 -2 -27 -2h-104q-41 0 -64 -5q-2 0 -2 -3.5t0.5 -7.5t-0.5 -5q-6 -105 -6 -113v-129q0 -20 -2 -28v-2l2 -230l37 -2q4 0 14 1t21 1q88 0 100 2h25q12 -2 24 -2h66q2 -16 2 -39q0 -13 -0.5 -23.5t-1 -16.5t-0.5 -7q-10 -2 -16 -2h-17q-11 2 -31 2h-12 q-23 2 -110 2h-23q-15 0 -46 -2t-46 -2q-29 0 -47 6v21q4 22 0 51q-4 70 -4 227l-35 2q-12 0 -21 3h-2h-20h-4q-12 -3 -13 -3q-45 0 -77 -4q-11 -12 -16.5 -36.5t-9.5 -68t-9 -69.5v-2l-2 -4q-5 -75 -21 -125q-8 -2 -12 -2h-27h-6q-18 0 -20 2zM164 360h33q44 -8 61 -8 q5 0 27 1t43 1q0 6 -1 14t-1 11q4 40 4 61q0 12 -1 33t-1 29v20q0 57 1 155t1 150v21v102q4 86 4 176v187l-10 -39q-1 -3 -10 -49t-20 -100t-13 -64q-49 -226 -60 -301l-16 -113q-7 -44 -13 -84t-14 -88q-4 -19 -6 -33.5t-2.5 -23t-1.5 -12.5z" />
<glyph unicode="&#xe7;" horiz-adv-x="512" d="M39 944q0 6 1 24t1 27q3 206 29 310q38 102 51 125q34 60 86 79q29 7 41 7h8q75 0 121 -52v-2q29 -23 43 -94q12 -46 12 -98q0 -31 -4 -45v-2v-2v-27q-19 5 -20 6q-24 4 -27 4q-8 3 -14 6q0 6 1 18t1 17q2 31 2 51v2q-3 59 -33 107q-30 41 -74 41q-20 0 -35 -10h-2l-4 -2 q-22 -19 -45 -58q-21 -34 -45 -137q-22 -128 -22 -223v-12v-72q0 -195 6 -256q3 -47 4.5 -161.5t9.5 -184.5q1 -14 2 -24t1 -14l1 -5q0 -96 23 -158q29 -74 90 -88l4 -2h4q28 0 55 18q60 52 60 199v129v29h24h21l4 -2h4h6q3 -43 4 -45q2 -10 2 -66v-51q0 -99 -10 -144 q-12 -48 -38 -76t-71 -46q-29 -11 -45 -11v-51q6 -6 26 -18t28 -21q28 -32 32 -69v-2q0 -41 -24 -62q-29 -29 -80 -29q-62 0 -82 23.5t-27 75.5v8v4h41q11 -72 66 -72h4q61 0 61 47q0 13 -14 41q-16 28 -67 39l-9 2q0 4 2 39.5t2 46.5h-26q-24 5 -43 21l-2 2h-2 q-14 8 -35 33l-2 2l-2 2q-16 19 -23 47q-15 55 -23.5 127.5t-11 120.5t-6.5 155q-1 12 -4 106t-6 167v2q-2 12 -2 57v27v2q-2 10 -2 53v23v2q-2 6 -2 20z" />
<glyph unicode="&#xe8;" d="M70 1458q0 34 4 58q36 4 73 4h17q17 0 60.5 -1t56.5 -1q125 0 145 2q11 -2 23 -2.5t16 -1.5h2h2h14v-7l2 -4q0 -13 -2 -31.5t-2 -29.5q-4 -1 -7 -1t-5 1h-2h-18q-85 0 -99 -4h-213l4 -266q4 -148 4 -224v-61v-2q2 -27 2 -45l3 -164h22q18 0 53 -1t54 -1h24h74h16 q2 -16 2 -39v-33v-4q0 -4 -217 -4l-31 -2l-4 -528l205 -5q72 -2 135 -2q4 -32 4 -57v-16h-36h-5l-4 -2h-51h-90l-225 4q-2 20 -2 59v115q0 72 4 190v154q2 53 2 106q0 54 -1 134t-1 120q-2 33 -2 135q-1 79 -2 152.5t-1.5 109t-0.5 46.5q0 35 -1 85t-1 64zM123 1726 q18 0 42.5 -1t41.5 -2t18 -1v-2q7 -2 13 -8v-2q9 -9 45 -63l4 -7l4 -2q0 -4 20 -24l17 -23q-12 -2 -17 -2q-13 0 -28 0.5t-25.5 1t-11.5 0.5v4l-4 4q-79 92 -119 127z" />
<glyph unicode="&#xe9;" d="M70 1458q0 34 4 58q36 4 73 4h17q17 0 60.5 -1t56.5 -1q125 0 145 2q11 -2 23 -2.5t16 -1.5h2h2h14v-7l2 -4q0 -13 -2 -31.5t-2 -29.5q-4 -1 -7 -1t-5 1h-2h-18q-85 0 -99 -4h-213l4 -266q4 -148 4 -224v-61v-2q2 -27 2 -45l3 -164h22q18 0 53 -1t54 -1h24h74h16 q2 -16 2 -39v-33v-4q0 -4 -217 -4l-31 -2l-4 -514l205 -4q72 -2 135 -2q4 -32 4 -58v-16h-36h-5l-4 -2h-51h-90l-225 4q-2 20 -2 59v115q0 58 4 176v154q2 53 2 106q0 54 -1 134t-1 120q-2 33 -2 135q-1 79 -2 152.5t-1.5 109t-0.5 46.5q0 35 -1 85t-1 64zM250 1591l20 25 q4 5 9 10.5t9 8.5l3 3l4 2l4 7l20 30l21 27q4 5 10 8l2 2q1 0 11 1t18 1q41 3 41 -1q0 -3 -16 -19l-29 -33q-32 -44 -49 -64l-4 -4v-4q-1 0 -26 -1t-32 -1q-12 0 -16 2z" />
<glyph unicode="&#xea;" d="M70 1458q0 34 4 58q36 4 73 4h17q17 0 60.5 -1t56.5 -1q125 0 145 2q11 -2 23 -2.5t16 -1.5h2h2h14v-7l2 -4q0 -13 -2 -31.5t-2 -29.5q-4 -1 -7 -1t-5 1h-2h-18q-85 0 -99 -4h-213l4 -266q4 -148 4 -224v-61v-2q2 -27 2 -45l3 -164h22q18 0 53 -1t54 -1h24h74h16 q2 -16 2 -39v-33v-4q0 -4 -217 -4l-31 -2l-4 -528l205 -5q72 -2 135 -2q4 -32 4 -57v-16h-36h-5l-4 -2h-51h-90l-225 4q-2 20 -2 59v115q0 72 4 190v154q2 53 2 106q0 54 -1 134t-1 120q-2 33 -2 135q-1 79 -2 152.5t-1.5 109t-0.5 46.5q0 35 -1 85t-1 64zM180 1597 q7 19 21 48q17 45 43 96l96 -8q11 -28 18.5 -45.5t16.5 -39t18 -44.5l-55 -15q-2 5 -3 9l-1.5 6t-1.5 4q-2 7 -4.5 14t-4 11.5t-1.5 6.5q-2 6 -9 19.5t-14 24t-8 10.5h-4.5t-5.5 -4q-21 -29 -39 -97h-17q-7 0 -24 2t-21 2z" />
<glyph unicode="&#xeb;" d="M70 1458q0 34 4 58q36 4 73 4h17q17 0 60.5 -1t56.5 -1q125 0 145 2q11 -2 23 -2.5t16 -1.5h2h2h14v-7l2 -4q0 -13 -2 -31.5t-2 -29.5q-4 -1 -7 -1t-5 1h-2h-18q-85 0 -99 -4h-213l4 -266q4 -148 4 -224v-61v-2q2 -27 2 -45l3 -164h22q18 0 53 -1t54 -1h24h74h16 q2 -16 2 -39v-33v-4q0 -4 -217 -4l-31 -2l-4 -528l205 -5q72 -2 135 -2q4 -32 4 -57v-16h-36h-5l-4 -2h-51h-90l-225 4q-2 20 -2 59v115q0 72 4 190v154q2 53 2 106q0 54 -1 134t-1 120q-2 33 -2 135q-1 79 -2 152.5t-1.5 109t-0.5 46.5q0 35 -1 85t-1 64zM188 1630 q3 26 21 62q17 12 29 12h4q5 -1 10 -6.5t8 -11.5l2 -5q4 -10 4 -26q0 -19 -4 -21v-6q0 -39 -24 -39h-9q-7 0 -11 1t-5 1l-4 2q-5 4 -13 18.5t-8 18.5zM307 1630q0 74 45 74h8q4 -1 9 -6.5t9 -11.5l3 -5q4 -10 4 -24q0 -68 -29 -68h-8l-16 2l-4 2q-8 4 -14.5 16.5t-6.5 20.5z " />
<glyph unicode="&#xec;" horiz-adv-x="227" d="M-45 1726q18 0 42.5 -1t41.5 -2t18 -1v-2q7 -2 13 -8v-2q9 -9 45 -63l4 -7l4 -2q0 -4 20 -24l17 -23q-12 -2 -17 -2q-13 0 -28 0.5t-25.5 1t-11.5 0.5v4l-4 4q-79 92 -119 127zM86 6v825v506q0 39 1 78l1 39v39v4h4l4 2h27q18 0 20 -2h4h7q0 -12 1 -58.5t1 -78.5 q0 -4 1 -18t1 -17v-182v-2q2 -20 2 -41l-4 -678q0 -375 -2 -414v-2v-10h-4h-17q-11 0 -21 1t-12 1z" />
<glyph unicode="&#xed;" horiz-adv-x="227" d="M82 1591l20 25q4 5 9 10.5t9 8.5l3 3l4 2l4 7l21 30l20 27q4 5 10 8l2 2q1 0 11 1t18 1q41 3 41 -1q0 -3 -16 -19l-29 -33q-32 -44 -49 -64l-4 -4v-4q-1 0 -26 -1t-32 -1q-12 0 -16 2zM86 6v825v506q0 39 1 78l1 39v39v4h4l4 2h27q18 0 20 -2h4h7q0 -12 1 -58.5t1 -78.5 q0 -4 1 -18t1 -17v-182v-2q2 -20 2 -41l-4 -678q0 -375 -2 -414v-2v-10h-4h-17q-11 0 -21 1t-12 1z" />
<glyph unicode="&#xee;" horiz-adv-x="227" d="M16 1552q5 16 21 47q19 49 43 97l96 -8q11 -28 18.5 -45.5t16.5 -39t18 -44.5l-55 -15q-2 5 -3 9l-1.5 6t-1.5 4q-2 7 -4.5 14t-4 11.5t-1.5 6.5q-2 6 -9 19.5t-14 24t-8 10.5q-1 -1 -4.5 -1t-5.5 -3q-21 -29 -39 -97h-17q-7 0 -23.5 2t-21.5 2zM86 6v825v506q0 39 1 78 l1 39v39v4h4l4 2h27q18 0 20 -2h4h7q0 -12 1 -58.5t1 -78.5q0 -4 1 -18t1 -17v-182v-2q2 -20 2 -41l-4 -678q0 -375 -2 -414v-2v-10h-4h-17q-11 0 -21 1t-12 1z" />
<glyph unicode="&#xef;" horiz-adv-x="227" d="M20 1606q3 25 21 61q17 12 29 12h4q5 -1 10 -6.5t8 -10.5l2 -5q4 -10 4 -27q0 -18 -4 -20v-6q0 -39 -24 -39h-9q-7 0 -11 1t-5 1l-4 2q-5 4 -13 18.5t-8 18.5zM86 6v825v506q0 39 1 78l1 39v39v4h4l4 2h27q18 0 20 -2h4h7q0 -12 1 -58.5t1 -78.5q0 -4 1 -18t1 -17v-182 v-2q2 -20 2 -41l-4 -678q0 -375 -2 -414v-2v-10h-4h-17q-11 0 -21 1t-12 1zM139 1606q0 73 45 73h9q4 -1 9 -6.5t8 -10.5l3 -5q4 -10 4 -25q0 -67 -29 -67h-8l-16 2l-4 2q-8 4 -14.5 16.5t-6.5 20.5z" />
<glyph unicode="&#xf0;" horiz-adv-x="524" d="M6 801v43q27 -2 51 -2h21h10v35v86q0 66 -2 84q2 23 2 67v14v396q0 5 6 8l17 4h2q27 0 41 -2q39 -3 43 -4q78 -13 120 -33q94 -43 119 -160q12 -63 19 -155q0 -26 2 -69t2 -69v-2q2 -16 2 -77l2 -88q1 -28 2 -60.5t1.5 -50.5t0.5 -29v-65q2 -31 2 -56v-167 q-3 -213 -25 -306q-18 -85 -63 -123q-39 -20 -58.5 -28.5t-55 -15.5t-83.5 -7h-43q-10 0 -14 4q-12 2 -23 2q-3 25 -4.5 82.5t-3 186.5t-2.5 198q0 59 -1 113t-2.5 114.5t-2.5 100.5h-12l-68 2v2v2zM152 1423q0 -73 4 -106v-90q0 -31 2 -39v-103v-239q9 0 29 1t30 1 q8 0 39 2h47v-2q0 -12 2 -34t2 -36q-7 0 -18.5 -1t-12.5 -1h-57l-49 -2h-12q0 -309 2 -366v-138q0 -20 -1 -74.5t-1 -82.5q0 -52 4 -72q8 0 24 -1t23 -1q43 0 70.5 9t52.5 34q49 44 59 143q10 85 10 176q2 16 2 39q0 117 -2 152v131v68v147q0 44 -4 123t-4 94q-2 45 -3 65.5 t-4 55.5t-7 52t-11 38t-17 32t-23 17q-35 25 -142 39l-34 4v-35z" />
<glyph unicode="&#xf1;" horiz-adv-x="665" d="M80 51v12v23v84v18q0 49 1 142t1 153v25v6l2 117v160q0 16 4 106v4v2q-2 14 -2 74v20q0 50 2 60v2v184v162v35v57h16h2q16 2 37 2h2q8 0 26 -1t34 -1q8 -12 16 -53.5t8 -42.5q89 -485 123 -653l17 -82l2 -2l1 -10q1 -10 1 -13q6 -24 6 -33h2l4 -20l16 -74l48 -178v-2 q6 -18 6 -27l10 -43l8 -29q8 -29 18 -63t17 -51q1 -5 14.5 -42t14.5 -40v51v37v53q2 12 2 33v2q0 9 -1 31.5t-1 36.5q0 18 1 43t1 59q0 83 -7 240v49v12q0 10 1.5 19t1.5 10v65q0 67 -1.5 209.5t-1.5 212.5q0 66 -2 109q-6 77 -6 100v2q-2 35 -2 86q4 0 16 1t15 1q23 0 31 2 q8 -2 8 -45v-39l6 -260q0 -39 2 -59v-64q2 -63 2 -258v-186q-2 -23 -2 -37v-2v-166q-2 -33 -2 -57v-4q0 -102 2 -170q4 -78 4 -162v-4l-2 -8h-6h-39h-4q-15 -5 -29 -5q-13 0 -21.5 1t-12.5 2.5t-6 2.5t-2 3l-1 2q-20 38 -61 200q-13 50 -27 112t-23 100t-14 53 q-24 74 -63 290q-1 5 -4.5 19l-9 36t-9.5 42q-1 7 -3 23.5t-3 23.5v2v2q-4 13 -6 26t-2 15l-92 493l-14 -4l2 -303v-2q0 -20 -2.5 -72t-2.5 -83v-3v-100q0 -40 3 -61q-3 -38 -3 -74v-14v-187q3 -135 3 -217q0 -40 1 -77t2.5 -78.5t2.5 -67.5v-76q-23 -4 -31 -4h-2q-6 0 -8 2 h-4h-21l-8 2q2 6 2 12v2q0 15 -2 21t-2 10zM197 1618v2q0 40 26.5 72t67.5 32q36 -7 57 -34q3 -6 8.5 -19t9 -20.5t10 -17.5t13.5 -17l12 -4q33 0 33 41v28v7h49q4 -12 4 -23v-20q0 -15 -4 -27t-9.5 -22t-6.5 -13q-13 -22 -57 -31q-24 0 -41 13v2q-29 22 -45 55 q-1 3 -4.5 11t-4.5 10t-4 7.5t-5 7.5t-5 4.5t-6.5 3.5t-7.5 1h-8q-29 -6 -29 -53q0 -5 2 -16t2 -15l-49 -6q-4 6 -4 16q0 8 -1 13.5t-2 8.5z" />
<glyph unicode="&#xf2;" horiz-adv-x="585" d="M61 719q0 16 2 24v2v158q0 36 3 76v2q0 17 -1.5 63t-1.5 72q0 82 9 125v2q6 117 41 195q25 52 55.5 77t71.5 31l6 2h10q66 0 111 -45q34 -34 67 -80q29 -45 51 -118q25 -75 32 -168t7 -228v-43v-301q0 -80 2 -92v-133q0 -47 -2 -86q-3 -108 -24 -166q-19 -51 -49.5 -75.5 t-81.5 -32.5q-44 -7 -88 -7q-47 6 -86 30t-64 58q-52 97 -59 258q0 22 -6 99q-3 30 -3 141v131v2q-2 16 -2 27zM88 1726q11 0 25 -0.5t26.5 -1t23.5 -1t18 -1.5h7l2 -2q5 -2 11 -8l2 -2q13 -14 45 -63l2 -7l4 -2q8 -8 20 -24l17 -23q-12 -2 -17 -2q-12 0 -27 0.5t-25 0.5 l-11 1l-2 4l-4 4q-85 99 -117 127zM129 1042q0 -8 1 -25.5t1 -25.5v-84v-24q0 -16 1 -35.5t1 -24.5v-192q3 -380 19 -434q11 -47 20 -64q11 -24 31 -51l2 -2q24 -27 55 -37q20 -8 62 -8q73 0 108 57.5t35 145.5v69v23v18q0 137 -2 209q-2 84 -2 168v276q0 14 -4 72 q-6 124 -21 184q-20 87 -100 185q-28 39 -64 39q-6 0 -18 -4q-60 -20 -88 -80q-16 -38 -23 -94v-3v-2q-14 -142 -14 -256z" />
<glyph unicode="&#xf3;" horiz-adv-x="585" d="M61 719q0 16 2 24v2v158q0 36 3 76v2q0 17 -1.5 63t-1.5 72q0 82 9 125v2q6 117 41 195q25 52 55.5 77t71.5 31l6 2h10q66 0 111 -45q34 -34 67 -80q29 -45 51 -118q25 -75 32 -168t7 -228v-43v-301q0 -80 2 -92v-133q0 -47 -2 -86q-3 -108 -24 -166q-19 -51 -49.5 -75.5 t-81.5 -32.5q-44 -7 -88 -7q-47 6 -86 30t-64 58q-52 97 -59 258q0 22 -6 99q-3 30 -3 141v131v2q-2 16 -2 27zM129 1042q0 -8 1 -25.5t1 -25.5v-84v-24q0 -16 1 -35.5t1 -24.5v-192q3 -380 19 -434q11 -47 20 -64q11 -24 31 -51l2 -2q24 -27 55 -37q20 -8 62 -8 q73 0 108 57.5t35 145.5v69v23v18q0 137 -2 209q-2 84 -2 168v276q0 14 -4 72q-6 124 -21 184q-20 87 -100 185q-28 39 -64 39q-6 0 -18 -4q-60 -20 -88 -80q-16 -38 -23 -94v-3v-2q-14 -142 -14 -256zM215 1591l21 25l20 22l4 2l2 7q4 6 23 30l20 27q4 5 10 8l2 2 q1 0 5 0.5t11 1t13 0.5q41 3 41 -1q0 -3 -16 -19q-4 -4 -13.5 -14.5t-15.5 -18.5q-11 -14 -26.5 -34t-22.5 -30l-4 -4l-2 -4q-1 0 -25 -1t-31 -1q-12 0 -16 2z" />
<glyph unicode="&#xf4;" horiz-adv-x="585" d="M61 719q0 16 2 24v2v158q0 36 3 76v2q0 17 -1.5 63t-1.5 72q0 82 9 125v2q6 117 41 195q25 52 55.5 77t71.5 31l6 2h10q66 0 111 -45q34 -34 67 -80q29 -45 51 -118q25 -75 32 -168t7 -228v-43v-301q0 -80 2 -92v-133q0 -47 -2 -86q-3 -108 -24 -166q-19 -51 -49.5 -75.5 t-81.5 -32.5q-44 -7 -88 -7q-47 6 -86 30t-64 58q-52 97 -59 258q0 22 -6 99q-3 30 -3 141v131v2q-2 16 -2 27zM129 1042q0 -8 1 -25.5t1 -25.5v-84v-24q0 -16 1 -35.5t1 -24.5v-192q3 -380 19 -434q11 -47 20 -64q11 -24 31 -51l2 -2q24 -27 55 -37q20 -8 62 -8 q73 0 108 57.5t35 145.5v69v23v18q0 137 -2 209q-2 84 -2 168v276q0 14 -4 72q-6 124 -21 184q-20 87 -100 185q-28 39 -64 39q-6 0 -18 -4q-60 -20 -88 -80q-16 -38 -23 -94v-3v-2q-14 -142 -14 -256zM168 1589q5 15 10 26t7.5 15.5t2.5 5.5q19 50 45 97l95 -9 q11 -28 18.5 -45.5t16.5 -39t18 -44.5l-53 -14q-4 13 -9 18q-8 32 -8 33q-3 10 -16 32t-16 22q0 -1 -1.5 -1t-3.5 -0.5t-4 -3.5q-14 -17 -20.5 -34t-20.5 -62h-16q-6 0 -22.5 2t-22.5 2z" />
<glyph unicode="&#xf5;" horiz-adv-x="585" d="M61 719q0 16 2 24v2v158q0 36 3 76v2q0 17 -1.5 63t-1.5 72q0 82 9 125v2q6 117 41 195q25 52 55.5 77t71.5 31l6 2h10q66 0 111 -45q34 -34 67 -80q29 -45 51 -118q25 -75 32 -168t7 -228v-43v-301q0 -80 2 -92v-133q0 -47 -2 -86q-3 -108 -24 -166q-19 -51 -49.5 -75.5 t-81.5 -32.5q-44 -7 -88 -7q-47 6 -86 30t-64 58q-52 97 -59 258q0 22 -6 99q-3 30 -3 141v131v2q-2 16 -2 27zM129 1042q0 -8 1 -25.5t1 -25.5v-84v-24q0 -16 1 -35.5t1 -24.5v-192q3 -380 19 -434q11 -47 20 -64q11 -24 31 -51l2 -2q24 -27 55 -37q20 -8 62 -8 q73 0 108 57.5t35 145.5v69v23v18q0 137 -2 209q-2 84 -2 168v276q0 14 -4 72q-6 124 -21 184q-20 87 -100 185q-28 39 -64 39q-6 0 -18 -4q-60 -20 -88 -80q-16 -38 -23 -94v-3v-2q-14 -142 -14 -256zM139 1647v2q0 40 26.5 72t67.5 32q39 -8 56 -35q5 -8 12 -24t13.5 -28 t15.5 -21q5 -5 14 -5q33 0 33 41q0 7 -1 17.5t-1 11.5v6h51q2 -12 2 -22v-21q0 -11 -2.5 -22t-5 -16t-7 -13t-5.5 -10q-13 -22 -58 -31q-23 0 -39 12v2q-27 18 -45 56q-1 3 -4.5 11t-4.5 10t-4 7.5t-5 7.5t-5 4.5t-6.5 3.5t-7.5 1h-10q-26 -6 -26 -54q0 -14 4 -30l-52 -6 q-1 3 -2 8.5t-2 7.5q0 8 -0.5 13.5t-0.5 8.5z" />
<glyph unicode="&#xf6;" horiz-adv-x="585" d="M61 719q0 16 2 24v2v158q0 36 3 76v2q0 17 -1.5 63t-1.5 72q0 82 9 125v2q6 117 41 195q25 52 55.5 77t71.5 31l6 2h10q66 0 111 -45q34 -34 67 -80q29 -45 51 -118q25 -75 32 -168t7 -228v-43v-301q0 -80 2 -92v-133q0 -47 -2 -86q-3 -108 -24 -166q-19 -51 -49.5 -75.5 t-81.5 -32.5q-44 -7 -88 -7q-47 6 -86 30t-64 58q-52 97 -59 258q0 22 -6 99q-3 30 -3 141v131v2q-2 16 -2 27zM129 1042q0 -8 1 -25.5t1 -25.5v-84v-24q0 -16 1 -35.5t1 -24.5v-192q3 -380 19 -434q11 -47 20 -64q11 -24 31 -51l2 -2q24 -27 55 -37q20 -8 62 -8 q73 0 108 57.5t35 145.5v69v23v18q0 137 -2 209q-2 84 -2 168v276q0 14 -4 72q-6 124 -21 184q-20 87 -100 185q-28 39 -64 39q-6 0 -18 -4q-60 -20 -88 -80q-16 -38 -23 -94v-3v-2q-14 -142 -14 -256zM154 1630q1 16 3.5 26.5t8 21.5t6.5 14q19 12 31 12h2q5 -1 10 -6.5 t7 -11.5l3 -5q4 -10 4 -26q0 -19 -2 -21v-6q0 -14 -6 -26.5t-18 -12.5h-10q-4 0 -7.5 0.5t-5 1t-2.5 0.5l-4 2h-2q-5 4 -11.5 18.5t-6.5 18.5zM272 1630q0 74 43 74h9q4 -1 9 -6.5t8 -11.5l3 -5q4 -10 4 -24q0 -68 -29 -68h-8l-14 2l-4 2h-2q-7 4 -13 16.5t-6 20.5z" />
<glyph unicode="&#xf7;" horiz-adv-x="538" d="M84 633v43q33 -2 123 -2h14l6 2q16 4 37 4h78q53 0 84 2h47v-2q0 -5 1 -15t1 -14h2v-2v-8v-31q-7 0 -18.5 -1t-12.5 -1h-36h-23l-4 2l-39 -2l-65 -2q-5 0 -20 -1t-17 -1q-27 0 -37 -2h-21l-98 2v2v2zM219 821q1 29 21 68q2 2 6.5 4.5t14 6.5t15.5 3q5 -1 11 -7t9 -12 l3 -5q4 -10 4 -23q0 -27 -2 -31v-6q0 -15 -7.5 -29t-21.5 -14h-10q-5 0 -8.5 0.5t-5 1t-2.5 0.5l-4 2h-2q-7 4 -14 20t-7 21zM223 381q1 29 21 68q3 2 7 4.5t14 6.5t16 3q5 -1 10.5 -7t8.5 -12l3 -6q4 -10 4 -22q0 -27 -2 -31v-6q0 -15 -7.5 -29t-21.5 -14h-10 q-5 0 -8.5 0.5t-5 1t-2.5 0.5l-4 2h-2q-7 4 -14 20t-7 21z" />
<glyph unicode="&#xf8;" horiz-adv-x="598" d="M25 4l75 217q-4 33 -8 98q0 22 -6 99q-2 20 -2 141v131v2q-2 16 -2 27q0 16 2 24v2v158q0 49 2 76v2q0 17 -1 64.5t-1 74.5q0 82 8 121v2q6 122 39 195q25 52 55.5 77t71.5 31l6 2h10q66 0 111 -45q37 -37 68 -80q20 -32 32 -67l9 20l32 125v2q2 7 4 10h7l4 3h10h20 q-4 -13 -16.5 -58t-22.5 -74q-9 -40 -24 -88q24 -73 30.5 -164t6.5 -223v-43v-301q0 -80 2 -92v-133q0 -47 -2 -86q-4 -111 -23 -166q-19 -51 -49.5 -75.5t-81.5 -32.5q-44 -7 -88 -7q-94 11 -149 88q-21 39 -31 72l-39 -106q-2 -6 -3.5 -13.5t-2.5 -9.5q-4 -2 -10 -2h-11 h-6h-8q-5 0 -9 0.5t-6 1t-3 0.5zM150 1042q0 -35 2 -51v-84v-24q0 -16 1 -35.5t1 -24.5v-192q0 -129 4 -269l4 9l125 374l30 89l45 139l7 14l2 12v2h2l26 76q5 11 11 41l12 37l31 94l4 11q-11 48 -34 87t-69 95q-28 39 -63 39q-7 0 -19 -4q-56 -18 -84 -80q-11 -28 -20 -94 v-3v-2q-18 -183 -18 -256zM164 250q3 -41 8 -53q14 -46 23 -64q12 -28 30 -51l2 -2q23 -26 56 -37q20 -8 61 -8q72 0 106.5 57.5t34.5 145.5v69v23v18q0 137 -2 209q-2 84 -2 168v276q0 14 -4 72q-3 49 -6 90l-82 -248l-43 -135l-37 -123q-2 -6 -7.5 -20t-8.5 -21 q-6 -25 -12 -34l-11 -31l-30 -96z" />
<glyph unicode="&#xf9;" horiz-adv-x="643" d="M78 1221q2 82 2 266v8q0 2 2 10h8h27h2q12 1 14 2h2t4.5 -1t3.5 -1v-73q-2 -78 -2 -218v-57q0 -487 23 -801q12 -143 31 -196q12 -50 58 -81.5t107 -31.5l17 -2h2q30 0 59 21q23 23 47 106q22 92 25 291v51q2 66 2 217v217v90v39l-2 109q-4 98 -4 301v16q41 -6 61 -6 v-145q2 -51 6 -289q0 -75 1 -165t1 -107q0 -57 1.5 -154t1.5 -152v-53q-1 -14 -0.5 -24t1 -11.5t-0.5 -7.5v-2v-2q-10 -168 -35 -274q-21 -76 -66 -117q-33 -23 -92 -23q-102 3 -176 60q-52 43 -76 110q-33 137 -43 365q-7 149 -12 715zM172 1669q18 0 42.5 -1t41.5 -2 t18 -1v-2q7 -2 13 -8v-2q7 -7 45 -64l4 -6l4 -2q0 -5 20 -25l17 -22q-12 -2 -17 -2q-13 0 -28 0.5t-25.5 1t-11.5 0.5v4l-4 4q-79 92 -119 127z" />
<glyph unicode="&#xfa;" horiz-adv-x="643" d="M78 1221q2 82 2 266v8q0 2 2 10h8h27h2q12 1 14 2h2t4.5 -1t3.5 -1v-73q-2 -78 -2 -218v-57q0 -487 23 -801q12 -143 31 -196q12 -50 58 -81.5t107 -31.5l17 -2h2q30 0 59 21q23 23 47 106q22 92 25 291v51q2 66 2 217v217v90v39l-2 109q-4 98 -4 301v16q41 -6 61 -6 v-145q2 -51 6 -289q0 -75 1 -165t1 -107q0 -57 1.5 -154t1.5 -152v-53q-1 -14 -0.5 -24t1 -11.5t-0.5 -7.5v-2v-2q-10 -168 -35 -274q-21 -76 -66 -117q-33 -23 -92 -23q-102 3 -176 60q-52 43 -76 110q-33 137 -43 365q-7 149 -12 715zM287 1550l20 25q4 5 9 10.5t8 8.5 l4 3l4 2l4 7l20 30l21 27q4 5 10 8l2 2q1 0 11 1t18 1q40 3 40 -1q0 -3 -16 -19l-28 -33q-28 -39 -49 -63l-5 -5v-4q-1 0 -25.5 -1t-31.5 -1q-12 0 -16 2z" />
<glyph unicode="&#xfb;" horiz-adv-x="643" d="M78 1221q2 82 2 266v8q0 2 2 10h8h27h2q12 1 14 2h2t4.5 -1t3.5 -1v-73q-2 -78 -2 -218v-57q0 -487 23 -801q12 -143 31 -196q12 -50 58 -81.5t107 -31.5l17 -2h2q30 0 59 21q23 23 47 106q22 92 25 291v51q2 66 2 217v217v90v39l-2 109q-4 98 -4 301v16q41 -6 61 -6 v-145q2 -51 6 -289q0 -75 1 -165t1 -107q0 -57 1.5 -154t1.5 -152v-53q-1 -14 -0.5 -24t1 -11.5t-0.5 -7.5v-2v-2q-10 -168 -35 -274q-21 -76 -66 -117q-33 -23 -92 -23q-102 3 -176 60q-52 43 -76 110q-33 137 -43 365q-7 149 -12 715zM238 1528q8 22 20 47q17 45 43 96 l96 -8q14 -35 28.5 -69t25.5 -60l-56 -14l-6 18q-2 7 -4.5 14.5l-4 12t-1.5 6.5q-2 6 -9 19.5t-14 23.5t-8 10h-4q-4 0 -6 -4q-22 -30 -39 -96h-16q-8 0 -24.5 2t-20.5 2z" />
<glyph unicode="&#xfc;" horiz-adv-x="643" d="M78 1221v200v66v8q0 2 2 10h8h27h2q12 1 14 2h2t4.5 -1t3.5 -1v-73v-162v-56v-57q0 -487 23 -801q11 -136 33 -196q12 -50 58 -81.5t107 -31.5l17 -2h2q30 0 59 21q23 23 47 106q20 96 23 291v51q2 57 2 191v247v84v41l-2 109q-6 147 -6 301v16q41 -6 61 -6l2 -145 q2 -51 6 -289q0 -75 1 -165t1 -107q0 -57 1.5 -154t1.5 -152v-53q-1 -14 -0.5 -24t1 -11.5t-0.5 -7.5v-2v-2q-11 -180 -33 -274q-21 -76 -66 -117q-33 -23 -92 -23q-102 3 -176 60q-52 43 -76 110q-35 136 -45 365q-7 149 -12 715zM207 1577q3 27 20 61q2 2 6 4.5t13 6 t14 2.5t10.5 -6.5t7.5 -10.5l3 -6q4 -8 4 -20q0 -25 -4 -27v-6q0 -39 -25 -39h-8q-7 0 -11.5 1t-5.5 1l-4 2q-5 4 -12.5 18.5t-7.5 18.5zM326 1577q0 74 45 74h8q4 -1 9 -6.5t8 -10.5l3 -6q4 -7 4 -24q0 -16 -0.5 -23.5t-2.5 -20.5t-8.5 -18.5t-16.5 -5.5h-8l-17 2l-4 2 q-8 4 -14 16t-6 21z" />
<glyph unicode="&#xfd;" horiz-adv-x="481" d="M31 1493q0 6 4 10q3 3 8.5 3.5t15 -0.5t13.5 -1q18 0 22 -4q8 -8 10 -22q0 -7 5 -64q12 -115 36 -211l9 -47v-2q4 -21 8 -33q9 -29 29.5 -98t35 -117.5t15.5 -48.5q4 0 16 43t16 64q7 17 14 51.5t9 42.5l10 43l25 94q9 42 29.5 122t27.5 109l6 33q3 9 4.5 16.5t2 14.5 t1.5 10q2 17 25 17h25q16 0 16 -9q0 -6 -4 -14l-8 -45l-23 -92q-89 -354 -96 -379v-2q-13 -54 -19 -68l-2 -4v-2q-8 -40 -34 -143l-4 -15v-2q0 -57 -3 -94v-133q-2 -35 -2 -53l-2 -96q-1 -27 -2 -100.5t-2 -102.5q-2 -45 -2 -131q0 -7 0.5 -15.5t0.5 -11t-1.5 -6t-5 -4 t-10.5 -0.5l-19 2q-2 1 -7 2t-7 2q-8 1 -11.5 5.5t-3.5 9.5t1.5 15t1.5 17l2 324v41v92l2 248q-4 30 -16 65l-15 47q-1 3 -4 13t-4 16v2l-2 2q-2 6 -8 29l-2 2q-5 15 -9.5 27t-7 20.5t-2.5 9.5v2q-1 3 -4.5 18.5t-5.5 22.5l-12 35q-19 66 -33 127t-19 87.5t-16.5 102 t-15.5 97.5q-2 6 -2 14zM188 1530l17 24l20 23l4 2v6q23 29 25 31l29 39q4 4 12 8v2q16 4 86 4q-16 -16 -115 -131l-4 -4l-4 -4q-1 0 -23.5 -1t-29.5 -1q-13 0 -17 2z" />
<glyph unicode="&#xfe;" horiz-adv-x="462" d="M84 242v82q2 12 2 24q0 6 -1 14l-1 9v61v17q0 37 2 45v2v200l2 64v35q0 64 2 84v30q2 25 2 43v123q2 25 2 39l-2 240q2 66 2 116v43h4l6 3h13h37q8 -1 9.5 -2t2.5 -1q0 -12 -1 -57t-1 -76q0 -23 4 -39v-215q84 0 143 -18q62 -18 86 -61q26 -43 29 -222v-34v-33 q0 -66 -2 -80v-2q0 -104 -14 -184q-12 -70 -39 -117q-15 -25 -52 -47q-21 -13 -100 -13h-61v-36v-109v-154v-2v-6l-2 -4l-4 -2l-9 2h-12q-5 0 -10.5 0.5t-8.5 0.5t-5 0.5t-3 0.5q-6 3 -9.5 5t-4.5 2.5t-2 0.5q0 162 -4 228zM160 397q27 -4 61 -4h4q7 0 20 -1t19 -1 q20 0 31 8q42 33 53 117q2 17 3 37t1.5 44.5t1.5 37.5q4 74 4 164q0 120 -4.5 152.5t-25.5 60.5q-33 37 -78 37h-2q-12 0 -32 2t-34 2h-14v-45q-2 -12 -2 -21v-16q0 -6 -0.5 -17t-1.5 -32.5t-2 -44.5v-3v-92q0 -45 2 -65z" />
<glyph unicode="&#xff;" horiz-adv-x="481" d="M31 1493q0 6 4 10q3 3 8.5 3.5t15 -0.5t13.5 -1q18 0 22 -4q8 -8 10 -22q0 -7 5 -64q12 -115 36 -211l9 -47v-2q4 -21 8 -33q9 -29 29.5 -98t35 -117.5t15.5 -48.5q4 0 16 43t16 64q7 17 14 51.5t9 42.5l10 43l25 94q9 42 29.5 122t27.5 109l6 33q3 9 4.5 16.5t2 14.5 t1.5 10q2 17 25 17h25q16 0 16 -9q0 -6 -4 -14l-8 -45l-23 -92q-89 -354 -96 -379v-2q-13 -54 -19 -68l-2 -4v-2q-8 -40 -34 -143l-4 -15v-2q0 -57 -3 -94v-133q-2 -35 -2 -53l-2 -96q-1 -27 -2 -100.5t-2 -102.5q-2 -45 -2 -131q0 -7 0.5 -15.5t0.5 -11t-1.5 -6t-5 -4 t-10.5 -0.5l-19 2q-2 1 -7 2t-7 2q-8 1 -11.5 5.5t-3.5 9.5t1.5 15t1.5 17l2 324v41v92l2 248q-4 30 -16 65l-15 47q-1 3 -4 13t-4 16v2l-2 2q-2 6 -8 29l-2 2q-5 15 -9.5 27t-7 20.5t-2.5 9.5v2q-1 3 -4.5 18.5t-5.5 22.5l-12 35q-19 66 -33 127t-19 87.5t-16.5 102 t-15.5 97.5q-2 6 -2 14zM160 1581q0 16 3 27t7.5 20t5.5 14q21 13 33 13q5 -1 10 -6.5t7 -10.5l3 -6q4 -10 4 -26v-21v-6q0 -13 -6.5 -26t-17.5 -13h-12l-13 2l-4 2h-4q-5 4 -10.5 18.5t-5.5 18.5zM279 1581q0 74 40 74h9q5 -1 10 -6.5t8 -10.5l2 -6q4 -10 4 -24 q0 -16 -0.5 -23.5t-2.5 -20.5t-8.5 -18.5t-16.5 -5.5h-9l-12 2l-4 2h-4q-6 4 -11 16.5t-5 20.5z" />
<glyph unicode="&#x152;" horiz-adv-x="813" d="M68 565v193v26q0 56 2 70v64q2 27 2 116q2 42 3 97.5t2 82.5t5 67t12 83q6 51 27 81.5t61 55.5q46 19 90 19q36 0 78 -17q47 -19 72 -57v49q40 4 76 4h37q100 0 112 -2h6h4q2 2 33 2q15 -1 25.5 0t17.5 0t10 -6v-23v-14q0 -7 -0.5 -15t-0.5 -13l-1 -5h-6l-4 -2h-6h-41 q-17 0 -41 -4l-104 4l-45 -2q0 -29 -1 -65t-1 -70q0 -16 -3 -31v-2l-2 -364v-2q2 -31 2 -74v-55v-41v-31h70q72 0 84 2h25q5 0 8.5 -0.5t5 -1t2.5 -0.5q2 -2 2 -8v-8q0 -16 1 -28.5t1 -21.5v-8q0 -2 -2 -6q-10 -2 -27 -2h-104q-45 0 -63 -4q-2 0 -2 -3.5v-7.5t-1 -5 q-6 -105 -6 -113v-84v-45q0 -21 -2 -29v-2v-33l2 -196l37 -2q4 0 14 1t21 1q88 0 100 2h25q11 -2 25 -2h65q2 -16 2 -39q0 -13 -0.5 -23.5t-1 -16.5t-0.5 -7q-10 -2 -16 -2h-17q-11 2 -30 2h-13q-23 2 -110 2h-23q-15 0 -46 -2t-46 -2q-29 0 -47 6v20v5q-22 -34 -51 -49 t-78 -15h-19q-58 3 -100 33q-30 20 -39 51v2q-1 2 -18 51q-23 100 -27 137q-18 151 -18 244q-2 6 -2 39q0 41 -2 49zM135 555q0 -48 8 -174q1 -15 6.5 -60.5t6.5 -68.5q26 -223 141 -223q72 0 96 73v2q19 68 19 220q2 23 2 86v22v100q2 16 2 50q0 8 -1 25t-1 20v28 q0 56 -2 70v123q0 11 -1 89.5t-1 115.5q0 51 2 51v82q-3 130 -16 176t-66 76q-39 20 -72 20q-52 0 -80.5 -45t-30.5 -90v-2q0 -12 -1 -16t-1 -5q0 -41 -3.5 -131t-4.5 -129q-2 -104 -2 -307v-178z" />
<glyph unicode="&#x153;" horiz-adv-x="907" d="M61 721q0 14 2 22v2v158q0 36 3 76v2q0 17 -1.5 64.5t-1.5 74.5q0 78 9 121v2q6 122 39 195q25 52 55.5 77t71.5 31l6 2h10q66 0 111 -45q34 -34 67 -80l12 -18v61q0 40 2 50q36 4 74 4h17h2q17 0 59 -1t55 -1q126 0 146 2q11 -2 23 -2.5t16 -1.5h2h2h14v-7l2 -4 q0 -13 -2 -33.5t-2 -31.5h-8h-6h-19q-84 0 -98 -4h-207l6 -262q4 -148 4 -224v-61v-2q2 -27 2 -45l2 -164h25q16 0 48 -1t50 -1h25h74h16q2 -14 2 -39v-33v-4q0 -4 -211 -4l-31 -2l-2 -270v-5v-253l199 -5h6q40 0 81.5 -1t47.5 -1q4 -32 4 -57v-16h-37h-4l-4 -2h-51h-90 l-225 4q0 4 -1 11.5t-1 10.5q-30 -24 -80 -30q-44 -7 -88 -7q-47 6 -86 30t-64 58q-55 101 -61 258q0 22 -6 99q-3 30 -3 141v131v2q-2 18 -2 29zM129 1042q0 -35 2 -51v-84v-24q0 -16 1 -35.5t1 -24.5v-192q3 -380 19 -434q15 -51 22 -64q11 -24 31 -51l2 -2q24 -27 55 -37 q18 -8 57 -8h5q93 0 127 96v31v53q0 94 2 137v154q2 45 2 96v10q0 54 -1 134t-1 120q-2 33 -2 135q-2 96 -2 220q-2 5 -8 19t-7 22q-27 93 -100 180q-27 37 -64 37q-12 0 -18 -2q-56 -18 -84 -80q-13 -31 -21 -94v-3v-2q-18 -183 -18 -256z" />
<glyph unicode="&#x178;" horiz-adv-x="600" d="M27 1499q16 2 45 2q12 0 18 -1l6 -1q1 -4 2.5 -9.5t2.5 -8.5t1 -4q2 -24 20.5 -82t20.5 -76l25 -88l49 -144q11 -32 19.5 -60.5t14.5 -52t9 -34.5l41 -113q7 14 16.5 40t21.5 62.5t17 49.5q42 112 68 213l29 104q63 186 63 193v2h2q0 2 23 4q15 1 24.5 2.5t16.5 1.5h2 q-10 -35 -11 -41q-31 -96 -32 -100q-15 -56 -66 -213q-20 -65 -53 -160t-56.5 -159.5t-27.5 -73.5l-4 -9v-475q0 -4 -1 -14.5t-1 -15.5q0 -12 1 -23t1 -14v-115q-2 -8 -2 -49v-21q-2 -9 -3 -14v-2t-1 -2l-68 -2q-4 0 -6 2l2 324l2 102v80q2 37 2 69q2 15 2 35v142l-31 73 q-6 16 -6 21q-2 9 -4.5 16t-4 10t-1.5 4l-6 17q-6 18 -8 22q-3 13 -6 23l-23 68q-110 364 -145 495zM188 1544q0 16 3 27t8 20.5t6 14.5q21 12 33 12q5 -1 10 -6.5t8 -11.5l2 -5q4 -10 4 -26v-21v-6q0 -13 -6.5 -26t-17.5 -13h-13l-12 2l-4 2h-4q-5 4 -11 18.5t-6 18.5z M307 1544q0 74 41 74h8q5 -1 10.5 -6.5t7.5 -11.5l3 -5q4 -10 4 -24q0 -15 -0.5 -23.5t-3 -20.5t-9 -18t-16.5 -6h-8l-12 2l-4 2h-4q-6 4 -11.5 16.5t-5.5 20.5z" />
<glyph unicode="&#x2c6;" horiz-adv-x="309" d="M49 1368q5 16 21 47q17 45 43 96l96 -8q11 -28 18.5 -45.5t16.5 -39t18 -44.5l-55 -14q-2 5 -3 9t-1.5 5.5t-1.5 3.5q-2 7 -4.5 14.5t-4.5 12t-2 6.5q-2 6 -9 19.5t-13.5 23.5t-7.5 10h-4q-4 0 -6 -4q-22 -30 -39 -96h-17q-8 0 -24.5 2t-20.5 2z" />
<glyph unicode="&#x2dc;" horiz-adv-x="475" d="M94 1423v2q0 41 26.5 73t67.5 32q39 -8 56 -35q5 -9 12 -25t13.5 -28t15.5 -21q4 -4 14 -4q33 0 33 41q0 7 -1 17.5t-1 11.5v6h51q2 -12 2 -23v-20q0 -11 -2.5 -22t-5.5 -16.5t-7.5 -13t-5.5 -9.5q-13 -22 -57 -31q-23 0 -39 12v2q-27 18 -45 55q-2 4 -5 11t-4.5 10l-4 8 t-4.5 7.5t-5 5t-6.5 3.5t-7.5 1h-10q-27 -6 -27 -54q0 -10 5 -30l-52 -7q-1 3 -2 9t-2 8q0 6 -0.5 11t-0.5 7t-0.5 3.5t-0.5 2.5z" />
<glyph unicode="&#x2000;" horiz-adv-x="876" />
<glyph unicode="&#x2001;" horiz-adv-x="1753" />
<glyph unicode="&#x2002;" horiz-adv-x="876" />
<glyph unicode="&#x2003;" horiz-adv-x="1753" />
<glyph unicode="&#x2004;" horiz-adv-x="584" />
<glyph unicode="&#x2005;" horiz-adv-x="438" />
<glyph unicode="&#x2006;" horiz-adv-x="292" />
<glyph unicode="&#x2007;" horiz-adv-x="292" />
<glyph unicode="&#x2008;" horiz-adv-x="219" />
<glyph unicode="&#x2009;" horiz-adv-x="350" />
<glyph unicode="&#x200a;" horiz-adv-x="97" />
<glyph unicode="&#x2010;" horiz-adv-x="487" d="M57 633v43q33 -2 123 -2h15l6 2q16 4 37 4h77q53 0 84 2h47v-2q0 -5 1.5 -15t1.5 -14h2v-2v-8v-31q-7 0 -18.5 -1t-12.5 -1h-37h-23l-4 2l-39 -2l-65 -2q-6 0 -20 -1t-17 -1q-27 0 -37 -2h-20l-99 2v2v2z" />
<glyph unicode="&#x2011;" horiz-adv-x="487" d="M57 633v43q33 -2 123 -2h15l6 2q16 4 37 4h77q53 0 84 2h47v-2q0 -5 1.5 -15t1.5 -14h2v-2v-8v-31q-7 0 -18.5 -1t-12.5 -1h-37h-23l-4 2l-39 -2l-65 -2q-6 0 -20 -1t-17 -1q-27 0 -37 -2h-20l-99 2v2v2z" />
<glyph unicode="&#x2012;" horiz-adv-x="487" d="M57 633v43q33 -2 123 -2h15l6 2q16 4 37 4h77q53 0 84 2h47v-2q0 -5 1.5 -15t1.5 -14h2v-2v-8v-31q-7 0 -18.5 -1t-12.5 -1h-37h-23l-4 2l-39 -2l-65 -2q-6 0 -20 -1t-17 -1q-27 0 -37 -2h-20l-99 2v2v2z" />
<glyph unicode="&#x2013;" horiz-adv-x="933" d="M84 633v43q62 0 200 4t212 4q47 0 141 -4q98 -2 207 -2h28v-68q-8 0 -17.5 -1t-10.5 -1h-37q-362 0 -602 -6h-21l-98 2v2v2z" />
<glyph unicode="&#x2014;" horiz-adv-x="1271" d="M96 604v76q128 -8 303 -8q17 0 533 6q64 0 140 -1t91 -1h35v-66q-6 0 -17 -1t-16 -1h-32h-297q-175 0 -183 2h-2l-39 -2l-65 -2q-70 0 -164 -2q-148 0 -164 -2h-22z" />
<glyph unicode="&#x2018;" horiz-adv-x="243" d="M96 1526h84v-8l2 -5q0 -2 -6 -155l-4 -131q-14 0 -36.5 -2t-31.5 -2q0 32 -4 110q0 23 -1 68t-1 69v3q-2 29 -2 53z" />
<glyph unicode="&#x2019;" horiz-adv-x="221" d="M68 1526h84v-8l2 -5q0 -21 -3 -80.5t-4 -74.5l-4 -131q-14 0 -36 -2t-31 -2q0 32 -4 110q0 23 -1 68t-1 69v3q-2 29 -2 53z" />
<glyph unicode="&#x201a;" horiz-adv-x="223" d="M86 231v2v54h64v-8l2 -5q0 -1 0.5 -6.5t1 -13t0.5 -12.5v-4q4 -8 4 -27v-27q0 -4 1 -17.5t1 -16.5v-31l2 -131q-14 0 -38.5 -2t-33.5 -2q2 10 2 22l-4 88q0 24 -1 68.5t-1 68.5z" />
<glyph unicode="&#x201c;" horiz-adv-x="339" d="M37 1526h84v-8l2 -5q0 -2 -6 -155l-4 -131q-14 0 -36.5 -2t-31.5 -2q0 32 -4 110q0 23 -1 68t-1 69v3q-2 29 -2 53zM209 1516h84v-9l2 -4q0 -2 -6 -155l-4 -131q-14 0 -36.5 -2.5t-31.5 -2.5q0 33 -4 111q0 23 -1 68t-1 69v2q-2 29 -2 54z" />
<glyph unicode="&#x201d;" horiz-adv-x="378" d="M53 1526h84v-8l2 -5q0 -2 -6 -155l-4 -131q-14 0 -36.5 -2t-31.5 -2q0 32 -4 110q0 23 -1 68t-1 69v3q-2 29 -2 53zM225 1516h84v-9l2 -4q0 -2 -6 -155l-4 -131q-14 0 -36.5 -2.5t-31.5 -2.5q0 33 -4 111q0 23 -1 68t-1 69v2q-2 29 -2 54z" />
<glyph unicode="&#x201e;" horiz-adv-x="401" d="M84 127h84v-8l2 -4q0 -3 -6 -156l-4 -131q-14 0 -36.5 -2t-31.5 -2q0 32 -4 110q0 24 -1 69t-1 69v2q-2 29 -2 53zM256 117h84v-8l2 -5q0 -2 -6 -155l-4 -131q-14 0 -36.5 -2t-31.5 -2q0 32 -4 110q0 24 -1 68.5t-1 68.5v2q-2 29 -2 54z" />
<glyph unicode="&#x2022;" horiz-adv-x="413" d="M35 711q3 95 49 153q35 47 109 47q27 0 61 -6q25 -3 59 -33q58 -50 58 -157v-17q-1 -58 -38 -105t-83 -77q-29 -20 -66 -20q-78 0 -127 90q-22 56 -22 125z" />
<glyph unicode="&#x2026;" horiz-adv-x="688" d="M84 45q1 11 2 20t4 17t4 11t5.5 11t4.5 9q3 2 7 4.5t14 6.5t16 3q5 -1 11 -7t9 -12l3 -6q4 -10 4 -22q0 -27 -2 -31v-6q0 -15 -7.5 -29t-21.5 -14h-10q-5 0 -8.5 0.5t-5 1t-2.5 0.5l-5 2h-2q-7 4 -13.5 20t-6.5 21zM315 45q1 29 21 68q3 2 7 4.5t14 6.5t16 3 q5 -1 10.5 -7t8.5 -12l3 -6q4 -10 4 -22q0 -27 -2 -31v-6q0 -15 -7 -29t-21 -14h-11q-5 0 -8.5 0.5t-5 1t-2.5 0.5l-4 2h-2q-7 4 -14 20t-7 21zM547 45q1 11 2 20t4 17t4 11t5.5 11t4.5 9q3 2 7 4.5t14 6.5t16 3q5 -1 11 -7t9 -12l3 -6q4 -10 4 -22q0 -27 -2 -31v-6 q0 -15 -7.5 -29t-21.5 -14h-10q-5 0 -9 0.5t-5.5 1t-2.5 0.5l-4 2h-2q-7 4 -13.5 20t-6.5 21z" />
<glyph unicode="&#x202f;" horiz-adv-x="350" />
<glyph unicode="&#x2039;" horiz-adv-x="415" d="M84 641l35 47l12 21l148 217h22q4 2 43 2h10q-13 -16 -37.5 -51t-33.5 -46v-2l-88 -133l-39 -53l32 -41q11 -17 25 -29l129 -167l12 -13h-49q-2 0 -26 4l-19 25l-35 41l-4 8v2q-4 4 -13 16.5t-11 14.5v2q-54 72 -113 135z" />
<glyph unicode="&#x203a;" horiz-adv-x="415" d="M84 393l12 13l129 167q14 12 25 29l33 41l-39 53l-88 133v2q-9 11 -34 46t-38 51h10q39 0 43 -2h23l147 -217l12 -21l35 -47q-55 -58 -112 -135v-2q-2 -1 -11 -13.5t-14 -17.5v-2q-4 -6 -4 -8l-35 -41l-18 -25q-24 -4 -27 -4h-49z" />
<glyph unicode="&#x205f;" horiz-adv-x="438" />
<glyph unicode="&#x20ac;" d="M8 649q14 38 21 56h10h31v30q0 17 -1 38.5t-1 27.5v26h-58l19 52l37 2v233q2 25 2 39t4 68q1 23 8 77q5 43 12 74.5t20.5 65t33 54.5t51 34.5t73.5 13.5q83 0 132.5 -57t56.5 -137q1 -15 2 -29.5t1.5 -23t0.5 -15.5q-12 -4 -43 -4q-6 0 -11.5 0.5t-8 1t-3.5 0.5 q0 16 -6 70q-12 58 -42 91t-75 33q-38 0 -65 -20q-36 -24 -52 -85t-16 -124q0 -39 -2 -43v-4v-2q0 -45 -2 -78v-2v-227h66h129l-13 -60h-2q-1 0 -5 -0.5t-10.5 -1t-12.5 -0.5q-23 0 -80 2t-70 2v-118h144l-13 -52h-2q-3 -1 -15.5 -1.5t-38.5 -1t-44 -1.5l-29 -2v-28v-121 q0 -65 2 -88q7 -127 28.5 -212.5t70.5 -121.5q34 -25 59 -25q71 0 96 88q15 55 15 119q2 8 2 35v10h22q31 0 43 -4v-51q0 -16 -4 -62q-10 -67 -26 -108t-48 -64q-42 -34 -137 -34q-33 6 -47 12h-2q-26 9 -47 31t-35.5 59t-25.5 74t-17 91t-10 93.5t-5.5 98.5t-2 89t-0.5 82 v35h-64z" />
<glyph unicode="&#x2122;" horiz-adv-x="716" d="M23 1456q0 15 6 34.5t6 20.5h8q10 0 10 2h4h4q3 -2 11 -2h153l2 -2h15h28q8 0 23 -1.5t18 1.5l2 -59h-14h-102l2 -207q0 -13 1 -27.5t1 -17.5v-111q0 -14 1 -22.5t1 -9.5v-23q1 -71 2.5 -122t1.5 -72v-11l-12 -4l-19 -2q-14 0 -15 2h-1h-15l-2 15v36l-2 3v71 q-2 11 -4 111l-2 186v21v2v78v104h-61q-33 3 -37 4zM326 975v160v24q2 51 2 82q1 21 2 81.5t2 78.5q1 17 2 52.5t2 49.5v15h29q14 1 20 0.5t10.5 -1.5t7.5 -1h13l2 -13q2 -9 2.5 -12t1.5 -6q2 -15 5.5 -31.5t8 -36t6.5 -28.5q11 -64 43 -191l7 23q4 8 4 10v2v2q9 32 31 99.5 t30 101.5q4 15 9 28t8.5 21.5t3.5 9.5q12 35 30 35h4q17 0 23 -2h2q12 -8 12 -55q0 -3 1 -13t1 -12v-2q0 -25 2 -31v-45v-49v-37q2 -51 2 -170q0 -8 -2 -14v-13q0 -46 -1 -119t-1 -120v-14q2 -11 -2 -13q-7 -4 -18.5 -4.5t-24 1t-14.5 1.5l-2 45q0 31 2 35v221q2 14 2 33v74 q0 5 -1 13l-1 7v19q0 5 -0.5 19.5t-1 26.5t-0.5 13v6l-2 -10q-4 -13 -13 -36t-12 -36l-10 -39q-19 -61 -23 -69q-2 -5 -18 -86l-4 -15l-16 4q-18 0 -25 9l-18 61l-46 166l-10 49l-2 -65v-31v-39v-41v-31v-61v-2v-29q0 -19 -1 -102t-1 -94v-15l-45 -4l-2 2q-2 2 -6 2l-2 2 l-6 13v32q0 23 -1 48t-1 61z" />
<glyph unicode="&#xe000;" horiz-adv-x="1515" d="M0 0v1516h1516v-1516h-1516z" />
</font>
</defs>
</svg>
